Oswald--200.ufo
<glyph name="exclam" format="1">
  <advance width="404"/>
  <unicode hex="0021"/>
  <outline>
    <contour>
      <point x="139" y="0" type="line"/>
      <point x="262" y="0" type="line"/>
      <point x="279" y="151" type="line"/>
      <point x="155" y="151" type="line"/>
    </contour>
    <contour>
      <point x="220" y="356" type="line"/>
      <point x="259" y="356" type="line"/>
      <point x="439" y="1658" type="line"/>
      <point x="315" y="1658" type="line"/>
    </contour>
  </outline>
</glyph>
<glyph name="quotedbl" format="1">
  <advance width="699"/>
  <unicode hex="0022"/>
  <outline>
    <contour>
      <point x="287" y="1188" type="line"/>
      <point x="347" y="1188" type="line"/>
      <point x="448" y="1658" type="line"/>
      <point x="336" y="1658" type="line"/>
    </contour>
    <contour>
      <point x="557" y="1188" type="line"/>
      <point x="617" y="1188" type="line"/>
      <point x="717" y="1658" type="line"/>
      <point x="606" y="1658" type="line"/>
    </contour>
  </outline>
</glyph>
<glyph name="numbersign" format="1">
  <advance width="928"/>
  <unicode hex="0023"/>
  <outline>
    <contour>
      <point x="131" y="0" type="line"/>
      <point x="234" y="0" type="line"/>
      <point x="392" y="599" type="line"/>
      <point x="606" y="599" type="line"/>
      <point x="448" y="0" type="line"/>
      <point x="551" y="0" type="line"/>
      <point x="709" y="599" type="line"/>
      <point x="870" y="599" type="line"/>
      <point x="879" y="678" type="line"/>
      <point x="731" y="678" type="line"/>
      <point x="823" y="1022" type="line"/>
      <point x="952" y="1022" type="line"/>
      <point x="961" y="1101" type="line"/>
      <point x="843" y="1101" type="line"/>
      <point x="991" y="1658" type="line"/>
      <point x="888" y="1658" type="line"/>
      <point x="741" y="1101" type="line"/>
      <point x="526" y="1101" type="line"/>
      <point x="674" y="1658" type="line"/>
      <point x="571" y="1658" type="line"/>
      <point x="423" y="1101" type="line"/>
      <point x="249" y="1101" type="line"/>
      <point x="241" y="1022" type="line"/>
      <point x="403" y="1022" type="line"/>
      <point x="310" y="678" type="line"/>
      <point x="167" y="678" type="line"/>
      <point x="158" y="599" type="line"/>
      <point x="289" y="599" type="line"/>
    </contour>
    <contour>
      <point x="413" y="678" type="line"/>
      <point x="506" y="1022" type="line"/>
      <point x="720" y="1022" type="line"/>
      <point x="628" y="678" type="line"/>
    </contour>
  </outline>
</glyph>
<glyph name="dollar" format="1">
  <advance width="923"/>
  <unicode hex="0024"/>
  <outline>
    <contour>
      <point x="455" y="-192" type="line"/>
      <point x="515" y="-192" type="line"/>
      <point x="533" y="-19" type="line"/>
      <point x="726" y="-2"/>
      <point x="869" y="115"/>
      <point x="893" y="344" type="curve" smooth="yes"/>
      <point x="912" y="521"/>
      <point x="814" y="668"/>
      <point x="695" y="799" type="curve" smooth="yes"/>
      <point x="426" y="1094" type="line" smooth="yes"/>
      <point x="345" y="1186"/>
      <point x="323" y="1261"/>
      <point x="331" y="1345" type="curve" smooth="yes"/>
      <point x="349" y="1514"/>
      <point x="469" y="1585"/>
      <point x="622" y="1587" type="curve" smooth="yes"/>
      <point x="820" y="1591"/>
      <point x="879" y="1472"/>
      <point x="874" y="1239" type="curve"/>
      <point x="971" y="1261" type="line"/>
      <point x="983" y="1558"/>
      <point x="868" y="1666"/>
      <point x="663" y="1676" type="curve"/>
      <point x="684" y="1870" type="line"/>
      <point x="623" y="1870" type="line"/>
      <point x="602" y="1676" type="line"/>
      <point x="399" y="1666"/>
      <point x="252" y="1549"/>
      <point x="229" y="1337" type="curve" smooth="yes"/>
      <point x="218" y="1229"/>
      <point x="249" y="1124"/>
      <point x="341" y="1022" type="curve" smooth="yes"/>
      <point x="612" y="720" type="line" smooth="yes"/>
      <point x="734" y="585"/>
      <point x="804" y="483"/>
      <point x="788" y="338" type="curve" smooth="yes"/>
      <point x="768" y="148"/>
      <point x="659" y="71"/>
      <point x="494" y="71" type="curve" smooth="yes"/>
      <point x="278" y="71"/>
      <point x="235" y="221"/>
      <point x="230" y="440" type="curve"/>
      <point x="128" y="409" type="line"/>
      <point x="122" y="151"/>
      <point x="219" y="-17"/>
      <point x="474" y="-21" type="curve"/>
    </contour>
  </outline>
</glyph>
<glyph name="percent" format="1">
  <advance width="1302"/>
  <unicode hex="0025"/>
  <outline>
    <contour>
      <point x="395" y="940" type="curve" smooth="yes"/>
      <point x="311" y="940"/>
      <point x="292" y="1013"/>
      <point x="304" y="1128" type="curve" smooth="yes"/>
      <point x="336" y="1429" type="line" smooth="yes"/>
      <point x="347" y="1539"/>
      <point x="381" y="1614"/>
      <point x="465" y="1614" type="curve" smooth="yes"/>
      <point x="548" y="1614"/>
      <point x="567" y="1540"/>
      <point x="556" y="1430" type="curve" smooth="yes"/>
      <point x="524" y="1128" type="line" smooth="yes"/>
      <point x="512" y="1014"/>
      <point x="478" y="940"/>
    </contour>
    <contour>
      <point x="385" y="855" type="curve" smooth="yes"/>
      <point x="543" y="855"/>
      <point x="606" y="970"/>
      <point x="623" y="1132" type="curve" smooth="yes"/>
      <point x="654" y="1428" type="line" smooth="yes"/>
      <point x="671" y="1590"/>
      <point x="629" y="1699"/>
      <point x="474" y="1699" type="curve" smooth="yes"/>
      <point x="319" y="1699"/>
      <point x="253" y="1589"/>
      <point x="236" y="1425" type="curve" smooth="yes"/>
      <point x="206" y="1134" type="line" smooth="yes"/>
      <point x="189" y="973"/>
      <point x="227" y="855"/>
    </contour>
    <contour>
      <point x="1015" y="72" type="curve" smooth="yes"/>
      <point x="931" y="72"/>
      <point x="913" y="145"/>
      <point x="925" y="260" type="curve" smooth="yes"/>
      <point x="956" y="561" type="line" smooth="yes"/>
      <point x="968" y="671"/>
      <point x="1001" y="746"/>
      <point x="1086" y="746" type="curve" smooth="yes"/>
      <point x="1169" y="746"/>
      <point x="1188" y="672"/>
      <point x="1176" y="562" type="curve" smooth="yes"/>
      <point x="1144" y="260" type="line" smooth="yes"/>
      <point x="1132" y="146"/>
      <point x="1098" y="72"/>
    </contour>
    <contour>
      <point x="1006" y="-13" type="curve" smooth="yes"/>
      <point x="1164" y="-13"/>
      <point x="1227" y="102"/>
      <point x="1243" y="264" type="curve" smooth="yes"/>
      <point x="1275" y="560" type="line" smooth="yes"/>
      <point x="1292" y="722"/>
      <point x="1249" y="831"/>
      <point x="1094" y="831" type="curve" smooth="yes"/>
      <point x="939" y="831"/>
      <point x="874" y="721"/>
      <point x="857" y="557" type="curve" smooth="yes"/>
      <point x="826" y="266" type="line" smooth="yes"/>
      <point x="809" y="105"/>
      <point x="848" y="-13"/>
    </contour>
    <contour>
      <point x="320" y="0" type="line"/>
      <point x="421" y="0" type="line"/>
      <point x="1162" y="1680" type="line"/>
      <point x="1063" y="1680" type="line"/>
    </contour>
  </outline>
</glyph>
<glyph name="ampersand" format="1">
  <advance width="1232"/>
  <unicode hex="0026"/>
  <outline>
    <contour>
      <point x="509" y="-22" type="curve" smooth="yes"/>
      <point x="661" y="-22"/>
      <point x="791" y="55"/>
      <point x="877" y="141" type="curve"/>
      <point x="930" y="59"/>
      <point x="1002" y="3"/>
      <point x="1086" y="-8" type="curve" smooth="yes"/>
      <point x="1101" y="-11"/>
      <point x="1116" y="-12"/>
      <point x="1130" y="-12" type="curve"/>
      <point x="1141" y="89" type="line"/>
      <point x="1069" y="89"/>
      <point x="1015" y="110"/>
      <point x="949" y="208" type="curve"/>
      <point x="1089" y="353"/>
      <point x="1188" y="577"/>
      <point x="1202" y="719" type="curve"/>
      <point x="1103" y="719" type="line"/>
      <point x="1087" y="600"/>
      <point x="1000" y="393"/>
      <point x="897" y="278" type="curve"/>
      <point x="595" y="848" type="line"/>
      <point x="844" y="1048"/>
      <point x="1003" y="1221"/>
      <point x="1021" y="1388" type="curve" smooth="yes"/>
      <point x="1039" y="1566"/>
      <point x="926" y="1677"/>
      <point x="718" y="1677" type="curve" smooth="yes"/>
      <point x="506" y="1677"/>
      <point x="357" y="1557"/>
      <point x="334" y="1337" type="curve" smooth="yes"/>
      <point x="318" y="1195"/>
      <point x="371" y="1086"/>
      <point x="486" y="861" type="curve"/>
      <point x="252" y="652"/>
      <point x="170" y="508"/>
      <point x="154" y="358" type="curve" smooth="yes"/>
      <point x="133" y="155"/>
      <point x="243" y="-22"/>
    </contour>
    <contour>
      <point x="520" y="70" type="curve" smooth="yes"/>
      <point x="306" y="70"/>
      <point x="250" y="224"/>
      <point x="264" y="357" type="curve" smooth="yes"/>
      <point x="278" y="488"/>
      <point x="341" y="608"/>
      <point x="523" y="782" type="curve"/>
      <point x="827" y="211" type="line"/>
      <point x="721" y="112"/>
      <point x="629" y="70"/>
    </contour>
    <contour>
      <point x="562" y="916" type="curve"/>
      <point x="468" y="1106"/>
      <point x="427" y="1214"/>
      <point x="440" y="1340" type="curve" smooth="yes"/>
      <point x="454" y="1476"/>
      <point x="542" y="1586"/>
      <point x="706" y="1586" type="curve" smooth="yes"/>
      <point x="845" y="1586"/>
      <point x="929" y="1518"/>
      <point x="915" y="1392" type="curve" smooth="yes"/>
      <point x="898" y="1226"/>
      <point x="736" y="1064"/>
    </contour>
  </outline>
</glyph>
<glyph name="quotesingle" format="1">
  <advance width="487"/>
  <unicode hex="0027"/>
  <outline>
    <contour>
      <point x="287" y="1188" type="line"/>
      <point x="347" y="1188" type="line"/>
      <point x="448" y="1658" type="line"/>
      <point x="336" y="1658" type="line"/>
    </contour>
  </outline>
</glyph>
<glyph name="parenleft" format="1">
  <advance width="545"/>
  <unicode hex="0028"/>
  <outline>
    <contour>
      <point x="450" y="-302" type="curve"/>
      <point x="458" y="-224" type="line"/>
      <point x="251" y="-194"/>
      <point x="294" y="184"/>
      <point x="347" y="683" type="curve" smooth="yes"/>
      <point x="398" y="1180"/>
      <point x="436" y="1560"/>
      <point x="649" y="1590" type="curve"/>
      <point x="657" y="1669" type="line"/>
      <point x="346" y="1654"/>
      <point x="297" y="1236"/>
      <point x="239" y="683" type="curve" smooth="yes"/>
      <point x="181" y="134"/>
      <point x="144" y="-273"/>
    </contour>
  </outline>
</glyph>
<glyph name="parenright" format="1">
  <advance width="522"/>
  <unicode hex="0029"/>
  <outline>
    <contour>
      <point x="31" y="-302" type="line"/>
      <point x="343" y="-273"/>
      <point x="392" y="135"/>
      <point x="450" y="684" type="curve" smooth="yes"/>
      <point x="507" y="1237"/>
      <point x="546" y="1654"/>
      <point x="238" y="1669" type="curve"/>
      <point x="230" y="1590" type="line"/>
      <point x="437" y="1561"/>
      <point x="394" y="1182"/>
      <point x="342" y="684" type="curve" smooth="yes"/>
      <point x="290" y="186"/>
      <point x="253" y="-194"/>
      <point x="40" y="-224" type="curve"/>
    </contour>
  </outline>
</glyph>
<glyph name="asterisk" format="1">
  <advance width="730"/>
  <unicode hex="002A"/>
  <outline>
    <contour>
      <point x="310" y="1008" type="line"/>
      <point x="506" y="1269" type="line"/>
      <point x="647" y="1008" type="line"/>
      <point x="720" y="1049" type="line"/>
      <point x="558" y="1298" type="line"/>
      <point x="833" y="1405" type="line"/>
      <point x="811" y="1476" type="line"/>
      <point x="545" y="1353" type="line"/>
      <point x="593" y="1657" type="line"/>
      <point x="506" y="1657" type="line"/>
      <point x="487" y="1353" type="line"/>
      <point x="244" y="1476" type="line"/>
      <point x="207" y="1405" type="line"/>
      <point x="461" y="1298" type="line"/>
      <point x="247" y="1052" type="line"/>
    </contour>
  </outline>
</glyph>
<glyph name="plus" format="1">
  <advance width="745"/>
  <unicode hex="002B"/>
  <outline>
    <contour>
      <point x="380" y="492" type="line"/>
      <point x="466" y="492" type="line"/>
      <point x="499" y="810" type="line"/>
      <point x="784" y="810" type="line"/>
      <point x="793" y="892" type="line"/>
      <point x="508" y="892" type="line"/>
      <point x="540" y="1205" type="line"/>
      <point x="455" y="1205" type="line"/>
      <point x="422" y="892" type="line"/>
      <point x="140" y="892" type="line"/>
      <point x="131" y="810" type="line"/>
      <point x="414" y="810" type="line"/>
    </contour>
  </outline>
</glyph>
<glyph name="comma" format="1">
  <advance width="363"/>
  <unicode hex="002C"/>
  <outline>
    <contour>
      <point x="118" y="-220" type="line"/>
      <point x="213" y="-163"/>
      <point x="247" y="-104"/>
      <point x="260" y="23" type="curve" smooth="yes"/>
      <point x="280" y="216" type="line"/>
      <point x="148" y="216" type="line"/>
      <point x="125" y="0" type="line"/>
      <point x="199" y="0" type="line"/>
      <point x="190" y="-82"/>
      <point x="170" y="-121"/>
      <point x="95" y="-173" type="curve"/>
    </contour>
  </outline>
</glyph>
<glyph name="hyphen" format="1">
  <advance width="580"/>
  <unicode hex="002D"/>
  <outline>
    <contour>
      <point x="147" y="653" type="line"/>
      <point x="571" y="653" type="line"/>
      <point x="580" y="743" type="line"/>
      <point x="157" y="743" type="line"/>
    </contour>
  </outline>
</glyph>
<glyph name="period" format="1">
  <advance width="363"/>
  <unicode hex="002E"/>
  <outline>
    <contour>
      <point x="135" y="0" type="line"/>
      <point x="257" y="0" type="line"/>
      <point x="280" y="213" type="line"/>
      <point x="158" y="213" type="line"/>
    </contour>
  </outline>
</glyph>
<glyph name="zero" format="1">
  <advance width="1009"/>
  <unicode hex="0030"/>
  <outline>
    <contour>
      <point x="511" y="62" type="curve" smooth="yes"/>
      <point x="301" y="62"/>
      <point x="253" y="223"/>
      <point x="277" y="448" type="curve" smooth="yes"/>
      <point x="357" y="1209" type="line" smooth="yes"/>
      <point x="380" y="1434"/>
      <point x="463" y="1593"/>
      <point x="672" y="1593" type="curve" smooth="yes"/>
      <point x="883" y="1593"/>
      <point x="929" y="1434"/>
      <point x="905" y="1209" type="curve" smooth="yes"/>
      <point x="825" y="448" type="line" smooth="yes"/>
      <point x="802" y="223"/>
      <point x="722" y="62"/>
    </contour>
    <contour>
      <point x="502" y="-22" type="curve" smooth="yes"/>
      <point x="807" y="-22"/>
      <point x="911" y="182"/>
      <point x="941" y="466" type="curve" smooth="yes"/>
      <point x="1016" y="1191" type="line" smooth="yes"/>
      <point x="1046" y="1477"/>
      <point x="974" y="1677"/>
      <point x="680" y="1677" type="curve" smooth="yes"/>
      <point x="386" y="1677"/>
      <point x="273" y="1477"/>
      <point x="243" y="1191" type="curve" smooth="yes"/>
      <point x="167" y="466" type="line" smooth="yes"/>
      <point x="137" y="183"/>
      <point x="199" y="-22"/>
    </contour>
  </outline>
</glyph>
<glyph name="one" format="1">
  <advance width="825"/>
  <unicode hex="0031"/>
  <outline>
    <contour>
      <point x="427" y="0" type="line"/>
      <point x="536" y="0" type="line"/>
      <point x="710" y="1658" type="line"/>
      <point x="617" y="1658" type="line"/>
      <point x="540" y="1561"/>
      <point x="417" y="1486"/>
      <point x="343" y="1466" type="curve"/>
      <point x="333" y="1372" type="line"/>
      <point x="377" y="1385"/>
      <point x="528" y="1437"/>
      <point x="585" y="1510" type="curve"/>
    </contour>
  </outline>
</glyph>
<glyph name="two" format="1">
  <advance width="1001"/>
  <unicode hex="0032"/>
  <outline>
    <contour>
      <point x="111" y="0" type="line"/>
      <point x="844" y="0" type="line"/>
      <point x="854" y="93" type="line"/>
      <point x="246" y="93" type="line"/>
      <point x="749" y="748" type="line" smooth="yes"/>
      <point x="868" y="903"/>
      <point x="989" y="1063"/>
      <point x="1010" y="1260" type="curve" smooth="yes"/>
      <point x="1037" y="1521"/>
      <point x="927" y="1677"/>
      <point x="688" y="1677" type="curve" smooth="yes"/>
      <point x="414" y="1677"/>
      <point x="280" y="1527"/>
      <point x="248" y="1221" type="curve"/>
      <point x="244" y="1187" type="line"/>
      <point x="351" y="1187" type="line"/>
      <point x="351" y="1192"/>
      <point x="353" y="1211"/>
      <point x="354" y="1215" type="curve" smooth="yes"/>
      <point x="379" y="1431"/>
      <point x="448" y="1585"/>
      <point x="682" y="1585" type="curve" smooth="yes"/>
      <point x="846" y="1585"/>
      <point x="924" y="1468"/>
      <point x="903" y="1275" type="curve" smooth="yes"/>
      <point x="882" y="1071"/>
      <point x="773" y="938"/>
      <point x="654" y="783" type="curve" smooth="yes"/>
      <point x="119" y="82" type="line"/>
    </contour>
  </outline>
</glyph>
<glyph name="three" format="1">
  <advance width="994"/>
  <unicode hex="0033"/>
  <outline>
    <contour>
      <point x="485" y="-22" type="curve" smooth="yes"/>
      <point x="761" y="-22"/>
      <point x="890" y="169"/>
      <point x="919" y="443" type="curve" smooth="yes"/>
      <point x="949" y="729"/>
      <point x="829" y="839"/>
      <point x="727" y="865" type="curve"/>
      <point x="864" y="891"/>
      <point x="979" y="1017"/>
      <point x="1005" y="1269" type="curve" smooth="yes"/>
      <point x="1030" y="1500"/>
      <point x="940" y="1677"/>
      <point x="686" y="1677" type="curve" smooth="yes"/>
      <point x="410" y="1677"/>
      <point x="299" y="1522"/>
      <point x="275" y="1291" type="curve" smooth="yes"/>
      <point x="272" y="1264" type="line"/>
      <point x="375" y="1264" type="line"/>
      <point x="376" y="1267"/>
      <point x="378" y="1285"/>
      <point x="378" y="1288" type="curve" smooth="yes"/>
      <point x="402" y="1508"/>
      <point x="500" y="1590"/>
      <point x="678" y="1590" type="curve" smooth="yes"/>
      <point x="865" y="1590"/>
      <point x="914" y="1457"/>
      <point x="894" y="1270" type="curve" smooth="yes"/>
      <point x="868" y="1025"/>
      <point x="784" y="916"/>
      <point x="589" y="915" type="curve" smooth="yes"/>
      <point x="587" y="915"/>
      <point x="545" y="915"/>
      <point x="543" y="915" type="curve"/>
      <point x="532" y="820" type="line"/>
      <point x="535" y="820"/>
      <point x="578" y="820"/>
      <point x="580" y="820" type="curve" smooth="yes"/>
      <point x="775" y="816"/>
      <point x="829" y="662"/>
      <point x="807" y="440" type="curve" smooth="yes"/>
      <point x="775" y="146"/>
      <point x="648" y="66"/>
      <point x="495" y="66" type="curve" smooth="yes"/>
      <point x="321" y="66"/>
      <point x="262" y="174"/>
      <point x="281" y="367" type="curve" smooth="yes"/>
      <point x="281" y="370"/>
      <point x="284" y="396"/>
      <point x="284" y="399" type="curve"/>
      <point x="182" y="399" type="line"/>
      <point x="179" y="368" type="line" smooth="yes"/>
      <point x="154" y="134"/>
      <point x="234" y="-22"/>
    </contour>
  </outline>
</glyph>
<glyph name="four" format="1">
  <advance width="1009"/>
  <unicode hex="0034"/>
  <outline>
    <contour>
      <point x="627" y="0" type="line"/>
      <point x="736" y="0" type="line"/>
      <point x="790" y="509" type="line"/>
      <point x="981" y="509" type="line"/>
      <point x="991" y="611" type="line"/>
      <point x="800" y="611" type="line"/>
      <point x="910" y="1658" type="line"/>
      <point x="783" y="1658" type="line"/>
      <point x="180" y="614" type="line"/>
      <point x="169" y="509" type="line"/>
      <point x="681" y="509" type="line"/>
    </contour>
    <contour>
      <point x="294" y="611" type="line"/>
      <point x="785" y="1500" type="line"/>
      <point x="691" y="611" type="line"/>
    </contour>
  </outline>
</glyph>
<glyph name="five" format="1">
  <advance width="1000"/>
  <unicode hex="0035"/>
  <outline>
    <contour>
      <point x="513" y="-19" type="curve" smooth="yes"/>
      <point x="767" y="-19"/>
      <point x="899" y="149"/>
      <point x="938" y="518" type="curve" smooth="yes"/>
      <point x="973" y="860"/>
      <point x="895" y="1040"/>
      <point x="662" y="1040" type="curve" smooth="yes"/>
      <point x="528" y="1040"/>
      <point x="440" y="983"/>
      <point x="388" y="920" type="curve"/>
      <point x="459" y="1564" type="line"/>
      <point x="966" y="1564" type="line"/>
      <point x="979" y="1658" type="line"/>
      <point x="376" y="1658" type="line"/>
      <point x="288" y="816" type="line"/>
      <point x="377" y="816" type="line"/>
      <point x="455" y="919"/>
      <point x="541" y="955"/>
      <point x="625" y="955" type="curve" smooth="yes"/>
      <point x="794" y="955"/>
      <point x="867" y="857"/>
      <point x="830" y="507" type="curve" smooth="yes"/>
      <point x="798" y="201"/>
      <point x="721" y="67"/>
      <point x="528" y="67" type="curve" smooth="yes"/>
      <point x="350" y="67"/>
      <point x="290" y="173"/>
      <point x="315" y="406" type="curve"/>
      <point x="208" y="406" type="line"/>
      <point x="178" y="125"/>
      <point x="266" y="-19"/>
    </contour>
  </outline>
</glyph>
<glyph name="six" format="1">
  <advance width="1008"/>
  <unicode hex="0036"/>
  <outline>
    <contour>
      <point x="515" y="-22" type="curve" smooth="yes"/>
      <point x="791" y="-22"/>
      <point x="916" y="155"/>
      <point x="949" y="462" type="curve" smooth="yes"/>
      <point x="989" y="841"/>
      <point x="912" y="966"/>
      <point x="642" y="966" type="curve" smooth="yes"/>
      <point x="525" y="966"/>
      <point x="409" y="914"/>
      <point x="351" y="878" type="curve"/>
      <point x="388" y="1228" type="line" smooth="yes"/>
      <point x="417" y="1511"/>
      <point x="544" y="1587"/>
      <point x="691" y="1587" type="curve" smooth="yes"/>
      <point x="860" y="1587"/>
      <point x="923" y="1509"/>
      <point x="898" y="1266" type="curve"/>
      <point x="1003" y="1266" type="line"/>
      <point x="1003" y="1268"/>
      <point x="1007" y="1302"/>
      <point x="1008" y="1304" type="curve" smooth="yes"/>
      <point x="1032" y="1556"/>
      <point x="938" y="1677"/>
      <point x="693" y="1677" type="curve" smooth="yes"/>
      <point x="432" y="1677"/>
      <point x="308" y="1500"/>
      <point x="277" y="1207" type="curve" smooth="yes"/>
      <point x="201" y="483" type="line" smooth="yes"/>
      <point x="166" y="150"/>
      <point x="254" y="-22"/>
    </contour>
    <contour>
      <point x="525" y="70" type="curve" smooth="yes"/>
      <point x="356" y="70"/>
      <point x="275" y="159"/>
      <point x="309" y="485" type="curve" smooth="yes"/>
      <point x="342" y="795" type="line"/>
      <point x="391" y="826"/>
      <point x="512" y="879"/>
      <point x="610" y="879" type="curve" smooth="yes"/>
      <point x="844" y="879"/>
      <point x="868" y="764"/>
      <point x="835" y="448" type="curve" smooth="yes"/>
      <point x="804" y="147"/>
      <point x="699" y="70"/>
    </contour>
  </outline>
</glyph>
<glyph name="seven" format="1">
  <advance width="946"/>
  <unicode hex="0037"/>
  <outline>
    <contour>
      <point x="355" y="0" type="line"/>
      <point x="461" y="0" type="line"/>
      <point x="973" y="1604" type="line"/>
      <point x="978" y="1658" type="line"/>
      <point x="329" y="1658" type="line"/>
      <point x="320" y="1568" type="line"/>
      <point x="857" y="1568" type="line"/>
    </contour>
  </outline>
</glyph>
<glyph name="eight" format="1">
  <advance width="1001"/>
  <unicode hex="0038"/>
  <outline>
    <contour>
      <point x="498" y="-23" type="curve" smooth="yes"/>
      <point x="774" y="-23"/>
      <point x="896" y="159"/>
      <point x="925" y="432" type="curve" smooth="yes"/>
      <point x="959" y="759"/>
      <point x="813" y="824"/>
      <point x="712" y="868" type="curve"/>
      <point x="864" y="913"/>
      <point x="974" y="1036"/>
      <point x="998" y="1262" type="curve" smooth="yes"/>
      <point x="1022" y="1492"/>
      <point x="950" y="1677"/>
      <point x="677" y="1677" type="curve" smooth="yes"/>
      <point x="402" y="1677"/>
      <point x="294" y="1497"/>
      <point x="269" y="1267" type="curve" smooth="yes"/>
      <point x="246" y="1041"/>
      <point x="328" y="912"/>
      <point x="471" y="868" type="curve"/>
      <point x="362" y="824"/>
      <point x="202" y="760"/>
      <point x="168" y="432" type="curve" smooth="yes"/>
      <point x="139" y="159"/>
      <point x="221" y="-23"/>
    </contour>
    <contour>
      <point x="508" y="66" type="curve" smooth="yes"/>
      <point x="343" y="66"/>
      <point x="247" y="159"/>
      <point x="276" y="434" type="curve" smooth="yes"/>
      <point x="300" y="662"/>
      <point x="388" y="798"/>
      <point x="588" y="821" type="curve" smooth="yes"/>
      <point x="780" y="798"/>
      <point x="840" y="662"/>
      <point x="816" y="434" type="curve" smooth="yes"/>
      <point x="787" y="159"/>
      <point x="673" y="66"/>
    </contour>
    <contour>
      <point x="597" y="916" type="curve" smooth="yes"/>
      <point x="405" y="928"/>
      <point x="356" y="1060"/>
      <point x="377" y="1263" type="curve" smooth="yes"/>
      <point x="400" y="1486"/>
      <point x="494" y="1586"/>
      <point x="667" y="1586" type="curve" smooth="yes"/>
      <point x="840" y="1586"/>
      <point x="914" y="1486"/>
      <point x="891" y="1263" type="curve" smooth="yes"/>
      <point x="870" y="1060"/>
      <point x="791" y="928"/>
    </contour>
  </outline>
</glyph>
<glyph name="nine" format="1">
  <advance width="1008"/>
  <unicode hex="0039"/>
  <outline>
    <contour>
      <point x="514" y="-22" type="curve" smooth="yes"/>
      <point x="775" y="-22"/>
      <point x="891" y="155"/>
      <point x="922" y="448" type="curve" smooth="yes"/>
      <point x="998" y="1172" type="line" smooth="yes"/>
      <point x="1033" y="1505"/>
      <point x="947" y="1677"/>
      <point x="686" y="1677" type="curve" smooth="yes"/>
      <point x="410" y="1677"/>
      <point x="282" y="1500"/>
      <point x="250" y="1193" type="curve" smooth="yes"/>
      <point x="210" y="814"/>
      <point x="286" y="689"/>
      <point x="556" y="689" type="curve" smooth="yes"/>
      <point x="703" y="689"/>
      <point x="803" y="741"/>
      <point x="848" y="776" type="curve"/>
      <point x="811" y="427" type="line" smooth="yes"/>
      <point x="781" y="144"/>
      <point x="676" y="68"/>
      <point x="526" y="68" type="curve" smooth="yes"/>
      <point x="333" y="68"/>
      <point x="275" y="146"/>
      <point x="301" y="389" type="curve"/>
      <point x="196" y="389" type="line"/>
      <point x="195" y="388"/>
      <point x="192" y="354"/>
      <point x="191" y="352" type="curve" smooth="yes"/>
      <point x="166" y="99"/>
      <point x="268" y="-22"/>
    </contour>
    <contour>
      <point x="588" y="776" type="curve" smooth="yes"/>
      <point x="355" y="776"/>
      <point x="330" y="891"/>
      <point x="364" y="1207" type="curve" smooth="yes"/>
      <point x="394" y="1494"/>
      <point x="502" y="1585"/>
      <point x="676" y="1585" type="curve" smooth="yes"/>
      <point x="846" y="1585"/>
      <point x="923" y="1496"/>
      <point x="888" y="1170" type="curve" smooth="yes"/>
      <point x="856" y="860" type="line"/>
      <point x="810" y="826"/>
      <point x="717" y="776"/>
    </contour>
  </outline>
</glyph>
<glyph name="colon" format="1">
  <advance width="392"/>
  <unicode hex="003A"/>
  <outline>
    <contour>
      <point x="170" y="155" type="line"/>
      <point x="291" y="155" type="line"/>
      <point x="313" y="365" type="line"/>
      <point x="192" y="365" type="line"/>
    </contour>
    <contour>
      <point x="245" y="877" type="line"/>
      <point x="366" y="877" type="line"/>
      <point x="389" y="1088" type="line"/>
      <point x="268" y="1088" type="line"/>
    </contour>
  </outline>
</glyph>
<glyph name="semicolon" format="1">
  <advance width="417"/>
  <unicode hex="003B"/>
  <outline>
    <contour>
      <point x="163" y="-34" type="line"/>
      <point x="259" y="11"/>
      <point x="290" y="71"/>
      <point x="303" y="198" type="curve" smooth="yes"/>
      <point x="322" y="373" type="line"/>
      <point x="192" y="373" type="line"/>
      <point x="171" y="175" type="line"/>
      <point x="242" y="175" type="line"/>
      <point x="233" y="93"/>
      <point x="217" y="60"/>
      <point x="140" y="13" type="curve"/>
    </contour>
    <contour>
      <point x="247" y="896" type="line"/>
      <point x="367" y="896" type="line"/>
      <point x="390" y="1109" type="line"/>
      <point x="270" y="1109" type="line"/>
    </contour>
  </outline>
</glyph>
<glyph name="less" format="1">
  <advance width="732"/>
  <unicode hex="003C"/>
  <outline>
    <contour>
      <point x="631" y="157" type="line"/>
      <point x="644" y="272" type="line"/>
      <point x="211" y="630" type="line"/>
      <point x="720" y="1003" type="line"/>
      <point x="733" y="1120" type="line"/>
      <point x="131" y="683" type="line"/>
      <point x="120" y="577" type="line"/>
    </contour>
  </outline>
</glyph>
<glyph name="equal" format="1">
  <advance width="802"/>
  <unicode hex="003D"/>
  <outline>
    <contour>
      <point x="162" y="590" type="line"/>
      <point x="764" y="590" type="line"/>
      <point x="773" y="682" type="line"/>
      <point x="172" y="682" type="line"/>
    </contour>
    <contour>
      <point x="197" y="923" type="line"/>
      <point x="798" y="923" type="line"/>
      <point x="808" y="1014" type="line"/>
      <point x="207" y="1014" type="line"/>
    </contour>
  </outline>
</glyph>
<glyph name="greater" format="1">
  <advance width="732"/>
  <unicode hex="003E"/>
  <outline>
    <contour>
      <point x="134" y="157" type="line"/>
      <point x="737" y="594" type="line"/>
      <point x="748" y="699" type="line"/>
      <point x="235" y="1120" type="line"/>
      <point x="223" y="1005" type="line"/>
      <point x="656" y="647" type="line"/>
      <point x="146" y="273" type="line"/>
    </contour>
  </outline>
</glyph>
<glyph name="question" format="1">
  <advance width="955"/>
  <unicode hex="003F"/>
  <outline>
    <contour>
      <point x="413" y="410" type="line"/>
      <point x="508" y="410" type="line"/>
      <point x="531" y="630" type="line"/>
      <point x="804" y="804"/>
      <point x="953" y="975"/>
      <point x="982" y="1244" type="curve" smooth="yes"/>
      <point x="1013" y="1540"/>
      <point x="853" y="1679"/>
      <point x="649" y="1679" type="curve" smooth="yes"/>
      <point x="427" y="1679"/>
      <point x="235" y="1549"/>
      <point x="270" y="1292" type="curve" smooth="yes"/>
      <point x="280" y="1217" type="line"/>
      <point x="379" y="1241" type="line"/>
      <point x="371" y="1314" type="line" smooth="yes"/>
      <point x="348" y="1491"/>
      <point x="472" y="1584"/>
      <point x="639" y="1584" type="curve" smooth="yes"/>
      <point x="780" y="1584"/>
      <point x="903" y="1481"/>
      <point x="878" y="1245" type="curve" smooth="yes"/>
      <point x="854" y="1021"/>
      <point x="736" y="845"/>
      <point x="440" y="661" type="curve"/>
    </contour>
    <contour>
      <point x="366" y="1" type="line"/>
      <point x="473" y="1" type="line"/>
      <point x="488" y="150" type="line"/>
      <point x="381" y="150" type="line"/>
    </contour>
  </outline>
</glyph>
<glyph name="at" format="1">
  <advance width="1649"/>
  <unicode hex="0040"/>
  <outline>
    <contour>
      <point x="886" y="-203" type="curve" smooth="yes"/>
      <point x="1006" y="-203"/>
      <point x="1161" y="-178"/>
      <point x="1305" y="-147" type="curve"/>
      <point x="1286" y="-67" type="line"/>
      <point x="1185" y="-92"/>
      <point x="1050" y="-118"/>
      <point x="902" y="-118" type="curve" smooth="yes"/>
      <point x="592" y="-118"/>
      <point x="220" y="-14"/>
      <point x="294" y="681" type="curve"/>
      <point x="354" y="1256"/>
      <point x="676" y="1565"/>
      <point x="1053" y="1571" type="curve" smooth="yes"/>
      <point x="1427" y="1576"/>
      <point x="1653" y="1400"/>
      <point x="1561" y="805" type="curve" smooth="yes"/>
      <point x="1503" y="422"/>
      <point x="1322" y="345"/>
      <point x="1233" y="345" type="curve" smooth="yes"/>
      <point x="1136" y="345"/>
      <point x="1146" y="426"/>
      <point x="1171" y="543" type="curve" smooth="yes"/>
      <point x="1338" y="1229" type="line"/>
      <point x="1256" y="1229" type="line"/>
      <point x="1235" y="1187" type="line"/>
      <point x="1197" y="1219"/>
      <point x="1145" y="1239"/>
      <point x="1090" y="1239" type="curve" smooth="yes"/>
      <point x="860" y="1239"/>
      <point x="597" y="988"/>
      <point x="558" y="610" type="curve" smooth="yes"/>
      <point x="534" y="374"/>
      <point x="634" y="251"/>
      <point x="795" y="256" type="curve" smooth="yes"/>
      <point x="916" y="259"/>
      <point x="1007" y="353"/>
      <point x="1061" y="458" type="curve"/>
      <point x="1037" y="331"/>
      <point x="1123" y="268"/>
      <point x="1206" y="268" type="curve" smooth="yes"/>
      <point x="1328" y="268"/>
      <point x="1584" y="352"/>
      <point x="1652" y="810" type="curve" smooth="yes"/>
      <point x="1736" y="1374"/>
      <point x="1549" y="1661"/>
      <point x="1065" y="1657" type="curve" smooth="yes"/>
      <point x="648" y="1653"/>
      <point x="262" y="1348"/>
      <point x="192" y="680" type="curve" smooth="yes"/>
      <point x="119" y="-17"/>
      <point x="467" y="-203"/>
    </contour>
    <contour>
      <point x="816" y="340" type="curve"/>
      <point x="728" y="335"/>
      <point x="642" y="393"/>
      <point x="665" y="608" type="curve" smooth="yes"/>
      <point x="700" y="951"/>
      <point x="915" y="1154"/>
      <point x="1093" y="1154" type="curve" smooth="yes"/>
      <point x="1135" y="1154"/>
      <point x="1176" y="1142"/>
      <point x="1209" y="1117" type="curve" smooth="yes"/>
      <point x="1076" y="576" type="line"/>
      <point x="1010" y="431"/>
      <point x="915" y="343"/>
    </contour>
  </outline>
</glyph>
<glyph name="A" format="1">
  <advance width="959"/>
  <unicode hex="0041"/>
  <outline>
    <contour>
      <point x="66" y="0" type="line"/>
      <point x="176" y="0" type="line"/>
      <point x="313" y="458" type="line"/>
      <point x="743" y="458" type="line"/>
      <point x="781" y="0" type="line"/>
      <point x="893" y="0" type="line"/>
      <point x="716" y="1658" type="line"/>
      <point x="588" y="1658" type="line"/>
    </contour>
    <contour>
      <point x="338" y="541" type="line"/>
      <point x="639" y="1523" type="line"/>
      <point x="736" y="541" type="line"/>
    </contour>
  </outline>
</glyph>
<glyph name="D" format="1">
  <advance width="1059"/>
  <unicode hex="0044"/>
  <outline>
    <contour>
      <point x="274" y="88" type="line"/>
      <point x="430" y="1569" type="line"/>
      <point x="680" y="1569" type="line" smooth="yes"/>
      <point x="935" y="1569"/>
      <point x="976" y="1416"/>
      <point x="951" y="1173" type="curve" smooth="yes"/>
      <point x="881" y="506" type="line" smooth="yes"/>
      <point x="858" y="280"/>
      <point x="798" y="88"/>
      <point x="530" y="88" type="curve" smooth="yes"/>
    </contour>
    <contour>
      <point x="153" y="0" type="line"/>
      <point x="526" y="0" type="line" smooth="yes"/>
      <point x="847" y="0"/>
      <point x="963" y="208"/>
      <point x="993" y="494" type="curve" smooth="yes"/>
      <point x="1065" y="1182" type="line" smooth="yes"/>
      <point x="1093" y="1448"/>
      <point x="1020" y="1658"/>
      <point x="691" y="1658" type="curve" smooth="yes"/>
      <point x="327" y="1658" type="line"/>
    </contour>
  </outline>
</glyph>
<glyph name="F" format="1">
  <advance width="784"/>
  <unicode hex="0046"/>
  <outline>
    <contour>
      <point x="153" y="0" type="line"/>
      <point x="265" y="0" type="line"/>
      <point x="351" y="817" type="line"/>
      <point x="748" y="817" type="line"/>
      <point x="756" y="904" type="line"/>
      <point x="360" y="904" type="line"/>
      <point x="430" y="1570" type="line"/>
      <point x="889" y="1570" type="line"/>
      <point x="898" y="1658" type="line"/>
      <point x="327" y="1658" type="line"/>
    </contour>
  </outline>
</glyph>
<glyph name="G" format="1">
  <advance width="1045"/>
  <unicode hex="0047"/>
  <outline>
    <contour>
      <point x="514" y="-23" type="curve" smooth="yes"/>
      <point x="688" y="-23"/>
      <point x="784" y="57"/>
      <point x="838" y="186" type="curve"/>
      <point x="836" y="0" type="line"/>
      <point x="908" y="0" type="line"/>
      <point x="992" y="790" type="line"/>
      <point x="623" y="790" type="line"/>
      <point x="613" y="704" type="line"/>
      <point x="877" y="704" type="line"/>
      <point x="851" y="460" type="line" smooth="yes"/>
      <point x="826" y="218"/>
      <point x="751" y="70"/>
      <point x="532" y="70" type="curve" smooth="yes"/>
      <point x="295" y="70"/>
      <point x="254" y="225"/>
      <point x="280" y="467" type="curve" smooth="yes"/>
      <point x="355" y="1189" type="line" smooth="yes"/>
      <point x="380" y="1422"/>
      <point x="447" y="1586"/>
      <point x="690" y="1586" type="curve" smooth="yes"/>
      <point x="905" y="1586"/>
      <point x="952" y="1454"/>
      <point x="927" y="1211" type="curve" smooth="yes"/>
      <point x="920" y="1146" type="line"/>
      <point x="1025" y="1146" type="line"/>
      <point x="1031" y="1204" type="line" smooth="yes"/>
      <point x="1062" y="1495"/>
      <point x="987" y="1677"/>
      <point x="698" y="1677" type="curve" smooth="yes"/>
      <point x="379" y="1677"/>
      <point x="274" y="1477"/>
      <point x="243" y="1185" type="curve" smooth="yes"/>
      <point x="169" y="481" type="line" smooth="yes"/>
      <point x="138" y="189"/>
      <point x="198" y="-23"/>
    </contour>
  </outline>
</glyph>
<glyph name="J" format="1">
  <advance width="543"/>
  <unicode hex="004A"/>
  <outline>
    <contour>
      <point x="7" y="-92" type="line"/>
      <point x="65" y="-92" type="line" smooth="yes"/>
      <point x="344" y="-92"/>
      <point x="393" y="29"/>
      <point x="421" y="294" type="curve"/>
      <point x="564" y="1658" type="line"/>
      <point x="452" y="1658" type="line"/>
      <point x="310" y="308" type="line" smooth="yes"/>
      <point x="282" y="43"/>
      <point x="259" y="-4"/>
      <point x="16" y="-5" type="curve"/>
    </contour>
  </outline>
</glyph>
<glyph name="K" format="1">
  <advance width="942"/>
  <unicode hex="004B"/>
  <outline>
    <contour>
      <point x="152" y="0" type="line"/>
      <point x="264" y="0" type="line"/>
      <point x="327" y="594" type="line"/>
      <point x="519" y="889" type="line"/>
      <point x="829" y="0" type="line"/>
      <point x="941" y="0" type="line"/>
      <point x="606" y="957" type="line"/>
      <point x="1030" y="1658" type="line"/>
      <point x="920" y="1658" type="line"/>
      <point x="341" y="728" type="line"/>
      <point x="438" y="1658" type="line"/>
      <point x="326" y="1658" type="line"/>
    </contour>
  </outline>
</glyph>
<glyph name="L" format="1">
  <advance width="764"/>
  <unicode hex="004C"/>
  <outline>
    <contour>
      <point x="153" y="0" type="line"/>
      <point x="766" y="0" type="line"/>
      <point x="775" y="88" type="line"/>
      <point x="274" y="88" type="line"/>
      <point x="439" y="1658" type="line"/>
      <point x="327" y="1658" type="line"/>
    </contour>
  </outline>
</glyph>
<glyph name="M" format="1">
  <advance width="1294"/>
  <unicode hex="004D"/>
  <outline>
    <contour>
      <point x="133" y="0" type="line"/>
      <point x="230" y="0" type="line"/>
      <point x="417" y="1388" type="line"/>
      <point x="605" y="0" type="line"/>
      <point x="686" y="0" type="line"/>
      <point x="1170" y="1391" type="line"/>
      <point x="1065" y="0" type="line"/>
      <point x="1162" y="0" type="line"/>
      <point x="1288" y="1658" type="line"/>
      <point x="1173" y="1658" type="line"/>
      <point x="662" y="162" type="line"/>
      <point x="466" y="1658" type="line"/>
      <point x="356" y="1658" type="line"/>
    </contour>
  </outline>
</glyph>
<glyph name="N" format="1">
  <advance width="1055"/>
  <unicode hex="004E"/>
  <outline>
    <contour>
      <point x="153" y="0" type="line"/>
      <point x="252" y="0" type="line"/>
      <point x="399" y="1403" type="line"/>
      <point x="815" y="0" type="line"/>
      <point x="903" y="0" type="line"/>
      <point x="1077" y="1658" type="line"/>
      <point x="978" y="1658" type="line"/>
      <point x="831" y="258" type="line"/>
      <point x="416" y="1658" type="line"/>
      <point x="327" y="1658" type="line"/>
    </contour>
  </outline>
</glyph>
<glyph name="O" format="1">
  <advance width="1056"/>
  <unicode hex="004F"/>
  <outline>
    <contour>
      <point x="535" y="70" type="curve" smooth="yes"/>
      <point x="296" y="70"/>
      <point x="255" y="222"/>
      <point x="278" y="447" type="curve" smooth="yes"/>
      <point x="358" y="1212" type="line" smooth="yes"/>
      <point x="382" y="1438"/>
      <point x="456" y="1586"/>
      <point x="695" y="1586" type="curve" smooth="yes"/>
      <point x="934" y="1586"/>
      <point x="975" y="1437"/>
      <point x="952" y="1212" type="curve" smooth="yes"/>
      <point x="872" y="447" type="line" smooth="yes"/>
      <point x="848" y="222"/>
      <point x="773" y="70"/>
    </contour>
    <contour>
      <point x="525" y="-22" type="curve" smooth="yes"/>
      <point x="848" y="-22"/>
      <point x="957" y="186"/>
      <point x="987" y="469" type="curve" smooth="yes"/>
      <point x="1063" y="1196" type="line" smooth="yes"/>
      <point x="1093" y="1477"/>
      <point x="1018" y="1677"/>
      <point x="704" y="1677" type="curve" smooth="yes"/>
      <point x="389" y="1677"/>
      <point x="273" y="1478"/>
      <point x="244" y="1196" type="curve" smooth="yes"/>
      <point x="168" y="472" type="line" smooth="yes"/>
      <point x="138" y="188"/>
      <point x="201" y="-22"/>
    </contour>
  </outline>
</glyph>
<glyph name="Q" format="1">
  <advance width="1072"/>
  <unicode hex="0051"/>
  <outline>
    <contour>
      <point x="845" y="-319" type="curve"/>
      <point x="866" y="-220" type="line"/>
      <point x="816" y="-185"/>
      <point x="727" y="-71"/>
      <point x="681" y="-3" type="curve"/>
      <point x="895" y="52"/>
      <point x="977" y="236"/>
      <point x="1001" y="469" type="curve" smooth="yes"/>
      <point x="1078" y="1196" type="line" smooth="yes"/>
      <point x="1107" y="1477"/>
      <point x="1025" y="1677"/>
      <point x="711" y="1677" type="curve" smooth="yes"/>
      <point x="397" y="1677"/>
      <point x="273" y="1478"/>
      <point x="244" y="1196" type="curve" smooth="yes"/>
      <point x="168" y="472" type="line" smooth="yes"/>
      <point x="138" y="188"/>
      <point x="208" y="-22"/>
      <point x="533" y="-22" type="curve" smooth="yes"/>
      <point x="554" y="-22"/>
      <point x="574" y="-21"/>
      <point x="593" y="-20" type="curve"/>
      <point x="678" y="-158"/>
      <point x="770" y="-281"/>
    </contour>
    <contour>
      <point x="542" y="70" type="curve" smooth="yes"/>
      <point x="304" y="70"/>
      <point x="255" y="222"/>
      <point x="278" y="447" type="curve" smooth="yes"/>
      <point x="358" y="1212" type="line" smooth="yes"/>
      <point x="382" y="1438"/>
      <point x="464" y="1586"/>
      <point x="702" y="1586" type="curve" smooth="yes"/>
      <point x="941" y="1586"/>
      <point x="990" y="1437"/>
      <point x="967" y="1212" type="curve" smooth="yes"/>
      <point x="887" y="447" type="line" smooth="yes"/>
      <point x="863" y="222"/>
      <point x="780" y="70"/>
    </contour>
  </outline>
</glyph>
<glyph name="R" format="1">
  <advance width="1041"/>
  <unicode hex="0052"/>
  <outline>
    <contour>
      <point x="153" y="0" type="line"/>
      <point x="265" y="0" type="line"/>
      <point x="353" y="836" type="line"/>
      <point x="660" y="836" type="line"/>
      <point x="832" y="0" type="line"/>
      <point x="943" y="0" type="line"/>
      <point x="765" y="857" type="line"/>
      <point x="970" y="889"/>
      <point x="1032" y="1063"/>
      <point x="1052" y="1250" type="curve" smooth="yes"/>
      <point x="1076" y="1478"/>
      <point x="1023" y="1658"/>
      <point x="730" y="1658" type="curve" smooth="yes"/>
      <point x="327" y="1658" type="line"/>
    </contour>
    <contour>
      <point x="362" y="921" type="line"/>
      <point x="430" y="1570" type="line"/>
      <point x="714" y="1570" type="line" smooth="yes"/>
      <point x="922" y="1570"/>
      <point x="964" y="1460"/>
      <point x="942" y="1250" type="curve" smooth="yes"/>
      <point x="921" y="1046"/>
      <point x="859" y="921"/>
      <point x="647" y="921" type="curve" smooth="yes"/>
    </contour>
  </outline>
</glyph>
<glyph name="S" format="1">
  <advance width="926"/>
  <unicode hex="0053"/>
  <outline>
    <contour>
      <point x="484" y="-21" type="curve" smooth="yes"/>
      <point x="701" y="-21"/>
      <point x="867" y="95"/>
      <point x="893" y="344" type="curve" smooth="yes"/>
      <point x="912" y="521"/>
      <point x="814" y="668"/>
      <point x="695" y="799" type="curve" smooth="yes"/>
      <point x="426" y="1094" type="line" smooth="yes"/>
      <point x="345" y="1186"/>
      <point x="323" y="1261"/>
      <point x="331" y="1345" type="curve" smooth="yes"/>
      <point x="349" y="1514"/>
      <point x="469" y="1585"/>
      <point x="622" y="1587" type="curve" smooth="yes"/>
      <point x="820" y="1591"/>
      <point x="879" y="1472"/>
      <point x="874" y="1239" type="curve"/>
      <point x="971" y="1261" type="line"/>
      <point x="984" y="1575"/>
      <point x="855" y="1678"/>
      <point x="628" y="1677" type="curve" smooth="yes"/>
      <point x="411" y="1676"/>
      <point x="253" y="1557"/>
      <point x="229" y="1337" type="curve" smooth="yes"/>
      <point x="218" y="1229"/>
      <point x="249" y="1124"/>
      <point x="341" y="1022" type="curve" smooth="yes"/>
      <point x="612" y="720" type="line" smooth="yes"/>
      <point x="734" y="585"/>
      <point x="804" y="483"/>
      <point x="788" y="338" type="curve" smooth="yes"/>
      <point x="768" y="148"/>
      <point x="659" y="71"/>
      <point x="494" y="71" type="curve" smooth="yes"/>
      <point x="278" y="71"/>
      <point x="235" y="221"/>
      <point x="230" y="440" type="curve"/>
      <point x="128" y="409" type="line"/>
      <point x="122" y="147"/>
      <point x="221" y="-21"/>
    </contour>
  </outline>
</glyph>
<glyph name="U" format="1">
  <advance width="1092"/>
  <unicode hex="0055"/>
  <outline>
    <contour>
      <point x="544" y="-22" type="curve" smooth="yes"/>
      <point x="853" y="-22"/>
      <point x="974" y="155"/>
      <point x="999" y="389" type="curve" smooth="yes"/>
      <point x="1132" y="1658" type="line"/>
      <point x="1023" y="1658" type="line"/>
      <point x="890" y="387" type="line" smooth="yes"/>
      <point x="871" y="206"/>
      <point x="780" y="70"/>
      <point x="554" y="70" type="curve" smooth="yes"/>
      <point x="314" y="70"/>
      <point x="265" y="204"/>
      <point x="284" y="387" type="curve" smooth="yes"/>
      <point x="417" y="1658" type="line"/>
      <point x="308" y="1658" type="line"/>
      <point x="175" y="389" type="line" smooth="yes"/>
      <point x="151" y="155"/>
      <point x="219" y="-22"/>
    </contour>
  </outline>
</glyph>
<glyph name="V" format="1">
  <advance width="984"/>
  <unicode hex="0056"/>
  <outline>
    <contour>
      <point x="450" y="0" type="line"/>
      <point x="555" y="0" type="line"/>
      <point x="1108" y="1658" type="line"/>
      <point x="1000" y="1658" type="line"/>
      <point x="523" y="195" type="line"/>
      <point x="333" y="1658" type="line"/>
      <point x="224" y="1658" type="line"/>
    </contour>
  </outline>
</glyph>
<glyph name="W" format="1">
  <advance width="1446"/>
  <unicode hex="0057"/>
  <outline>
    <contour>
      <point x="358" y="0" type="line"/>
      <point x="455" y="0" type="line"/>
      <point x="884" y="1453" type="line"/>
      <point x="1014" y="0" type="line"/>
      <point x="1107" y="0" type="line"/>
      <point x="1551" y="1658" type="line"/>
      <point x="1454" y="1658" type="line"/>
      <point x="1081" y="219" type="line"/>
      <point x="955" y="1621" type="line"/>
      <point x="848" y="1621" type="line"/>
      <point x="434" y="220" type="line"/>
      <point x="342" y="1658" type="line"/>
      <point x="243" y="1657" type="line"/>
    </contour>
  </outline>
</glyph>
<glyph name="Y" format="1">
  <advance width="946"/>
  <unicode hex="0059"/>
  <unicode hex="04AE"/>
  <outline>
    <contour>
      <point x="424" y="0" type="line"/>
      <point x="535" y="0" type="line"/>
      <point x="590" y="530" type="line"/>
      <point x="1079" y="1658" type="line"/>
      <point x="965" y="1658" type="line"/>
      <point x="551" y="663" type="line"/>
      <point x="330" y="1658" type="line"/>
      <point x="215" y="1658" type="line"/>
      <point x="479" y="530" type="line"/>
    </contour>
  </outline>
</glyph>
<glyph name="bracketleft" format="1">
  <advance width="571"/>
  <unicode hex="005B"/>
  <outline>
    <contour>
      <point x="121" y="-297" type="line"/>
      <point x="422" y="-297" type="line"/>
      <point x="429" y="-229" type="line"/>
      <point x="238" y="-229" type="line"/>
      <point x="430" y="1592" type="line"/>
      <point x="621" y="1592" type="line"/>
      <point x="627" y="1658" type="line"/>
      <point x="326" y="1658" type="line"/>
    </contour>
  </outline>
</glyph>
<glyph name="backslash" format="1">
  <advance width="674"/>
  <unicode hex="005C"/>
  <outline>
    <contour>
      <point x="531" y="0" type="line"/>
      <point x="629" y="0" type="line"/>
      <point x="315" y="1658" type="line"/>
      <point x="218" y="1658" type="line"/>
    </contour>
  </outline>
</glyph>
<glyph name="bracketright" format="1">
  <advance width="553"/>
  <unicode hex="005D"/>
  <outline>
    <contour>
      <point x="68" y="-295" type="line"/>
      <point x="370" y="-295" type="line"/>
      <point x="575" y="1658" type="line"/>
      <point x="274" y="1658" type="line"/>
      <point x="267" y="1591" type="line"/>
      <point x="458" y="1591" type="line"/>
      <point x="267" y="-229" type="line"/>
      <point x="76" y="-229" type="line"/>
    </contour>
  </outline>
</glyph>
<glyph name="underscore" format="1">
  <advance width="666"/>
  <unicode hex="005F"/>
  <outline>
    <contour>
      <point x="-19" y="-184" type="line"/>
      <point x="647" y="-184" type="line"/>
      <point x="656" y="-95" type="line"/>
      <point x="-10" y="-95" type="line"/>
    </contour>
  </outline>
</glyph>
<glyph name="grave" format="1">
  <advance width="429"/>
  <unicode hex="0060"/>
  <outline>
    <contour>
      <point x="400" y="1261" type="line"/>
      <point x="458" y="1261" type="line"/>
      <point x="387" y="1658" type="line"/>
      <point x="277" y="1658" type="line"/>
    </contour>
  </outline>
</glyph>
<glyph name="a" format="1">
  <advance width="777"/>
  <unicode hex="0061"/>
  <outline>
    <contour>
      <point x="314" y="-19" type="curve"/>
      <point x="433" y="-19"/>
      <point x="534" y="59"/>
      <point x="581" y="157" type="curve"/>
      <point x="581" y="134"/>
      <point x="582" y="0"/>
      <point x="582" y="0" type="curve"/>
      <point x="675" y="0" type="line"/>
      <point x="675" y="22"/>
      <point x="688" y="174"/>
      <point x="691" y="206" type="curve" smooth="yes"/>
      <point x="754" y="802" type="line" smooth="yes"/>
      <point x="784" y="1084"/>
      <point x="727" y="1203"/>
      <point x="528" y="1203" type="curve" smooth="yes"/>
      <point x="341" y="1203"/>
      <point x="227" y="1120"/>
      <point x="197" y="898" type="curve" smooth="yes"/>
      <point x="197" y="894"/>
      <point x="194" y="870"/>
      <point x="193" y="866" type="curve"/>
      <point x="299" y="864" type="line"/>
      <point x="302" y="897" type="line"/>
      <point x="322" y="1085"/>
      <point x="421" y="1120"/>
      <point x="515" y="1120" type="curve" smooth="yes"/>
      <point x="636" y="1120"/>
      <point x="671" y="1049"/>
      <point x="644" y="791" type="curve" smooth="yes"/>
      <point x="635" y="706" type="line"/>
      <point x="211" y="517"/>
      <point x="125" y="442"/>
      <point x="103" y="240" type="curve" smooth="yes"/>
      <point x="87" y="87"/>
      <point x="171" y="-19"/>
    </contour>
    <contour>
      <point x="349" y="71" type="curve" smooth="yes"/>
      <point x="275" y="71"/>
      <point x="198" y="115"/>
      <point x="212" y="255" type="curve" smooth="yes"/>
      <point x="231" y="438"/>
      <point x="320" y="476"/>
      <point x="627" y="627" type="curve"/>
      <point x="585" y="237" type="line"/>
      <point x="533" y="150"/>
      <point x="451" y="71"/>
    </contour>
  </outline>
</glyph>
<glyph name="b" format="1">
  <advance width="814"/>
  <unicode hex="0062"/>
  <outline>
    <contour>
      <point x="440" y="-19" type="curve" smooth="yes"/>
      <point x="653" y="-19"/>
      <point x="736" y="156"/>
      <point x="771" y="487" type="curve" smooth="yes"/>
      <point x="795" y="714" type="line" smooth="yes"/>
      <point x="826" y="1011"/>
      <point x="798" y="1203"/>
      <point x="579" y="1203" type="curve" smooth="yes"/>
      <point x="470" y="1203"/>
      <point x="389" y="1141"/>
      <point x="340" y="1084" type="curve"/>
      <point x="400" y="1658" type="line"/>
      <point x="291" y="1658" type="line"/>
      <point x="117" y="0" type="line"/>
      <point x="226" y="0" type="line"/>
      <point x="236" y="98" type="line"/>
      <point x="273" y="45"/>
      <point x="337" y="-19"/>
    </contour>
    <contour>
      <point x="436" y="66" type="curve" smooth="yes"/>
      <point x="351" y="66"/>
      <point x="285" y="116"/>
      <point x="244" y="173" type="curve"/>
      <point x="332" y="1008" type="line"/>
      <point x="378" y="1054"/>
      <point x="459" y="1118"/>
      <point x="548" y="1118" type="curve" smooth="yes"/>
      <point x="701" y="1118"/>
      <point x="716" y="997"/>
      <point x="686" y="715" type="curve" smooth="yes"/>
      <point x="662" y="484" type="line" smooth="yes"/>
      <point x="631" y="195"/>
      <point x="584" y="66"/>
    </contour>
  </outline>
</glyph>
<glyph name="c" format="1">
  <advance width="768"/>
  <unicode hex="0063"/>
  <outline>
    <contour>
      <point x="391" y="-19" type="curve" smooth="yes"/>
      <point x="650" y="-19"/>
      <point x="700" y="162"/>
      <point x="724" y="399" type="curve" smooth="yes"/>
      <point x="729" y="443" type="line"/>
      <point x="626" y="443" type="line"/>
      <point x="622" y="397" type="line" smooth="yes"/>
      <point x="597" y="162"/>
      <point x="561" y="63"/>
      <point x="401" y="63" type="curve" smooth="yes"/>
      <point x="246" y="63"/>
      <point x="221" y="171"/>
      <point x="248" y="429" type="curve" smooth="yes"/>
      <point x="280" y="736" type="line" smooth="yes"/>
      <point x="310" y="1016"/>
      <point x="351" y="1121"/>
      <point x="511" y="1121" type="curve" smooth="yes"/>
      <point x="642" y="1121"/>
      <point x="691" y="1058"/>
      <point x="666" y="819" type="curve" smooth="yes"/>
      <point x="661" y="772" type="line"/>
      <point x="764" y="772" type="line"/>
      <point x="769" y="820" type="line" smooth="yes"/>
      <point x="791" y="1037"/>
      <point x="766" y="1203"/>
      <point x="519" y="1203" type="curve" smooth="yes"/>
      <point x="288" y="1203"/>
      <point x="207" y="1071"/>
      <point x="170" y="723" type="curve" smooth="yes"/>
      <point x="140" y="445" type="line" smooth="yes"/>
      <point x="113" y="187"/>
      <point x="125" y="-19"/>
    </contour>
  </outline>
</glyph>
<glyph name="f" format="1">
  <advance width="525"/>
  <unicode hex="0066"/>
  <outline>
    <contour>
      <point x="195" y="0" type="line"/>
      <point x="303" y="0" type="line"/>
      <point x="419" y="1107" type="line"/>
      <point x="617" y="1107" type="line"/>
      <point x="625" y="1184" type="line"/>
      <point x="427" y="1184" type="line"/>
      <point x="444" y="1346" type="line" smooth="yes"/>
      <point x="458" y="1475"/>
      <point x="477" y="1527"/>
      <point x="569" y="1527" type="curve" smooth="yes"/>
      <point x="595" y="1527"/>
      <point x="629" y="1520"/>
      <point x="655" y="1515" type="curve"/>
      <point x="664" y="1598" type="line"/>
      <point x="632" y="1607"/>
      <point x="591" y="1612"/>
      <point x="557" y="1612" type="curve" smooth="yes"/>
      <point x="377" y="1612"/>
      <point x="351" y="1494"/>
      <point x="335" y="1344" type="curve" smooth="yes"/>
      <point x="319" y="1184" type="line"/>
      <point x="159" y="1184" type="line"/>
      <point x="151" y="1107" type="line"/>
      <point x="311" y="1107" type="line"/>
    </contour>
  </outline>
</glyph>
<glyph name="g" format="1">
  <advance width="878"/>
  <unicode hex="0067"/>
  <outline>
    <contour>
      <point x="372" y="-401" type="curve" smooth="yes"/>
      <point x="573" y="-401"/>
      <point x="759" y="-325"/>
      <point x="779" y="-139" type="curve" smooth="yes"/>
      <point x="795" y="14"/>
      <point x="686" y="83"/>
      <point x="498" y="124" type="curve" smooth="yes"/>
      <point x="462" y="134"/>
      <point x="364" y="150"/>
      <point x="308" y="165" type="curve" smooth="yes"/>
      <point x="251" y="177"/>
      <point x="212" y="191"/>
      <point x="214" y="206" type="curve" smooth="yes"/>
      <point x="219" y="254"/>
      <point x="300" y="344"/>
      <point x="339" y="398" type="curve"/>
      <point x="367" y="386"/>
      <point x="417" y="376"/>
      <point x="462" y="376" type="curve" smooth="yes"/>
      <point x="696" y="376"/>
      <point x="807" y="557"/>
      <point x="832" y="792" type="curve" smooth="yes"/>
      <point x="838" y="842"/>
      <point x="831" y="941"/>
      <point x="816" y="993" type="curve"/>
      <point x="861" y="1044"/>
      <point x="945" y="1095"/>
      <point x="1019" y="1113" type="curve"/>
      <point x="996" y="1195" type="line"/>
      <point x="966" y="1183" type="line"/>
      <point x="894" y="1156"/>
      <point x="825" y="1096"/>
      <point x="791" y="1045" type="curve"/>
      <point x="757" y="1124"/>
      <point x="693" y="1203"/>
      <point x="547" y="1203" type="curve" smooth="yes"/>
      <point x="314" y="1203"/>
      <point x="195" y="990"/>
      <point x="174" y="795" type="curve" smooth="yes"/>
      <point x="159" y="647"/>
      <point x="181" y="511"/>
      <point x="291" y="428" type="curve"/>
      <point x="227" y="363"/>
      <point x="126" y="253"/>
      <point x="118" y="173" type="curve" smooth="yes"/>
      <point x="113" y="131"/>
      <point x="193" y="98"/>
      <point x="251" y="83" type="curve"/>
      <point x="143" y="30"/>
      <point x="22" y="-72"/>
      <point x="9" y="-192" type="curve" smooth="yes"/>
      <point x="-5" y="-334"/>
      <point x="123" y="-401"/>
    </contour>
    <contour>
      <point x="381" y="-313" type="curve" smooth="yes"/>
      <point x="195" y="-313"/>
      <point x="96" y="-270"/>
      <point x="107" y="-166" type="curve" smooth="yes"/>
      <point x="119" y="-54"/>
      <point x="246" y="25"/>
      <point x="320" y="65" type="curve"/>
      <point x="447" y="43" type="line" smooth="yes"/>
      <point x="660" y="-3"/>
      <point x="697" y="-55"/>
      <point x="688" y="-142" type="curve" smooth="yes"/>
      <point x="676" y="-263"/>
      <point x="541" y="-313"/>
    </contour>
    <contour>
      <point x="471" y="456" type="curve" smooth="yes"/>
      <point x="268" y="456"/>
      <point x="262" y="668"/>
      <point x="275" y="795" type="curve" smooth="yes"/>
      <point x="286" y="905"/>
      <point x="350" y="1123"/>
      <point x="540" y="1123" type="curve" smooth="yes"/>
      <point x="729" y="1123"/>
      <point x="747" y="919"/>
      <point x="733" y="795" type="curve" smooth="yes"/>
      <point x="720" y="664"/>
      <point x="673" y="456"/>
    </contour>
  </outline>
</glyph>
<glyph name="h" format="1">
  <advance width="802"/>
  <unicode hex="0068"/>
  <outline>
    <contour>
      <point x="117" y="0" type="line"/>
      <point x="226" y="0" type="line"/>
      <point x="330" y="988" type="line"/>
      <point x="408" y="1064"/>
      <point x="498" y="1118"/>
      <point x="578" y="1118" type="curve" smooth="yes"/>
      <point x="653" y="1118"/>
      <point x="697" y="1077"/>
      <point x="682" y="932" type="curve" smooth="yes"/>
      <point x="584" y="0" type="line"/>
      <point x="694" y="0" type="line"/>
      <point x="793" y="944" type="line" smooth="yes"/>
      <point x="813" y="1133"/>
      <point x="739" y="1203"/>
      <point x="634" y="1203" type="curve" smooth="yes"/>
      <point x="526" y="1203"/>
      <point x="422" y="1145"/>
      <point x="337" y="1058" type="curve"/>
      <point x="400" y="1658" type="line"/>
      <point x="291" y="1658" type="line"/>
    </contour>
  </outline>
</glyph>
<glyph name="i" format="1">
  <advance width="388"/>
  <unicode hex="0069"/>
  <outline>
    <contour>
      <point x="134" y="0" type="line"/>
      <point x="243" y="0" type="line"/>
      <point x="367" y="1184" type="line"/>
      <point x="258" y="1184" type="line"/>
    </contour>
    <contour>
      <point x="275" y="1339" type="line"/>
      <point x="384" y="1339" type="line"/>
      <point x="404" y="1528" type="line"/>
      <point x="295" y="1528" type="line"/>
    </contour>
  </outline>
</glyph>
<glyph name="k" format="1">
  <advance width="785"/>
  <unicode hex="006B"/>
  <outline>
    <contour>
      <point x="117" y="1" type="line"/>
      <point x="226" y="1" type="line"/>
      <point x="272" y="444" type="line"/>
      <point x="461" y="666" type="line"/>
      <point x="656" y="0" type="line"/>
      <point x="765" y="0" type="line"/>
      <point x="548" y="731" type="line"/>
      <point x="907" y="1184" type="line"/>
      <point x="789" y="1184" type="line"/>
      <point x="285" y="566" type="line"/>
      <point x="400" y="1659" type="line"/>
      <point x="291" y="1659" type="line"/>
    </contour>
  </outline>
</glyph>
<glyph name="l" format="1">
  <advance width="380"/>
  <unicode hex="006C"/>
  <outline>
    <contour>
      <point x="137" y="0" type="line"/>
      <point x="246" y="0" type="line"/>
      <point x="420" y="1658" type="line"/>
      <point x="311" y="1658" type="line"/>
    </contour>
  </outline>
</glyph>
<glyph name="m" format="1">
  <advance width="1275"/>
  <unicode hex="006D"/>
  <outline>
    <contour>
      <point x="116" y="0" type="line"/>
      <point x="220" y="0" type="line"/>
      <point x="324" y="990" type="line"/>
      <point x="405" y="1072"/>
      <point x="499" y="1127"/>
      <point x="581" y="1127" type="curve" smooth="yes"/>
      <point x="652" y="1127"/>
      <point x="704" y="1092"/>
      <point x="688" y="939" type="curve" smooth="yes"/>
      <point x="589" y="0" type="line"/>
      <point x="694" y="0" type="line"/>
      <point x="792" y="936" type="line" smooth="yes"/>
      <point x="794" y="955"/>
      <point x="795" y="972"/>
      <point x="795" y="988" type="curve"/>
      <point x="876" y="1071"/>
      <point x="971" y="1127"/>
      <point x="1054" y="1127" type="curve" smooth="yes"/>
      <point x="1125" y="1127"/>
      <point x="1176" y="1092"/>
      <point x="1161" y="939" type="curve" smooth="yes"/>
      <point x="1062" y="0" type="line"/>
      <point x="1167" y="0" type="line"/>
      <point x="1265" y="936" type="line" smooth="yes"/>
      <point x="1288" y="1148"/>
      <point x="1196" y="1204"/>
      <point x="1098" y="1204" type="curve" smooth="yes"/>
      <point x="989" y="1204"/>
      <point x="880" y="1146"/>
      <point x="792" y="1046" type="curve"/>
      <point x="777" y="1171"/>
      <point x="702" y="1204"/>
      <point x="625" y="1204" type="curve" smooth="yes"/>
      <point x="521" y="1204"/>
      <point x="416" y="1151"/>
      <point x="331" y="1058" type="curve"/>
      <point x="344" y="1184" type="line"/>
      <point x="240" y="1184" type="line"/>
    </contour>
  </outline>
</glyph>
<glyph name="n" format="1">
  <advance width="801"/>
  <unicode hex="006E"/>
  <outline>
    <contour>
      <point x="116" y="0" type="line"/>
      <point x="225" y="0" type="line"/>
      <point x="328" y="987" type="line"/>
      <point x="406" y="1064"/>
      <point x="496" y="1118"/>
      <point x="576" y="1118" type="curve" smooth="yes"/>
      <point x="652" y="1118"/>
      <point x="696" y="1077"/>
      <point x="681" y="932" type="curve" smooth="yes"/>
      <point x="583" y="0" type="line"/>
      <point x="692" y="0" type="line"/>
      <point x="792" y="944" type="line" smooth="yes"/>
      <point x="812" y="1133"/>
      <point x="738" y="1203"/>
      <point x="633" y="1203" type="curve" smooth="yes"/>
      <point x="525" y="1203"/>
      <point x="420" y="1145"/>
      <point x="336" y="1057" type="curve"/>
      <point x="349" y="1184" type="line"/>
      <point x="240" y="1184" type="line"/>
    </contour>
  </outline>
</glyph>
<glyph name="o" format="1">
  <advance width="784"/>
  <unicode hex="006F"/>
  <outline>
    <contour>
      <point x="399" y="63" type="curve" smooth="yes"/>
      <point x="227" y="63"/>
      <point x="224" y="200"/>
      <point x="248" y="428" type="curve" smooth="yes"/>
      <point x="282" y="756" type="line" smooth="yes"/>
      <point x="306" y="983"/>
      <point x="338" y="1121"/>
      <point x="510" y="1121" type="curve" smooth="yes"/>
      <point x="682" y="1121"/>
      <point x="684" y="983"/>
      <point x="661" y="756" type="curve" smooth="yes"/>
      <point x="626" y="428" type="line" smooth="yes"/>
      <point x="602" y="200"/>
      <point x="571" y="63"/>
    </contour>
    <contour>
      <point x="390" y="-19" type="curve" smooth="yes"/>
      <point x="626" y="-19"/>
      <point x="704" y="135"/>
      <point x="736" y="432" type="curve" smooth="yes"/>
      <point x="769" y="752" type="line" smooth="yes"/>
      <point x="800" y="1048"/>
      <point x="755" y="1203"/>
      <point x="519" y="1203" type="curve" smooth="yes"/>
      <point x="283" y="1203"/>
      <point x="204" y="1046"/>
      <point x="173" y="752" type="curve" smooth="yes"/>
      <point x="139" y="432" type="line" smooth="yes"/>
      <point x="108" y="135"/>
      <point x="154" y="-19"/>
    </contour>
  </outline>
</glyph>
<glyph name="q" format="1">
  <advance width="812"/>
  <unicode hex="0071"/>
  <outline>
    <contour>
      <point x="547" y="-390" type="line"/>
      <point x="656" y="-390" type="line"/>
      <point x="821" y="1184" type="line"/>
      <point x="712" y="1184" type="line"/>
      <point x="703" y="1093" type="line"/>
      <point x="664" y="1145"/>
      <point x="599" y="1202"/>
      <point x="498" y="1203" type="curve" smooth="yes"/>
      <point x="282" y="1203"/>
      <point x="207" y="1030"/>
      <point x="172" y="697" type="curve" smooth="yes"/>
      <point x="150" y="486" type="line" smooth="yes"/>
      <point x="112" y="126"/>
      <point x="171" y="-19"/>
      <point x="375" y="-19" type="curve" smooth="yes"/>
      <point x="474" y="-19"/>
      <point x="549" y="39"/>
      <point x="597" y="91" type="curve"/>
    </contour>
    <contour>
      <point x="400" y="66" type="curve" smooth="yes"/>
      <point x="251" y="66"/>
      <point x="228" y="190"/>
      <point x="258" y="477" type="curve" smooth="yes"/>
      <point x="283" y="723" type="line" smooth="yes"/>
      <point x="313" y="1000"/>
      <point x="356" y="1118"/>
      <point x="506" y="1118" type="curve" smooth="yes"/>
      <point x="592" y="1118"/>
      <point x="656" y="1059"/>
      <point x="694" y="1014" type="curve"/>
      <point x="605" y="167" type="line"/>
      <point x="551" y="112"/>
      <point x="477" y="66"/>
    </contour>
  </outline>
</glyph>
<glyph name="s" format="1">
  <advance width="730"/>
  <unicode hex="0073"/>
  <outline>
    <contour>
      <point x="382" y="-19" type="curve" smooth="yes"/>
      <point x="559" y="-19"/>
      <point x="682" y="81"/>
      <point x="700" y="253" type="curve" smooth="yes"/>
      <point x="715" y="424"/>
      <point x="619" y="520"/>
      <point x="523" y="612" type="curve"/>
      <point x="395" y="737" type="line" smooth="yes"/>
      <point x="307" y="820"/>
      <point x="288" y="874"/>
      <point x="297" y="962" type="curve" smooth="yes"/>
      <point x="308" y="1066"/>
      <point x="384" y="1121"/>
      <point x="488" y="1121" type="curve" smooth="yes"/>
      <point x="596" y="1121"/>
      <point x="656" y="1052"/>
      <point x="643" y="868" type="curve"/>
      <point x="727" y="892" type="line"/>
      <point x="740" y="1082"/>
      <point x="667" y="1203"/>
      <point x="492" y="1203" type="curve" smooth="yes"/>
      <point x="330" y="1203"/>
      <point x="215" y="1112"/>
      <point x="196" y="950" type="curve"/>
      <point x="182" y="831"/>
      <point x="226" y="749"/>
      <point x="335" y="649" type="curve" smooth="yes"/>
      <point x="460" y="533" type="line" smooth="yes"/>
      <point x="571" y="431"/>
      <point x="611" y="340"/>
      <point x="603" y="255" type="curve" smooth="yes"/>
      <point x="592" y="133"/>
      <point x="514" y="63"/>
      <point x="396" y="63" type="curve" smooth="yes"/>
      <point x="262" y="63"/>
      <point x="192" y="148"/>
      <point x="197" y="346" type="curve"/>
      <point x="103" y="319" type="line"/>
      <point x="97" y="111"/>
      <point x="196" y="-19"/>
    </contour>
  </outline>
</glyph>
<glyph name="t" format="1">
  <advance width="538"/>
  <unicode hex="0074"/>
  <outline>
    <contour>
      <point x="374" y="-13" type="curve" smooth="yes"/>
      <point x="409" y="-13"/>
      <point x="453" y="-8"/>
      <point x="487" y="1" type="curve"/>
      <point x="496" y="83" type="line"/>
      <point x="467" y="78"/>
      <point x="433" y="73"/>
      <point x="408" y="73" type="curve" smooth="yes"/>
      <point x="319" y="73"/>
      <point x="309" y="118"/>
      <point x="322" y="247" type="curve" smooth="yes"/>
      <point x="413" y="1112" type="line"/>
      <point x="614" y="1112" type="line"/>
      <point x="621" y="1184" type="line"/>
      <point x="420" y="1184" type="line"/>
      <point x="461" y="1562" type="line"/>
      <point x="352" y="1562" type="line"/>
      <point x="312" y="1184" type="line"/>
      <point x="157" y="1184" type="line"/>
      <point x="150" y="1112" type="line"/>
      <point x="305" y="1112" type="line"/>
      <point x="212" y="234" type="line" smooth="yes"/>
      <point x="198" y="95"/>
      <point x="210" y="-13"/>
    </contour>
  </outline>
</glyph>
<glyph name="u" format="1">
  <advance width="808"/>
  <unicode hex="0075"/>
  <outline>
    <contour>
      <point x="290" y="-19" type="curve" smooth="yes"/>
      <point x="402" y="-19"/>
      <point x="512" y="44"/>
      <point x="598" y="139" type="curve"/>
      <point x="583" y="0" type="line"/>
      <point x="691" y="0" type="line"/>
      <point x="815" y="1184" type="line"/>
      <point x="707" y="1184" type="line"/>
      <point x="604" y="209" type="line"/>
      <point x="525" y="125"/>
      <point x="430" y="66"/>
      <point x="346" y="66" type="curve" smooth="yes"/>
      <point x="271" y="66"/>
      <point x="227" y="107"/>
      <point x="242" y="252" type="curve" smooth="yes"/>
      <point x="339" y="1184" type="line"/>
      <point x="230" y="1184" type="line"/>
      <point x="131" y="240" type="line" smooth="yes"/>
      <point x="112" y="51"/>
      <point x="185" y="-19"/>
    </contour>
  </outline>
</glyph>
<glyph name="v" format="1">
  <advance width="731"/>
  <unicode hex="0076"/>
  <outline>
    <contour>
      <point x="311" y="0" type="line"/>
      <point x="433" y="0" type="line"/>
      <point x="816" y="1184" type="line"/>
      <point x="711" y="1184" type="line"/>
      <point x="386" y="138" type="line"/>
      <point x="273" y="1184" type="line"/>
      <point x="163" y="1184" type="line"/>
    </contour>
  </outline>
</glyph>
<glyph name="w" format="1">
  <advance width="1160"/>
  <unicode hex="0077"/>
  <outline>
    <contour>
      <point x="263" y="0" type="line"/>
      <point x="386" y="0" type="line"/>
      <point x="694" y="1039" type="line"/>
      <point x="791" y="0" type="line"/>
      <point x="904" y="0" type="line"/>
      <point x="1217" y="1184" type="line"/>
      <point x="1121" y="1184" type="line"/>
      <point x="857" y="129" type="line"/>
      <point x="760" y="1184" type="line"/>
      <point x="654" y="1184" type="line"/>
      <point x="341" y="124" type="line"/>
      <point x="287" y="1184" type="line"/>
      <point x="191" y="1184" type="line"/>
    </contour>
  </outline>
</glyph>
<glyph name="x" format="1">
  <advance width="767"/>
  <unicode hex="0078"/>
  <outline>
    <contour>
      <point x="41" y="0" type="line"/>
      <point x="148" y="0" type="line"/>
      <point x="437" y="504" type="line"/>
      <point x="625" y="0" type="line"/>
      <point x="728" y="0" type="line"/>
      <point x="506" y="606" type="line"/>
      <point x="847" y="1184" type="line"/>
      <point x="735" y="1184" type="line"/>
      <point x="467" y="714" type="line"/>
      <point x="295" y="1184" type="line"/>
      <point x="183" y="1184" type="line"/>
      <point x="395" y="617" type="line"/>
    </contour>
  </outline>
</glyph>
<glyph name="y" format="1">
  <advance width="767"/>
  <unicode hex="0079"/>
  <outline>
    <contour>
      <point x="45" y="-295" type="line"/>
      <point x="90" y="-295" type="line"/>
      <point x="282" y="-295"/>
      <point x="377" y="-236"/>
      <point x="424" y="-97" type="curve" smooth="yes"/>
      <point x="847" y="1184" type="line"/>
      <point x="738" y="1184" type="line"/>
      <point x="401" y="103" type="line"/>
      <point x="280" y="1184" type="line"/>
      <point x="173" y="1184" type="line"/>
      <point x="184" y="1097"/>
      <point x="298" y="206"/>
      <point x="309" y="120" type="curve" smooth="yes"/>
      <point x="316" y="64"/>
      <point x="327" y="-5"/>
      <point x="326" y="-44" type="curve" smooth="yes"/>
      <point x="322" y="-149"/>
      <point x="288" y="-207"/>
      <point x="54" y="-207" type="curve"/>
    </contour>
  </outline>
</glyph>
<glyph name="z" format="1">
  <advance width="666"/>
  <unicode hex="007A"/>
  <outline>
    <contour>
      <point x="66" y="0" type="line"/>
      <point x="597" y="0" type="line"/>
      <point x="606" y="83" type="line"/>
      <point x="189" y="83" type="line"/>
      <point x="722" y="1113" type="line"/>
      <point x="729" y="1184" type="line"/>
      <point x="235" y="1184" type="line"/>
      <point x="226" y="1100" type="line"/>
      <point x="609" y="1100" type="line"/>
      <point x="75" y="79" type="line"/>
    </contour>
  </outline>
</glyph>
<glyph name="braceleft" format="1">
  <advance width="475"/>
  <unicode hex="007B"/>
  <outline>
    <contour>
      <point x="407" y="-305" type="curve"/>
      <point x="416" y="-222" type="line"/>
      <point x="279" y="-222"/>
      <point x="281" y="-204"/>
      <point x="314" y="108" type="curve" smooth="yes"/>
      <point x="343" y="390" type="line" smooth="yes"/>
      <point x="365" y="595"/>
      <point x="344" y="665"/>
      <point x="264" y="691" type="curve"/>
      <point x="350" y="717"/>
      <point x="385" y="787"/>
      <point x="406" y="992" type="curve" smooth="yes"/>
      <point x="435" y="1261" type="line" smooth="yes"/>
      <point x="468" y="1573"/>
      <point x="470" y="1592"/>
      <point x="607" y="1592" type="curve"/>
      <point x="615" y="1674" type="line"/>
      <point x="378" y="1674"/>
      <point x="366" y="1626"/>
      <point x="328" y="1261" type="curve" smooth="yes"/>
      <point x="303" y="1024" type="line" smooth="yes"/>
      <point x="279" y="800"/>
      <point x="254" y="738"/>
      <point x="154" y="738" type="curve"/>
      <point x="144" y="644" type="line"/>
      <point x="244" y="644"/>
      <point x="256" y="582"/>
      <point x="233" y="358" type="curve" smooth="yes"/>
      <point x="206" y="108" type="line" smooth="yes"/>
      <point x="168" y="-257"/>
      <point x="170" y="-305"/>
    </contour>
  </outline>
</glyph>
<glyph name="braceright" format="1">
  <advance width="487"/>
  <unicode hex="007D"/>
  <outline>
    <contour>
      <point x="16" y="-305" type="line"/>
      <point x="253" y="-305"/>
      <point x="265" y="-257"/>
      <point x="303" y="108" type="curve" smooth="yes"/>
      <point x="330" y="358" type="line" smooth="yes"/>
      <point x="353" y="582"/>
      <point x="379" y="644"/>
      <point x="479" y="644" type="curve"/>
      <point x="489" y="738" type="line"/>
      <point x="389" y="738"/>
      <point x="376" y="800"/>
      <point x="400" y="1024" type="curve" smooth="yes"/>
      <point x="425" y="1261" type="line" smooth="yes"/>
      <point x="463" y="1626"/>
      <point x="461" y="1674"/>
      <point x="224" y="1674" type="curve"/>
      <point x="216" y="1592" type="line"/>
      <point x="353" y="1592"/>
      <point x="350" y="1573"/>
      <point x="318" y="1261" type="curve" smooth="yes"/>
      <point x="289" y="992" type="line" smooth="yes"/>
      <point x="268" y="787"/>
      <point x="289" y="717"/>
      <point x="369" y="691" type="curve"/>
      <point x="283" y="665"/>
      <point x="248" y="595"/>
      <point x="226" y="390" type="curve" smooth="yes"/>
      <point x="196" y="108" type="line" smooth="yes"/>
      <point x="164" y="-204"/>
      <point x="162" y="-222"/>
      <point x="25" y="-222" type="curve"/>
    </contour>
  </outline>
</glyph>
<glyph name="asciitilde" format="1">
  <advance width="783"/>
  <unicode hex="007E"/>
  <outline>
    <contour>
      <point x="609" y="781" type="curve" smooth="yes"/>
      <point x="661" y="781"/>
      <point x="726" y="827"/>
      <point x="794" y="888" type="curve"/>
      <point x="759" y="938" type="line"/>
      <point x="691" y="889"/>
      <point x="660" y="865"/>
      <point x="621" y="865" type="curve" smooth="yes"/>
      <point x="559" y="865"/>
      <point x="443" y="975"/>
      <point x="367" y="975" type="curve" smooth="yes"/>
      <point x="312" y="975"/>
      <point x="243" y="929"/>
      <point x="173" y="858" type="curve"/>
      <point x="208" y="808" type="line"/>
      <point x="277" y="869"/>
      <point x="324" y="893"/>
      <point x="352" y="893" type="curve" smooth="yes"/>
      <point x="416" y="893"/>
      <point x="530" y="781"/>
    </contour>
  </outline>
</glyph>
<glyph name="cent" format="1">
  <advance width="776"/>
  <unicode hex="00A2"/>
  <outline>
    <contour>
      <point x="325" y="-229" type="line"/>
      <point x="382" y="-229" type="line"/>
      <point x="404" y="-19" type="line"/>
      <point x="651" y="-13"/>
      <point x="700" y="166"/>
      <point x="724" y="399" type="curve" smooth="yes"/>
      <point x="729" y="443" type="line"/>
      <point x="626" y="443" type="line"/>
      <point x="622" y="397" type="line" smooth="yes"/>
      <point x="597" y="162"/>
      <point x="561" y="63"/>
      <point x="401" y="63" type="curve" smooth="yes"/>
      <point x="246" y="63"/>
      <point x="221" y="171"/>
      <point x="248" y="429" type="curve" smooth="yes"/>
      <point x="280" y="736" type="line" smooth="yes"/>
      <point x="310" y="1016"/>
      <point x="351" y="1121"/>
      <point x="511" y="1121" type="curve" smooth="yes"/>
      <point x="642" y="1121"/>
      <point x="691" y="1058"/>
      <point x="666" y="819" type="curve" smooth="yes"/>
      <point x="661" y="772" type="line"/>
      <point x="764" y="772" type="line"/>
      <point x="769" y="820" type="line" smooth="yes"/>
      <point x="790" y="1029"/>
      <point x="767" y="1190"/>
      <point x="543" y="1202" type="curve"/>
      <point x="565" y="1409" type="line"/>
      <point x="508" y="1409" type="line"/>
      <point x="487" y="1202" type="line"/>
      <point x="280" y="1189"/>
      <point x="205" y="1056"/>
      <point x="170" y="723" type="curve" smooth="yes"/>
      <point x="140" y="445" type="line" smooth="yes"/>
      <point x="115" y="202"/>
      <point x="124" y="4"/>
      <point x="347" y="-17" type="curve"/>
    </contour>
  </outline>
</glyph>
<glyph name="sterling" format="1">
  <advance width="740"/>
  <unicode hex="00A3"/>
  <outline>
    <contour>
      <point x="32" y="0" type="line"/>
      <point x="703" y="0" type="line"/>
      <point x="712" y="79" type="line"/>
      <point x="276" y="79" type="line"/>
      <point x="352" y="804" type="line"/>
      <point x="641" y="804" type="line"/>
      <point x="649" y="884" type="line"/>
      <point x="360" y="884" type="line"/>
      <point x="392" y="1189" type="line" smooth="yes"/>
      <point x="418" y="1434"/>
      <point x="445" y="1594"/>
      <point x="626" y="1594" type="curve" smooth="yes"/>
      <point x="770" y="1594"/>
      <point x="784" y="1504"/>
      <point x="763" y="1307" type="curve"/>
      <point x="846" y="1307" type="line"/>
      <point x="847" y="1314"/>
      <point x="849" y="1340"/>
      <point x="850" y="1348" type="curve" smooth="yes"/>
      <point x="868" y="1535"/>
      <point x="845" y="1677"/>
      <point x="636" y="1677" type="curve" smooth="yes"/>
      <point x="366" y="1677"/>
      <point x="314" y="1467"/>
      <point x="280" y="1145" type="curve" smooth="yes"/>
      <point x="252" y="884" type="line"/>
      <point x="125" y="884" type="line"/>
      <point x="116" y="804" type="line"/>
      <point x="244" y="804" type="line"/>
      <point x="168" y="79" type="line"/>
      <point x="38" y="56" type="line"/>
    </contour>
  </outline>
</glyph>
<glyph name="currency" format="1">
  <advance width="1048"/>
  <unicode hex="00A4"/>
  <outline>
    <contour>
      <point x="112" y="381" type="line"/>
      <point x="291" y="543" type="line"/>
      <point x="360" y="471"/>
      <point x="458" y="427"/>
      <point x="572" y="428" type="curve"/>
      <point x="686" y="427"/>
      <point x="794" y="471"/>
      <point x="877" y="543" type="curve"/>
      <point x="1022" y="381" type="line"/>
      <point x="1055" y="411" type="line"/>
      <point x="909" y="573" type="line"/>
      <point x="986" y="650"/>
      <point x="1039" y="754"/>
      <point x="1051" y="866" type="curve" smooth="yes"/>
      <point x="1063" y="979"/>
      <point x="1032" y="1082"/>
      <point x="972" y="1159" type="curve"/>
      <point x="1151" y="1321" type="line"/>
      <point x="1124" y="1351" type="line"/>
      <point x="945" y="1189" type="line"/>
      <point x="877" y="1261"/>
      <point x="778" y="1305"/>
      <point x="664" y="1304" type="curve"/>
      <point x="550" y="1305"/>
      <point x="443" y="1261"/>
      <point x="359" y="1189" type="curve"/>
      <point x="214" y="1351" type="line"/>
      <point x="181" y="1321" type="line"/>
      <point x="327" y="1159" type="line"/>
      <point x="250" y="1082"/>
      <point x="197" y="979"/>
      <point x="185" y="866" type="curve" smooth="yes"/>
      <point x="173" y="754"/>
      <point x="204" y="650"/>
      <point x="265" y="573" type="curve"/>
      <point x="85" y="411" type="line"/>
    </contour>
    <contour>
      <point x="578" y="486" type="curve" smooth="yes"/>
      <point x="370" y="486"/>
      <point x="228" y="658"/>
      <point x="250" y="866" type="curve" smooth="yes"/>
      <point x="272" y="1075"/>
      <point x="449" y="1246"/>
      <point x="658" y="1246" type="curve" smooth="yes"/>
      <point x="867" y="1246"/>
      <point x="1008" y="1075"/>
      <point x="986" y="866" type="curve" smooth="yes"/>
      <point x="964" y="658"/>
      <point x="787" y="486"/>
    </contour>
  </outline>
</glyph>
<glyph name="yen" format="1">
  <advance width="860"/>
  <unicode hex="00A5"/>
  <outline>
    <contour>
      <point x="387" y="0" type="line"/>
      <point x="498" y="0" type="line"/>
      <point x="521" y="219" type="line"/>
      <point x="734" y="219" type="line"/>
      <point x="742" y="293" type="line"/>
      <point x="529" y="293" type="line"/>
      <point x="551" y="508" type="line"/>
      <point x="764" y="508" type="line"/>
      <point x="772" y="581" type="line"/>
      <point x="576" y="581" type="line"/>
      <point x="1042" y="1658" type="line"/>
      <point x="928" y="1658" type="line"/>
      <point x="514" y="663" type="line"/>
      <point x="293" y="1658" type="line"/>
      <point x="178" y="1658" type="line"/>
      <point x="430" y="581" type="line"/>
      <point x="231" y="581" type="line"/>
      <point x="223" y="508" type="line"/>
      <point x="440" y="508" type="line"/>
      <point x="417" y="293" type="line"/>
      <point x="200" y="293" type="line"/>
      <point x="192" y="219" type="line"/>
      <point x="409" y="219" type="line"/>
    </contour>
  </outline>
</glyph>
<glyph name="section" format="1">
  <advance width="787"/>
  <unicode hex="00A7"/>
  <outline>
    <contour>
      <point x="399" y="-19" type="curve" smooth="yes"/>
      <point x="570" y="-19"/>
      <point x="701" y="85"/>
      <point x="716" y="256" type="curve" smooth="yes"/>
      <point x="725" y="359"/>
      <point x="667" y="430"/>
      <point x="617" y="496" type="curve"/>
      <point x="702" y="537"/>
      <point x="785" y="594"/>
      <point x="806" y="715" type="curve" smooth="yes"/>
      <point x="831" y="852"/>
      <point x="774" y="940"/>
      <point x="683" y="1028" type="curve" smooth="yes"/>
      <point x="491" y="1204" type="line" smooth="yes"/>
      <point x="425" y="1272"/>
      <point x="367" y="1349"/>
      <point x="375" y="1422" type="curve" smooth="yes"/>
      <point x="386" y="1531"/>
      <point x="467" y="1587"/>
      <point x="559" y="1587" type="curve" smooth="yes"/>
      <point x="681" y="1587"/>
      <point x="720" y="1450"/>
      <point x="740" y="1359" type="curve"/>
      <point x="831" y="1387" type="line"/>
      <point x="801" y="1516"/>
      <point x="744" y="1675"/>
      <point x="572" y="1675" type="curve" smooth="yes"/>
      <point x="399" y="1675"/>
      <point x="285" y="1569"/>
      <point x="270" y="1427" type="curve" smooth="yes"/>
      <point x="260" y="1333"/>
      <point x="320" y="1256"/>
      <point x="385" y="1187" type="curve"/>
      <point x="286" y="1155"/>
      <point x="188" y="1082"/>
      <point x="175" y="957" type="curve" smooth="yes"/>
      <point x="167" y="881"/>
      <point x="197" y="809"/>
      <point x="265" y="742" type="curve" smooth="yes"/>
      <point x="469" y="532" type="line" smooth="yes"/>
      <point x="622" y="360"/>
      <point x="626" y="302"/>
      <point x="617" y="240" type="curve" smooth="yes"/>
      <point x="604" y="135"/>
      <point x="522" y="67"/>
      <point x="411" y="67" type="curve" smooth="yes"/>
      <point x="289" y="67"/>
      <point x="223" y="191"/>
      <point x="206" y="326" type="curve"/>
      <point x="119" y="298" type="line"/>
      <point x="142" y="134"/>
      <point x="219" y="-19"/>
    </contour>
    <contour>
      <point x="560" y="555" type="curve"/>
      <point x="337" y="811" type="line" smooth="yes"/>
      <point x="292" y="862"/>
      <point x="273" y="911"/>
      <point x="278" y="960" type="curve" smooth="yes"/>
      <point x="287" y="1047"/>
      <point x="353" y="1104"/>
      <point x="440" y="1129" type="curve"/>
      <point x="609" y="965" type="line" smooth="yes"/>
      <point x="700" y="877"/>
      <point x="736" y="807"/>
      <point x="715" y="715" type="curve" smooth="yes"/>
      <point x="697" y="635"/>
      <point x="621" y="581"/>
    </contour>
  </outline>
</glyph>
<glyph name="dieresis" format="1">
  <advance width="762"/>
  <unicode hex="00A8"/>
  <outline>
    <contour>
      <point x="308" y="1504" type="line"/>
      <point x="422" y="1504" type="line"/>
      <point x="438" y="1658" type="line"/>
      <point x="325" y="1658" type="line"/>
    </contour>
    <contour>
      <point x="635" y="1504" type="line"/>
      <point x="749" y="1504" type="line"/>
      <point x="765" y="1658" type="line"/>
      <point x="651" y="1658" type="line"/>
    </contour>
  </outline>
</glyph>
<glyph name="copyright" format="1">
  <advance width="1765"/>
  <unicode hex="00A9"/>
  <outline>
    <contour>
      <point x="882" y="245" type="curve" smooth="yes"/>
      <point x="1170" y="245"/>
      <point x="1215" y="415"/>
      <point x="1242" y="673" type="curve" smooth="yes"/>
      <point x="1247" y="726" type="line"/>
      <point x="1142" y="726" type="line"/>
      <point x="1136" y="670" type="line" smooth="yes"/>
      <point x="1109" y="412"/>
      <point x="1071" y="333"/>
      <point x="893" y="333" type="curve" smooth="yes"/>
      <point x="721" y="333"/>
      <point x="687" y="438"/>
      <point x="717" y="721" type="curve" smooth="yes"/>
      <point x="745" y="992" type="line" smooth="yes"/>
      <point x="778" y="1300"/>
      <point x="827" y="1400"/>
      <point x="1005" y="1400" type="curve" smooth="yes"/>
      <point x="1150" y="1400"/>
      <point x="1209" y="1356"/>
      <point x="1181" y="1093" type="curve" smooth="yes"/>
      <point x="1175" y="1038" type="line"/>
      <point x="1280" y="1038" type="line"/>
      <point x="1286" y="1094" type="line" smooth="yes"/>
      <point x="1311" y="1330"/>
      <point x="1287" y="1488"/>
      <point x="1013" y="1488" type="curve" smooth="yes"/>
      <point x="756" y="1488"/>
      <point x="669" y="1360"/>
      <point x="628" y="979" type="curve" smooth="yes"/>
      <point x="603" y="738" type="line" smooth="yes"/>
      <point x="573" y="456"/>
      <point x="587" y="245"/>
    </contour>
    <contour>
      <point x="889" y="39" type="curve" smooth="yes"/>
      <point x="366" y="39"/>
      <point x="180" y="439"/>
      <point x="223" y="845" type="curve" smooth="yes"/>
      <point x="265" y="1252"/>
      <point x="535" y="1646"/>
      <point x="1058" y="1646" type="curve" smooth="yes"/>
      <point x="1578" y="1646"/>
      <point x="1766" y="1252"/>
      <point x="1724" y="845" type="curve" smooth="yes"/>
      <point x="1681" y="439"/>
      <point x="1410" y="39"/>
    </contour>
    <contour>
      <point x="881" y="-22" type="curve" smooth="yes"/>
      <point x="1467" y="-22"/>
      <point x="1750" y="426"/>
      <point x="1794" y="843" type="curve" smooth="yes"/>
      <point x="1837" y="1260"/>
      <point x="1647" y="1708"/>
      <point x="1063" y="1708" type="curve" smooth="yes"/>
      <point x="478" y="1708"/>
      <point x="192" y="1260"/>
      <point x="149" y="843" type="curve" smooth="yes"/>
      <point x="105" y="427"/>
      <point x="296" y="-22"/>
    </contour>
  </outline>
</glyph>
<glyph name="ordfeminine" format="1">
  <advance width="803"/>
  <unicode hex="00AA"/>
  <outline>
    <contour>
      <point x="429" y="719" type="curve"/>
      <point x="527" y="719"/>
      <point x="618" y="775"/>
      <point x="663" y="852" type="curve"/>
      <point x="658" y="733" type="line"/>
      <point x="741" y="733" type="line"/>
      <point x="804" y="1342" type="line" smooth="yes"/>
      <point x="829" y="1576"/>
      <point x="786" y="1680"/>
      <point x="606" y="1680" type="curve" smooth="yes"/>
      <point x="443" y="1680"/>
      <point x="346" y="1598"/>
      <point x="323" y="1424" type="curve"/>
      <point x="414" y="1422" type="line"/>
      <point x="430" y="1573"/>
      <point x="514" y="1607"/>
      <point x="597" y="1607" type="curve" smooth="yes"/>
      <point x="699" y="1607"/>
      <point x="731" y="1546"/>
      <point x="710" y="1351" type="curve" smooth="yes"/>
      <point x="702" y="1273" type="line"/>
      <point x="339" y="1132"/>
      <point x="259" y="1077"/>
      <point x="241" y="921" type="curve" smooth="yes"/>
      <point x="229" y="798"/>
      <point x="303" y="719"/>
    </contour>
    <contour>
      <point x="458" y="794" type="curve" smooth="yes"/>
      <point x="395" y="794"/>
      <point x="326" y="826"/>
      <point x="338" y="931" type="curve" smooth="yes"/>
      <point x="352" y="1070"/>
      <point x="427" y="1101"/>
      <point x="696" y="1218" type="curve"/>
      <point x="666" y="927" type="line"/>
      <point x="618" y="853"/>
      <point x="548" y="794"/>
    </contour>
  </outline>
</glyph>
<glyph name="guillemotleft" format="1">
  <advance width="837"/>
  <unicode hex="00AB"/>
  <outline>
    <contour>
      <point x="452" y="232" type="line"/>
      <point x="467" y="372" type="line"/>
      <point x="255" y="683" type="line"/>
      <point x="531" y="986" type="line"/>
      <point x="546" y="1126" type="line"/>
      <point x="157" y="701" type="line"/>
      <point x="153" y="658" type="line"/>
    </contour>
    <contour>
      <point x="749" y="232" type="line"/>
      <point x="764" y="372" type="line"/>
      <point x="551" y="680" type="line"/>
      <point x="828" y="986" type="line"/>
      <point x="842" y="1126" type="line"/>
      <point x="452" y="701" type="line"/>
      <point x="448" y="658" type="line"/>
    </contour>
  </outline>
</glyph>
<glyph name="logicalnot" format="1">
  <advance width="715"/>
  <unicode hex="00AC"/>
  <outline>
    <contour>
      <point x="639" y="582" type="line"/>
      <point x="715" y="582" type="line"/>
      <point x="749" y="902" type="line"/>
      <point x="179" y="902" type="line"/>
      <point x="170" y="812" type="line"/>
      <point x="663" y="812" type="line"/>
    </contour>
  </outline>
</glyph>
<glyph name="uni00AD" format="1">
  <advance width="672"/>
  <unicode hex="00AD"/>
  <outline>
    <contour>
      <point x="185" y="639" type="line"/>
      <point x="634" y="639" type="line"/>
      <point x="643" y="724" type="line"/>
      <point x="193" y="724" type="line"/>
    </contour>
  </outline>
</glyph>
<glyph name="registered" format="1">
  <advance width="1780"/>
  <unicode hex="00AE"/>
  <outline>
    <contour>
      <point x="645" y="226" type="line"/>
      <point x="742" y="226" type="line"/>
      <point x="806" y="841" type="line"/>
      <point x="1041" y="841" type="line"/>
      <point x="1178" y="226" type="line"/>
      <point x="1279" y="226" type="line"/>
      <point x="1133" y="857" type="line"/>
      <point x="1291" y="884"/>
      <point x="1352" y="1015"/>
      <point x="1367" y="1157" type="curve" smooth="yes"/>
      <point x="1384" y="1321"/>
      <point x="1342" y="1471"/>
      <point x="1119" y="1471" type="curve" smooth="yes"/>
      <point x="775" y="1471" type="line"/>
    </contour>
    <contour>
      <point x="813" y="908" type="line"/>
      <point x="865" y="1397" type="line"/>
      <point x="1102" y="1397" type="line" smooth="yes"/>
      <point x="1252" y="1397"/>
      <point x="1284" y="1311"/>
      <point x="1268" y="1158" type="curve" smooth="yes"/>
      <point x="1252" y="1004"/>
      <point x="1210" y="908"/>
      <point x="1041" y="908" type="curve" smooth="yes"/>
    </contour>
    <contour>
      <point x="895" y="42" type="curve" smooth="yes"/>
      <point x="377" y="42"/>
      <point x="193" y="438"/>
      <point x="235" y="840" type="curve" smooth="yes"/>
      <point x="277" y="1244"/>
      <point x="544" y="1635"/>
      <point x="1062" y="1635" type="curve" smooth="yes"/>
      <point x="1578" y="1635"/>
      <point x="1764" y="1244"/>
      <point x="1722" y="840" type="curve" smooth="yes"/>
      <point x="1679" y="438"/>
      <point x="1411" y="42"/>
    </contour>
    <contour>
      <point x="889" y="-24" type="curve" smooth="yes"/>
      <point x="1473" y="-24"/>
      <point x="1755" y="423"/>
      <point x="1799" y="839" type="curve" smooth="yes"/>
      <point x="1842" y="1255"/>
      <point x="1652" y="1702"/>
      <point x="1070" y="1702" type="curve" smooth="yes"/>
      <point x="486" y="1702"/>
      <point x="201" y="1255"/>
      <point x="158" y="839" type="curve" smooth="yes"/>
      <point x="115" y="424"/>
      <point x="305" y="-24"/>
    </contour>
  </outline>
</glyph>
<glyph name="degree" format="1">
  <advance width="797"/>
  <unicode hex="00B0"/>
  <outline>
    <contour>
      <point x="525" y="1202" type="curve" smooth="yes"/>
      <point x="431" y="1202"/>
      <point x="345" y="1260"/>
      <point x="360" y="1401" type="curve" smooth="yes"/>
      <point x="374" y="1545"/>
      <point x="472" y="1603"/>
      <point x="566" y="1603" type="curve" smooth="yes"/>
      <point x="662" y="1603"/>
      <point x="748" y="1545"/>
      <point x="733" y="1401" type="curve" smooth="yes"/>
      <point x="718" y="1260"/>
      <point x="620" y="1202"/>
    </contour>
    <contour>
      <point x="517" y="1127" type="curve" smooth="yes"/>
      <point x="653" y="1127"/>
      <point x="801" y="1205"/>
      <point x="821" y="1402" type="curve" smooth="yes"/>
      <point x="842" y="1598"/>
      <point x="711" y="1676"/>
      <point x="575" y="1676" type="curve" smooth="yes"/>
      <point x="438" y="1676"/>
      <point x="292" y="1598"/>
      <point x="271" y="1402" type="curve" smooth="yes"/>
      <point x="251" y="1205"/>
      <point x="381" y="1127"/>
    </contour>
  </outline>
</glyph>
<glyph name="plusminus" format="1">
  <advance width="659"/>
  <unicode hex="00B1"/>
  <outline>
    <contour>
      <point x="327" y="375" type="line"/>
      <point x="429" y="375" type="line"/>
      <point x="449" y="563" type="line"/>
      <point x="637" y="563" type="line"/>
      <point x="648" y="661" type="line"/>
      <point x="460" y="661" type="line"/>
      <point x="479" y="848" type="line"/>
      <point x="377" y="848" type="line"/>
      <point x="358" y="661" type="line"/>
      <point x="169" y="661" type="line"/>
      <point x="158" y="563" type="line"/>
      <point x="347" y="563" type="line"/>
    </contour>
    <contour>
      <point x="100" y="0" type="line"/>
      <point x="578" y="0" type="line"/>
      <point x="588" y="98" type="line"/>
      <point x="110" y="98" type="line"/>
    </contour>
  </outline>
</glyph>
<glyph name="twosuperior" format="1">
  <advance width="820"/>
  <unicode hex="00B2"/>
  <outline>
    <contour>
      <point x="241" y="722" type="line"/>
      <point x="705" y="722" type="line"/>
      <point x="714" y="804" type="line"/>
      <point x="359" y="804" type="line"/>
      <point x="661" y="1193" type="line" smooth="yes"/>
      <point x="747" y="1304"/>
      <point x="808" y="1391"/>
      <point x="821" y="1516" type="curve" smooth="yes"/>
      <point x="839" y="1688"/>
      <point x="758" y="1780"/>
      <point x="606" y="1780" type="curve" smooth="yes"/>
      <point x="433" y="1780"/>
      <point x="347" y="1683"/>
      <point x="328" y="1491" type="curve" smooth="yes"/>
      <point x="325" y="1468" type="line"/>
      <point x="411" y="1468" type="line"/>
      <point x="423" y="1579"/>
      <point x="478" y="1700"/>
      <point x="600" y="1700" type="curve" smooth="yes"/>
      <point x="701" y="1700"/>
      <point x="737" y="1631"/>
      <point x="724" y="1511" type="curve" smooth="yes"/>
      <point x="710" y="1383"/>
      <point x="649" y="1322"/>
      <point x="576" y="1224" type="curve" smooth="yes"/>
      <point x="249" y="796" type="line"/>
    </contour>
  </outline>
</glyph>
<glyph name="threesuperior" format="1">
  <advance width="823"/>
  <unicode hex="00B3"/>
  <outline>
    <contour>
      <point x="482" y="709" type="curve" smooth="yes"/>
      <point x="655" y="709"/>
      <point x="752" y="832"/>
      <point x="770" y="1006" type="curve" smooth="yes"/>
      <point x="789" y="1188"/>
      <point x="713" y="1243"/>
      <point x="657" y="1264" type="curve"/>
      <point x="725" y="1280"/>
      <point x="802" y="1362"/>
      <point x="818" y="1518" type="curve" smooth="yes"/>
      <point x="834" y="1671"/>
      <point x="772" y="1780"/>
      <point x="609" y="1780" type="curve" smooth="yes"/>
      <point x="434" y="1780"/>
      <point x="350" y="1678"/>
      <point x="335" y="1532" type="curve" smooth="yes"/>
      <point x="331" y="1499" type="line"/>
      <point x="433" y="1499" type="line"/>
      <point x="437" y="1536" type="line" smooth="yes"/>
      <point x="448" y="1641"/>
      <point x="499" y="1696"/>
      <point x="602" y="1696" type="curve" smooth="yes"/>
      <point x="691" y="1696"/>
      <point x="733" y="1637"/>
      <point x="722" y="1522" type="curve" smooth="yes"/>
      <point x="706" y="1371"/>
      <point x="652" y="1301"/>
      <point x="562" y="1301" type="curve" smooth="yes"/>
      <point x="482" y="1301" type="line"/>
      <point x="473" y="1217" type="line"/>
      <point x="554" y="1217" type="line" smooth="yes"/>
      <point x="642" y="1217"/>
      <point x="686" y="1129"/>
      <point x="673" y="999" type="curve" smooth="yes"/>
      <point x="657" y="853"/>
      <point x="584" y="796"/>
      <point x="494" y="796" type="curve" smooth="yes"/>
      <point x="393" y="796"/>
      <point x="362" y="861"/>
      <point x="373" y="963" type="curve" smooth="yes"/>
      <point x="376" y="998" type="line"/>
      <point x="274" y="998" type="line"/>
      <point x="271" y="968" type="line" smooth="yes"/>
      <point x="255" y="811"/>
      <point x="313" y="709"/>
    </contour>
  </outline>
</glyph>
<glyph name="acute" format="1">
  <advance width="422"/>
  <unicode hex="00B4"/>
  <outline>
    <contour>
      <point x="220" y="1261" type="line"/>
      <point x="277" y="1261" type="line"/>
      <point x="503" y="1658" type="line"/>
      <point x="393" y="1658" type="line"/>
    </contour>
  </outline>
</glyph>
<glyph name="mu" format="1">
  <advance width="835"/>
  <unicode hex="00B5"/>
  <outline>
    <contour>
      <point x="69" y="-353" type="line"/>
      <point x="179" y="-353" type="line"/>
      <point x="218" y="17" type="line"/>
      <point x="244" y="-9"/>
      <point x="279" y="-16"/>
      <point x="315" y="-16" type="curve" smooth="yes"/>
      <point x="417" y="-10"/>
      <point x="518" y="49"/>
      <point x="598" y="139" type="curve"/>
      <point x="583" y="0" type="line"/>
      <point x="691" y="0" type="line"/>
      <point x="815" y="1184" type="line"/>
      <point x="707" y="1184" type="line"/>
      <point x="604" y="209" type="line"/>
      <point x="525" y="125"/>
      <point x="430" y="66"/>
      <point x="346" y="66" type="curve" smooth="yes"/>
      <point x="271" y="66"/>
      <point x="227" y="107"/>
      <point x="242" y="252" type="curve" smooth="yes"/>
      <point x="339" y="1184" type="line"/>
      <point x="230" y="1184" type="line"/>
    </contour>
  </outline>
</glyph>
<glyph name="paragraph" format="1">
  <advance width="984"/>
  <unicode hex="00B6"/>
  <outline>
    <contour>
      <point x="392" y="-192" type="line"/>
      <point x="474" y="-192" type="line"/>
      <point x="661" y="1585" type="line"/>
      <point x="915" y="1585" type="line"/>
      <point x="728" y="-192" type="line"/>
      <point x="810" y="-192" type="line"/>
      <point x="1004" y="1658" type="line"/>
      <point x="583" y="1658" type="line" smooth="yes"/>
      <point x="332" y="1658"/>
      <point x="217" y="1542"/>
      <point x="200" y="1378" type="curve" smooth="yes"/>
      <point x="180" y="1198"/>
      <point x="307" y="1101"/>
      <point x="528" y="1103" type="curve"/>
    </contour>
  </outline>
</glyph>
<glyph name="cedilla" format="1">
  <advance width="428"/>
  <unicode hex="00B8"/>
  <outline>
    <contour>
      <point x="14" y="-378" type="line"/>
      <point x="191" y="-394"/>
      <point x="280" y="-351"/>
      <point x="295" y="-255" type="curve" smooth="yes"/>
      <point x="308" y="-183"/>
      <point x="257" y="-112"/>
      <point x="148" y="-97" type="curve"/>
      <point x="158" y="0" type="line"/>
      <point x="98" y="0" type="line"/>
      <point x="85" y="-127" type="line"/>
      <point x="174" y="-141"/>
      <point x="225" y="-180"/>
      <point x="212" y="-248" type="curve" smooth="yes"/>
      <point x="201" y="-308"/>
      <point x="149" y="-328"/>
      <point x="21" y="-320" type="curve"/>
    </contour>
  </outline>
</glyph>
<glyph name="onesuperior" format="1">
  <advance width="800"/>
  <unicode hex="00B9"/>
  <outline>
    <contour>
      <point x="476" y="721" type="line"/>
      <point x="567" y="721" type="line"/>
      <point x="677" y="1768" type="line"/>
      <point x="596" y="1768" type="line"/>
      <point x="526" y="1679"/>
      <point x="448" y="1646"/>
      <point x="388" y="1626" type="curve"/>
      <point x="380" y="1553" type="line"/>
      <point x="430" y="1565"/>
      <point x="532" y="1597"/>
      <point x="572" y="1647" type="curve"/>
    </contour>
  </outline>
</glyph>
<glyph name="ordmasculine" format="1">
  <advance width="803"/>
  <unicode hex="00BA"/>
  <outline>
    <contour>
      <point x="477" y="718" type="curve" smooth="yes"/>
      <point x="692" y="718"/>
      <point x="761" y="843"/>
      <point x="779" y="1018" type="curve" smooth="yes"/>
      <point x="817" y="1381" type="line" smooth="yes"/>
      <point x="836" y="1556"/>
      <point x="784" y="1680"/>
      <point x="578" y="1680" type="curve" smooth="yes"/>
      <point x="368" y="1680"/>
      <point x="295" y="1559"/>
      <point x="275" y="1381" type="curve" smooth="yes"/>
      <point x="237" y="1018" type="line" smooth="yes"/>
      <point x="219" y="840"/>
      <point x="260" y="718"/>
    </contour>
    <contour>
      <point x="483" y="787" type="curve" smooth="yes"/>
      <point x="336" y="787"/>
      <point x="309" y="884"/>
      <point x="323" y="1020" type="curve" smooth="yes"/>
      <point x="361" y="1379" type="line" smooth="yes"/>
      <point x="375" y="1514"/>
      <point x="425" y="1611"/>
      <point x="569" y="1611" type="curve" smooth="yes"/>
      <point x="715" y="1611"/>
      <point x="743" y="1514"/>
      <point x="729" y="1379" type="curve" smooth="yes"/>
      <point x="691" y="1020" type="line" smooth="yes"/>
      <point x="676" y="884"/>
      <point x="629" y="787"/>
    </contour>
  </outline>
</glyph>
<glyph name="guillemotright" format="1">
  <advance width="850"/>
  <unicode hex="00BB"/>
  <outline>
    <contour>
      <point x="132" y="232" type="line"/>
      <point x="527" y="657" type="line"/>
      <point x="531" y="700" type="line"/>
      <point x="225" y="1126" type="line"/>
      <point x="210" y="986" type="line"/>
      <point x="428" y="678" type="line"/>
      <point x="146" y="372" type="line"/>
    </contour>
    <contour>
      <point x="428" y="232" type="line"/>
      <point x="822" y="657" type="line"/>
      <point x="826" y="700" type="line"/>
      <point x="522" y="1126" type="line"/>
      <point x="507" y="986" type="line"/>
      <point x="725" y="675" type="line"/>
      <point x="443" y="372" type="line"/>
    </contour>
  </outline>
</glyph>
<glyph name="onequarter" format="1">
  <advance width="1542"/>
  <unicode hex="00BC"/>
  <outline>
    <contour>
      <point x="1241" y="-14" type="line"/>
      <point x="1334" y="-14" type="line"/>
      <point x="1366" y="285" type="line"/>
      <point x="1496" y="285" type="line"/>
      <point x="1504" y="358" type="line"/>
      <point x="1374" y="358" type="line"/>
      <point x="1447" y="1061" type="line"/>
      <point x="1353" y="1061" type="line"/>
      <point x="960" y="355" type="line"/>
      <point x="953" y="285" type="line"/>
      <point x="1272" y="285" type="line"/>
    </contour>
    <contour>
      <point x="325" y="590" type="line"/>
      <point x="414" y="590" type="line"/>
      <point x="526" y="1658" type="line"/>
      <point x="468" y="1658" type="line"/>
      <point x="440" y="1629"/>
      <point x="333" y="1561"/>
      <point x="272" y="1532" type="curve"/>
      <point x="263" y="1453" type="line"/>
      <point x="424" y="1530" type="line"/>
    </contour>
    <contour>
      <point x="392" y="0" type="line"/>
      <point x="491" y="0" type="line"/>
      <point x="1255" y="1658" type="line"/>
      <point x="1157" y="1658" type="line"/>
    </contour>
    <contour>
      <point x="1045" y="358" type="line"/>
      <point x="1338" y="915" type="line"/>
      <point x="1280" y="358" type="line"/>
    </contour>
  </outline>
</glyph>
<glyph name="onehalf" format="1">
  <advance width="1542"/>
  <unicode hex="00BD"/>
  <outline>
    <contour>
      <point x="996" y="-1" type="line"/>
      <point x="1433" y="-1" type="line"/>
      <point x="1441" y="74" type="line"/>
      <point x="1107" y="74" type="line"/>
      <point x="1116" y="85"/>
      <point x="1348" y="377"/>
      <point x="1361" y="389" type="curve"/>
      <point x="1451" y="498"/>
      <point x="1520" y="593"/>
      <point x="1532" y="710" type="curve" smooth="yes"/>
      <point x="1549" y="870"/>
      <point x="1470" y="954"/>
      <point x="1331" y="954" type="curve" smooth="yes"/>
      <point x="1175" y="954"/>
      <point x="1091" y="873"/>
      <point x="1071" y="700" type="curve" smooth="yes"/>
      <point x="1071" y="699"/>
      <point x="1070" y="687"/>
      <point x="1070" y="685" type="curve"/>
      <point x="1157" y="685" type="line"/>
      <point x="1171" y="811"/>
      <point x="1213" y="880"/>
      <point x="1323" y="880" type="curve" smooth="yes"/>
      <point x="1418" y="880"/>
      <point x="1446" y="814"/>
      <point x="1435" y="705" type="curve" smooth="yes"/>
      <point x="1422" y="587"/>
      <point x="1359" y="525"/>
      <point x="1291" y="438" type="curve"/>
      <point x="1004" y="72" type="line"/>
    </contour>
    <contour>
      <point x="338" y="590" type="line"/>
      <point x="427" y="590" type="line"/>
      <point x="539" y="1658" type="line"/>
      <point x="481" y="1658" type="line"/>
      <point x="452" y="1629"/>
      <point x="346" y="1561"/>
      <point x="284" y="1532" type="curve"/>
      <point x="276" y="1453" type="line"/>
      <point x="437" y="1530" type="line"/>
    </contour>
    <contour>
      <point x="395" y="0" type="line"/>
      <point x="494" y="0" type="line"/>
      <point x="1258" y="1658" type="line"/>
      <point x="1160" y="1658" type="line"/>
    </contour>
  </outline>
</glyph>
<glyph name="threequarters" format="1">
  <advance width="1542"/>
  <unicode hex="00BE"/>
  <outline>
    <contour>
      <point x="356" y="700" type="curve" smooth="yes"/>
      <point x="514" y="700"/>
      <point x="605" y="809"/>
      <point x="622" y="965" type="curve" smooth="yes"/>
      <point x="639" y="1132"/>
      <point x="562" y="1180"/>
      <point x="497" y="1196" type="curve"/>
      <point x="573" y="1207"/>
      <point x="648" y="1276"/>
      <point x="664" y="1426" type="curve" smooth="yes"/>
      <point x="679" y="1560"/>
      <point x="623" y="1664"/>
      <point x="475" y="1664" type="curve" smooth="yes"/>
      <point x="313" y="1664"/>
      <point x="237" y="1573"/>
      <point x="223" y="1439" type="curve"/>
      <point x="320" y="1441" type="line"/>
      <point x="331" y="1536"/>
      <point x="369" y="1590"/>
      <point x="468" y="1590" type="curve" smooth="yes"/>
      <point x="551" y="1590"/>
      <point x="580" y="1530"/>
      <point x="569" y="1427" type="curve" smooth="yes"/>
      <point x="554" y="1284"/>
      <point x="505" y="1232"/>
      <point x="417" y="1232" type="curve"/>
      <point x="410" y="1157" type="line"/>
      <point x="496" y="1157"/>
      <point x="539" y="1086"/>
      <point x="527" y="963" type="curve" smooth="yes"/>
      <point x="513" y="828"/>
      <point x="451" y="773"/>
      <point x="369" y="773" type="curve" smooth="yes"/>
      <point x="273" y="773"/>
      <point x="253" y="837"/>
      <point x="262" y="922" type="curve"/>
      <point x="165" y="926" type="line"/>
      <point x="151" y="790"/>
      <point x="210" y="700"/>
    </contour>
    <contour>
      <point x="1257" y="-14" type="line"/>
      <point x="1349" y="-14" type="line"/>
      <point x="1380" y="285" type="line"/>
      <point x="1510" y="285" type="line"/>
      <point x="1518" y="358" type="line"/>
      <point x="1388" y="358" type="line"/>
      <point x="1462" y="1061" type="line"/>
      <point x="1369" y="1061" type="line"/>
      <point x="976" y="355" type="line"/>
      <point x="969" y="285" type="line"/>
      <point x="1289" y="285" type="line"/>
    </contour>
    <contour>
      <point x="413" y="0" type="line"/>
      <point x="512" y="0" type="line"/>
      <point x="1276" y="1658" type="line"/>
      <point x="1178" y="1658" type="line"/>
    </contour>
    <contour>
      <point x="1062" y="358" type="line"/>
      <point x="1355" y="915" type="line"/>
      <point x="1297" y="358" type="line"/>
    </contour>
  </outline>
</glyph>
<glyph name="questiondown" format="1">
  <advance width="886"/>
  <unicode hex="00BF"/>
  <outline>
    <contour>
      <point x="348" y="-445" type="curve" smooth="yes"/>
      <point x="570" y="-445"/>
      <point x="762" y="-316"/>
      <point x="727" y="-58" type="curve" smooth="yes"/>
      <point x="717" y="17" type="line"/>
      <point x="618" y="-7" type="line"/>
      <point x="626" y="-80" type="line" smooth="yes"/>
      <point x="649" y="-257"/>
      <point x="525" y="-350"/>
      <point x="358" y="-350" type="curve" smooth="yes"/>
      <point x="217" y="-350"/>
      <point x="94" y="-248"/>
      <point x="119" y="-11" type="curve" smooth="yes"/>
      <point x="143" y="213"/>
      <point x="262" y="389"/>
      <point x="557" y="572" type="curve"/>
      <point x="584" y="824" type="line"/>
      <point x="489" y="824" type="line"/>
      <point x="466" y="604" type="line"/>
      <point x="194" y="430"/>
      <point x="43" y="258"/>
      <point x="15" y="-10" type="curve" smooth="yes"/>
      <point x="-16" y="-306"/>
      <point x="144" y="-445"/>
    </contour>
    <contour>
      <point x="509" y="1084" type="line"/>
      <point x="615" y="1084" type="line"/>
      <point x="632" y="1233" type="line"/>
      <point x="525" y="1233" type="line"/>
    </contour>
  </outline>
</glyph>
<glyph name="AE" format="1">
  <advance width="1289"/>
  <unicode hex="00C6"/>
  <outline>
    <contour>
      <point x="-31" y="0" type="line"/>
      <point x="100" y="0" type="line"/>
      <point x="319" y="458" type="line"/>
      <point x="694" y="458" type="line"/>
      <point x="645" y="0" type="line"/>
      <point x="1220" y="0" type="line"/>
      <point x="1230" y="97" type="line"/>
      <point x="772" y="97" type="line"/>
      <point x="848" y="822" type="line"/>
      <point x="1176" y="822" type="line"/>
      <point x="1185" y="911" type="line"/>
      <point x="857" y="911" type="line"/>
      <point x="926" y="1561" type="line"/>
      <point x="1384" y="1561" type="line"/>
      <point x="1394" y="1658" type="line"/>
      <point x="786" y="1658" type="line"/>
    </contour>
    <contour>
      <point x="361" y="548" type="line"/>
      <point x="800" y="1489" type="line"/>
      <point x="701" y="548" type="line"/>
    </contour>
  </outline>
</glyph>
<glyph name="multiply" format="1">
  <advance width="687"/>
  <unicode hex="00D7"/>
  <outline>
    <contour>
      <point x="186" y="525" type="line"/>
      <point x="421" y="738" type="line"/>
      <point x="611" y="525" type="line"/>
      <point x="675" y="583" type="line"/>
      <point x="485" y="796" type="line"/>
      <point x="721" y="1009" type="line"/>
      <point x="668" y="1065" type="line"/>
      <point x="433" y="854" type="line"/>
      <point x="243" y="1065" type="line"/>
      <point x="179" y="1009" type="line"/>
      <point x="369" y="796" type="line"/>
      <point x="134" y="583" type="line"/>
    </contour>
  </outline>
</glyph>
<glyph name="Thorn" format="1">
  <advance width="1034"/>
  <unicode hex="00DE"/>
  <outline>
    <contour>
      <point x="153" y="0" type="line"/>
      <point x="265" y="0" type="line"/>
      <point x="319" y="513" type="line"/>
      <point x="618" y="513" type="line" smooth="yes"/>
      <point x="945" y="513"/>
      <point x="1048" y="776"/>
      <point x="1071" y="993" type="curve" smooth="yes"/>
      <point x="1096" y="1233"/>
      <point x="1021" y="1446"/>
      <point x="728" y="1446" type="curve" smooth="yes"/>
      <point x="417" y="1446" type="line"/>
      <point x="439" y="1658" type="line"/>
      <point x="327" y="1658" type="line"/>
    </contour>
    <contour>
      <point x="329" y="610" type="line"/>
      <point x="407" y="1349" type="line"/>
      <point x="699" y="1349" type="line" smooth="yes"/>
      <point x="879" y="1349"/>
      <point x="983" y="1250"/>
      <point x="955" y="989" type="curve" smooth="yes"/>
      <point x="927" y="723"/>
      <point x="817" y="610"/>
      <point x="612" y="610" type="curve" smooth="yes"/>
    </contour>
  </outline>
</glyph>
<glyph name="germandbls" format="1">
  <advance width="992"/>
  <unicode hex="00DF"/>
  <outline>
    <contour>
      <point x="347" y="-22" type="line"/>
      <point x="801" y="-22"/>
      <point x="922" y="248"/>
      <point x="947" y="492" type="curve" smooth="yes"/>
      <point x="968" y="689"/>
      <point x="922" y="885"/>
      <point x="710" y="933" type="curve"/>
      <point x="850" y="976"/>
      <point x="927" y="1102"/>
      <point x="948" y="1299" type="curve" smooth="yes"/>
      <point x="976" y="1568"/>
      <point x="855" y="1698"/>
      <point x="646" y="1698" type="curve" smooth="yes"/>
      <point x="428" y="1698"/>
      <point x="299" y="1602"/>
      <point x="263" y="1250" type="curve" smooth="yes"/>
      <point x="131" y="0" type="line"/>
      <point x="240" y="0" type="line"/>
      <point x="371" y="1252" type="line" smooth="yes"/>
      <point x="404" y="1556"/>
      <point x="495" y="1612"/>
      <point x="641" y="1612" type="curve" smooth="yes"/>
      <point x="805" y="1612"/>
      <point x="863" y="1503"/>
      <point x="842" y="1299" type="curve" smooth="yes"/>
      <point x="823" y="1123"/>
      <point x="754" y="972"/>
      <point x="572" y="972" type="curve"/>
      <point x="557" y="881" type="line"/>
      <point x="810" y="881"/>
      <point x="862" y="684"/>
      <point x="842" y="486" type="curve" smooth="yes"/>
      <point x="821" y="294"/>
      <point x="732" y="69"/>
      <point x="357" y="69" type="curve"/>
    </contour>
  </outline>
</glyph>
<glyph name="ae" format="1">
  <advance width="1227"/>
  <unicode hex="00E6"/>
  <outline>
    <contour>
      <point x="317" y="-19" type="curve" smooth="yes"/>
      <point x="420" y="-23"/>
      <point x="564" y="33"/>
      <point x="631" y="220" type="curve"/>
      <point x="635" y="38"/>
      <point x="744" y="-19"/>
      <point x="865" y="-19" type="curve" smooth="yes"/>
      <point x="1086" y="-19"/>
      <point x="1167" y="119"/>
      <point x="1188" y="321" type="curve" smooth="yes"/>
      <point x="1197" y="400" type="line"/>
      <point x="1089" y="400" type="line"/>
      <point x="1080" y="318" type="line" smooth="yes"/>
      <point x="1056" y="91"/>
      <point x="958" y="67"/>
      <point x="874" y="67" type="curve" smooth="yes"/>
      <point x="737" y="67"/>
      <point x="693" y="173"/>
      <point x="723" y="457" type="curve" smooth="yes"/>
      <point x="739" y="614" type="line"/>
      <point x="977" y="692" type="line" smooth="yes"/>
      <point x="1134" y="740"/>
      <point x="1230" y="810"/>
      <point x="1242" y="931" type="curve" smooth="yes"/>
      <point x="1258" y="1086"/>
      <point x="1176" y="1203"/>
      <point x="997" y="1203" type="curve" smooth="yes"/>
      <point x="890" y="1203"/>
      <point x="774" y="1156"/>
      <point x="726" y="1009" type="curve"/>
      <point x="723" y="1137"/>
      <point x="645" y="1203"/>
      <point x="527" y="1203" type="curve" smooth="yes"/>
      <point x="340" y="1203"/>
      <point x="220" y="1102"/>
      <point x="196" y="891" type="curve"/>
      <point x="299" y="887" type="line"/>
      <point x="319" y="1072"/>
      <point x="418" y="1119"/>
      <point x="516" y="1119" type="curve" smooth="yes"/>
      <point x="631" y="1119"/>
      <point x="676" y="1047"/>
      <point x="649" y="791" type="curve" smooth="yes"/>
      <point x="635" y="662" type="line"/>
      <point x="451" y="600" type="line" smooth="yes"/>
      <point x="167" y="502"/>
      <point x="121" y="383"/>
      <point x="106" y="240" type="curve" smooth="yes"/>
      <point x="90" y="87"/>
      <point x="174" y="-16"/>
    </contour>
    <contour>
      <point x="352" y="66" type="curve" smooth="yes"/>
      <point x="280" y="66"/>
      <point x="202" y="109"/>
      <point x="215" y="250" type="curve" smooth="yes"/>
      <point x="225" y="369"/>
      <point x="249" y="443"/>
      <point x="472" y="529" type="curve" smooth="yes"/>
      <point x="479" y="533"/>
      <point x="620" y="587"/>
      <point x="628" y="589" type="curve"/>
      <point x="612" y="444" type="line" smooth="yes"/>
      <point x="582" y="149"/>
      <point x="457" y="66"/>
    </contour>
    <contour>
      <point x="747" y="687" type="line"/>
      <point x="757" y="786" type="line" smooth="yes"/>
      <point x="785" y="1045"/>
      <point x="856" y="1116"/>
      <point x="987" y="1116" type="curve" smooth="yes"/>
      <point x="1116" y="1116"/>
      <point x="1152" y="1028"/>
      <point x="1143" y="939" type="curve" smooth="yes"/>
      <point x="1134" y="849"/>
      <point x="1095" y="802"/>
      <point x="965" y="760" type="curve" smooth="yes"/>
    </contour>
  </outline>
</glyph>
<glyph name="eth" format="1">
  <advance width="880"/>
  <unicode hex="00F0"/>
  <outline>
    <contour>
      <point x="810" y="508" type="curve" smooth="yes"/>
      <point x="828" y="679" type="line" smooth="yes"/>
      <point x="866" y="1031"/>
      <point x="815" y="1306"/>
      <point x="787" y="1391" type="curve"/>
      <point x="928" y="1427" type="line"/>
      <point x="935" y="1496" type="line"/>
      <point x="765" y="1452" type="line"/>
      <point x="699" y="1625"/>
      <point x="550" y="1684"/>
      <point x="350" y="1695" type="curve"/>
      <point x="336" y="1620" type="line"/>
      <point x="517" y="1603"/>
      <point x="629" y="1545"/>
      <point x="674" y="1423" type="curve"/>
      <point x="489" y="1375" type="line"/>
      <point x="482" y="1307" type="line"/>
      <point x="697" y="1364" type="line"/>
      <point x="725" y="1301"/>
      <point x="737" y="1177"/>
      <point x="740" y="1084" type="curve"/>
      <point x="683" y="1116"/>
      <point x="618" y="1139"/>
      <point x="545" y="1139" type="curve" smooth="yes"/>
      <point x="345" y="1139"/>
      <point x="217" y="977"/>
      <point x="178" y="618" type="curve" smooth="yes"/>
      <point x="161" y="457" type="line" smooth="yes"/>
      <point x="129" y="162"/>
      <point x="196" y="-22"/>
      <point x="438" y="-22" type="curve" smooth="yes"/>
      <point x="687" y="-22"/>
      <point x="774" y="161"/>
    </contour>
    <contour>
      <point x="274" y="527" type="curve" smooth="yes"/>
      <point x="316" y="918"/>
      <point x="409" y="1052"/>
      <point x="560" y="1052" type="curve" smooth="yes"/>
      <point x="625" y="1052"/>
      <point x="682" y="1025"/>
      <point x="736" y="1001" type="curve"/>
      <point x="738" y="983"/>
      <point x="724" y="687"/>
      <point x="713" y="580" type="curve" smooth="yes"/>
      <point x="673" y="206"/>
      <point x="631" y="66"/>
      <point x="451" y="66" type="curve" smooth="yes"/>
      <point x="295" y="66"/>
      <point x="241" y="211"/>
    </contour>
  </outline>
</glyph>
<glyph name="divide" format="1">
  <advance width="678"/>
  <unicode hex="00F7"/>
  <outline>
    <contour>
      <point x="334" y="431" type="line"/>
      <point x="436" y="431" type="line"/>
      <point x="453" y="591" type="line"/>
      <point x="351" y="591" type="line"/>
    </contour>
    <contour>
      <point x="147" y="812" type="line"/>
      <point x="702" y="812" type="line"/>
      <point x="711" y="900" type="line"/>
      <point x="156" y="900" type="line"/>
    </contour>
    <contour>
      <point x="404" y="1097" type="line"/>
      <point x="506" y="1097" type="line"/>
      <point x="522" y="1258" type="line"/>
      <point x="421" y="1258" type="line"/>
    </contour>
  </outline>
</glyph>
<glyph name="thorn" format="1">
  <advance width="815"/>
  <unicode hex="00FE"/>
  <outline>
    <contour>
      <point x="77" y="-390" type="line"/>
      <point x="186" y="-390" type="line"/>
      <point x="237" y="98" type="line"/>
      <point x="274" y="45"/>
      <point x="338" y="-19"/>
      <point x="441" y="-19" type="curve" smooth="yes"/>
      <point x="654" y="-19"/>
      <point x="738" y="156"/>
      <point x="772" y="487" type="curve" smooth="yes"/>
      <point x="796" y="714" type="line" smooth="yes"/>
      <point x="827" y="1011"/>
      <point x="799" y="1203"/>
      <point x="581" y="1203" type="curve" smooth="yes"/>
      <point x="471" y="1203"/>
      <point x="390" y="1140"/>
      <point x="341" y="1083" type="curve"/>
      <point x="401" y="1658" type="line"/>
      <point x="292" y="1658" type="line"/>
    </contour>
    <contour>
      <point x="438" y="66" type="curve" smooth="yes"/>
      <point x="352" y="66"/>
      <point x="286" y="116"/>
      <point x="245" y="173" type="curve"/>
      <point x="333" y="1008" type="line"/>
      <point x="379" y="1054"/>
      <point x="460" y="1118"/>
      <point x="549" y="1118" type="curve" smooth="yes"/>
      <point x="702" y="1118"/>
      <point x="717" y="997"/>
      <point x="687" y="715" type="curve" smooth="yes"/>
      <point x="663" y="484" type="line" smooth="yes"/>
      <point x="633" y="195"/>
      <point x="585" y="66"/>
    </contour>
  </outline>
</glyph>
<glyph name="Dcroat" format="1">
  <advance width="1060"/>
  <unicode hex="0110"/>
  <outline>
    <contour>
      <point x="276" y="88" type="line"/>
      <point x="354" y="836" type="line"/>
      <point x="546" y="836" type="line"/>
      <point x="554" y="911" type="line"/>
      <point x="362" y="911" type="line"/>
      <point x="431" y="1569" type="line"/>
      <point x="682" y="1569" type="line" smooth="yes"/>
      <point x="937" y="1569"/>
      <point x="978" y="1416"/>
      <point x="952" y="1173" type="curve" smooth="yes"/>
      <point x="883" y="506" type="line" smooth="yes"/>
      <point x="859" y="280"/>
      <point x="799" y="88"/>
      <point x="531" y="88" type="curve" smooth="yes"/>
    </contour>
    <contour>
      <point x="154" y="0" type="line"/>
      <point x="528" y="0" type="line" smooth="yes"/>
      <point x="848" y="0"/>
      <point x="964" y="208"/>
      <point x="994" y="494" type="curve" smooth="yes"/>
      <point x="1066" y="1182" type="line" smooth="yes"/>
      <point x="1094" y="1448"/>
      <point x="1022" y="1658"/>
      <point x="692" y="1658" type="curve" smooth="yes"/>
      <point x="328" y="1658" type="line"/>
      <point x="250" y="911" type="line"/>
      <point x="116" y="911" type="line"/>
      <point x="108" y="836" type="line"/>
      <point x="242" y="836" type="line"/>
    </contour>
  </outline>
</glyph>
<glyph name="dcroat" format="1">
  <advance width="839"/>
  <unicode hex="0111"/>
  <outline>
    <contour>
      <point x="370" y="-19" type="curve" smooth="yes"/>
      <point x="468" y="-19"/>
      <point x="543" y="38"/>
      <point x="592" y="90" type="curve"/>
      <point x="582" y="0" type="line"/>
      <point x="691" y="0" type="line"/>
      <point x="840" y="1414" type="line"/>
      <point x="955" y="1414" type="line"/>
      <point x="962" y="1484" type="line"/>
      <point x="847" y="1484" type="line"/>
      <point x="865" y="1658" type="line"/>
      <point x="756" y="1658" type="line"/>
      <point x="738" y="1484" type="line"/>
      <point x="565" y="1484" type="line"/>
      <point x="557" y="1414" type="line"/>
      <point x="731" y="1414" type="line"/>
      <point x="697" y="1093" type="line"/>
      <point x="658" y="1146"/>
      <point x="593" y="1202"/>
      <point x="493" y="1203" type="curve" smooth="yes"/>
      <point x="277" y="1203"/>
      <point x="202" y="1030"/>
      <point x="167" y="697" type="curve" smooth="yes"/>
      <point x="145" y="486" type="line" smooth="yes"/>
      <point x="107" y="126"/>
      <point x="166" y="-19"/>
    </contour>
    <contour>
      <point x="395" y="66" type="curve" smooth="yes"/>
      <point x="246" y="66"/>
      <point x="223" y="190"/>
      <point x="253" y="477" type="curve" smooth="yes"/>
      <point x="278" y="723" type="line" smooth="yes"/>
      <point x="308" y="1000"/>
      <point x="351" y="1118"/>
      <point x="501" y="1118" type="curve" smooth="yes"/>
      <point x="586" y="1118"/>
      <point x="650" y="1060"/>
      <point x="689" y="1014" type="curve"/>
      <point x="600" y="166" type="line"/>
      <point x="545" y="111"/>
      <point x="472" y="66"/>
    </contour>
  </outline>
</glyph>
<glyph name="gcommaaccent" format="1">
  <advance width="901"/>
  <unicode hex="0123"/>
  <outline>
    <contour>
      <point x="360" y="-407" type="curve" smooth="yes"/>
      <point x="569" y="-407"/>
      <point x="768" y="-324"/>
      <point x="786" y="-150" type="curve" smooth="yes"/>
      <point x="801" y="-6"/>
      <point x="690" y="57"/>
      <point x="490" y="107" type="curve" smooth="yes"/>
      <point x="433" y="121"/>
      <point x="360" y="136"/>
      <point x="285" y="156" type="curve" smooth="yes"/>
      <point x="231" y="170"/>
      <point x="189" y="184"/>
      <point x="189" y="193" type="curve" smooth="yes"/>
      <point x="194" y="244"/>
      <point x="285" y="346"/>
      <point x="332" y="407" type="curve"/>
      <point x="371" y="389"/>
      <point x="415" y="380"/>
      <point x="471" y="380" type="curve" smooth="yes"/>
      <point x="705" y="380"/>
      <point x="827" y="561"/>
      <point x="851" y="796" type="curve" smooth="yes"/>
      <point x="857" y="850"/>
      <point x="848" y="945"/>
      <point x="831" y="997" type="curve"/>
      <point x="887" y="1057"/>
      <point x="957" y="1110"/>
      <point x="1033" y="1129" type="curve"/>
      <point x="1009" y="1201" type="line"/>
      <point x="978" y="1189" type="line"/>
      <point x="913" y="1164"/>
      <point x="846" y="1108"/>
      <point x="803" y="1045" type="curve"/>
      <point x="766" y="1120"/>
      <point x="698" y="1204"/>
      <point x="551" y="1204" type="curve" smooth="yes"/>
      <point x="308" y="1204"/>
      <point x="183" y="977"/>
      <point x="164" y="797" type="curve" smooth="yes"/>
      <point x="150" y="664"/>
      <point x="171" y="522"/>
      <point x="284" y="437" type="curve"/>
      <point x="225" y="374"/>
      <point x="109" y="249"/>
      <point x="104" y="169" type="curve" smooth="yes"/>
      <point x="101" y="130"/>
      <point x="193" y="102"/>
      <point x="250" y="87" type="curve"/>
      <point x="141" y="31"/>
      <point x="12" y="-73"/>
      <point x="0" y="-185" type="curve" smooth="yes"/>
      <point x="-14" y="-328"/>
      <point x="112" y="-407"/>
    </contour>
    <contour>
      <point x="620" y="1499" type="line"/>
      <point x="749" y="1499" type="line"/>
      <point x="765" y="1652" type="line"/>
      <point x="691" y="1652" type="line"/>
      <point x="695" y="1696"/>
      <point x="720" y="1786"/>
      <point x="793" y="1843" type="curve"/>
      <point x="782" y="1872" type="line"/>
      <point x="689" y="1819"/>
      <point x="646" y="1751"/>
      <point x="632" y="1619" type="curve" smooth="yes"/>
    </contour>
    <contour>
      <point x="368" y="-332" type="curve" smooth="yes"/>
      <point x="202" y="-332"/>
      <point x="86" y="-287"/>
      <point x="98" y="-176" type="curve" smooth="yes"/>
      <point x="109" y="-60"/>
      <point x="244" y="20"/>
      <point x="328" y="66" type="curve"/>
      <point x="440" y="41" type="line" smooth="yes"/>
      <point x="668" y="-12"/>
      <point x="707" y="-66"/>
      <point x="695" y="-156" type="curve" smooth="yes"/>
      <point x="682" y="-281"/>
      <point x="533" y="-332"/>
    </contour>
    <contour>
      <point x="476" y="451" type="curve" smooth="yes"/>
      <point x="262" y="451"/>
      <point x="257" y="679"/>
      <point x="270" y="800" type="curve" smooth="yes"/>
      <point x="279" y="891"/>
      <point x="346" y="1133"/>
      <point x="544" y="1133" type="curve" smooth="yes"/>
      <point x="742" y="1133"/>
      <point x="762" y="913"/>
      <point x="749" y="799" type="curve" smooth="yes"/>
      <point x="737" y="679"/>
      <point x="688" y="451"/>
    </contour>
  </outline>
</glyph>
<glyph name="Hbar" format="1">
  <advance width="1109"/>
  <unicode hex="0126"/>
  <outline>
    <contour>
      <point x="152" y="0" type="line"/>
      <point x="264" y="0" type="line"/>
      <point x="351" y="826" type="line"/>
      <point x="932" y="826" type="line"/>
      <point x="845" y="0" type="line"/>
      <point x="957" y="0" type="line"/>
      <point x="1095" y="1311" type="line"/>
      <point x="1172" y="1311" type="line"/>
      <point x="1179" y="1377" type="line"/>
      <point x="1101" y="1377" type="line"/>
      <point x="1131" y="1658" type="line"/>
      <point x="1019" y="1658" type="line"/>
      <point x="989" y="1377" type="line"/>
      <point x="409" y="1377" type="line"/>
      <point x="438" y="1658" type="line"/>
      <point x="326" y="1658" type="line"/>
      <point x="296" y="1377" type="line"/>
      <point x="220" y="1377" type="line"/>
      <point x="214" y="1311" type="line"/>
      <point x="290" y="1311" type="line"/>
    </contour>
    <contour>
      <point x="360" y="911" type="line"/>
      <point x="402" y="1311" type="line"/>
      <point x="983" y="1311" type="line"/>
      <point x="940" y="911" type="line"/>
    </contour>
  </outline>
</glyph>
<glyph name="hbar" format="1">
  <advance width="801"/>
  <unicode hex="0127"/>
  <outline>
    <contour>
      <point x="116" y="0" type="line"/>
      <point x="225" y="0" type="line"/>
      <point x="328" y="988" type="line"/>
      <point x="406" y="1064"/>
      <point x="497" y="1118"/>
      <point x="576" y="1118" type="curve" smooth="yes"/>
      <point x="652" y="1118"/>
      <point x="695" y="1077"/>
      <point x="681" y="932" type="curve" smooth="yes"/>
      <point x="583" y="0" type="line"/>
      <point x="692" y="0" type="line"/>
      <point x="792" y="944" type="line" smooth="yes"/>
      <point x="811" y="1133"/>
      <point x="738" y="1203"/>
      <point x="633" y="1203" type="curve" smooth="yes"/>
      <point x="524" y="1203"/>
      <point x="420" y="1145"/>
      <point x="336" y="1058" type="curve"/>
      <point x="376" y="1436" type="line"/>
      <point x="618" y="1436" type="line"/>
      <point x="625" y="1506" type="line"/>
      <point x="383" y="1506" type="line"/>
      <point x="399" y="1658" type="line"/>
      <point x="290" y="1658" type="line"/>
      <point x="274" y="1506" type="line"/>
      <point x="140" y="1506" type="line"/>
      <point x="133" y="1436" type="line"/>
      <point x="267" y="1436" type="line"/>
    </contour>
  </outline>
</glyph>
<glyph name="dotlessi" format="1">
  <advance width="372"/>
  <unicode hex="0131"/>
  <outline>
    <contour>
      <point x="133" y="0" type="line"/>
      <point x="242" y="0" type="line"/>
      <point x="366" y="1184" type="line"/>
      <point x="257" y="1184" type="line"/>
    </contour>
  </outline>
</glyph>
<glyph name="kgreenlandic" format="1">
  <advance width="841"/>
  <unicode hex="0138"/>
  <outline>
    <contour>
      <point x="131" y="0" type="line"/>
      <point x="240" y="0" type="line"/>
      <point x="286" y="440" type="line"/>
      <point x="455" y="648" type="line"/>
      <point x="664" y="0" type="line"/>
      <point x="775" y="0" type="line"/>
      <point x="539" y="721" type="line"/>
      <point x="893" y="1184" type="line"/>
      <point x="776" y="1184" type="line"/>
      <point x="299" y="565" type="line"/>
      <point x="364" y="1184" type="line"/>
      <point x="255" y="1184" type="line"/>
    </contour>
  </outline>
</glyph>
<glyph name="Lslash" format="1">
  <advance width="764"/>
  <unicode hex="0141"/>
  <outline>
    <contour>
      <point x="153" y="0" type="line"/>
      <point x="766" y="0" type="line"/>
      <point x="775" y="88" type="line"/>
      <point x="274" y="88" type="line"/>
      <point x="359" y="895" type="line"/>
      <point x="622" y="1024" type="line"/>
      <point x="632" y="1115" type="line"/>
      <point x="369" y="986" type="line"/>
      <point x="439" y="1658" type="line"/>
      <point x="327" y="1658" type="line"/>
      <point x="250" y="926" type="line"/>
      <point x="96" y="850" type="line"/>
      <point x="87" y="759" type="line"/>
      <point x="240" y="835" type="line"/>
    </contour>
  </outline>
</glyph>
<glyph name="lslash" format="1">
  <advance width="505"/>
  <unicode hex="0142"/>
  <outline>
    <contour>
      <point x="198" y="0" type="line"/>
      <point x="307" y="0" type="line"/>
      <point x="412" y="999" type="line"/>
      <point x="544" y="1068" type="line"/>
      <point x="553" y="1162" type="line"/>
      <point x="422" y="1093" type="line"/>
      <point x="481" y="1658" type="line"/>
      <point x="372" y="1658" type="line"/>
      <point x="307" y="1038" type="line"/>
      <point x="173" y="968" type="line"/>
      <point x="164" y="873" type="line"/>
      <point x="297" y="943" type="line"/>
    </contour>
  </outline>
</glyph>
<glyph name="Eng" format="1">
  <advance width="1101"/>
  <unicode hex="014A"/>
  <outline>
    <contour>
      <point x="555" y="-288" type="line"/>
      <point x="617" y="-288" type="line" smooth="yes"/>
      <point x="823" y="-288"/>
      <point x="883" y="-188"/>
      <point x="903" y="0" type="curve" smooth="yes"/>
      <point x="1077" y="1658" type="line"/>
      <point x="982" y="1658" type="line"/>
      <point x="834" y="258" type="line"/>
      <point x="416" y="1658" type="line"/>
      <point x="327" y="1658" type="line"/>
      <point x="153" y="0" type="line"/>
      <point x="248" y="0" type="line"/>
      <point x="396" y="1403" type="line"/>
      <point x="808" y="25" type="line"/>
      <point x="802" y="-29" type="line" smooth="yes"/>
      <point x="787" y="-165"/>
      <point x="746" y="-212"/>
      <point x="563" y="-210" type="curve"/>
    </contour>
  </outline>
</glyph>
<glyph name="eng" format="1">
  <advance width="794"/>
  <unicode hex="014B"/>
  <outline>
    <contour>
      <point x="301" y="-319" type="line"/>
      <point x="328" y="-319" type="line" smooth="yes"/>
      <point x="501" y="-319"/>
      <point x="659" y="-255"/>
      <point x="685" y="-12" type="curve" smooth="yes"/>
      <point x="786" y="944" type="line" smooth="yes"/>
      <point x="806" y="1133"/>
      <point x="732" y="1203"/>
      <point x="627" y="1203" type="curve" smooth="yes"/>
      <point x="519" y="1203"/>
      <point x="414" y="1145"/>
      <point x="330" y="1057" type="curve"/>
      <point x="343" y="1184" type="line"/>
      <point x="234" y="1184" type="line"/>
      <point x="110" y="0" type="line"/>
      <point x="219" y="0" type="line"/>
      <point x="323" y="987" type="line"/>
      <point x="400" y="1064"/>
      <point x="491" y="1118"/>
      <point x="571" y="1118" type="curve" smooth="yes"/>
      <point x="646" y="1118"/>
      <point x="690" y="1077"/>
      <point x="675" y="932" type="curve" smooth="yes"/>
      <point x="576" y="-10" type="line" smooth="yes"/>
      <point x="562" y="-146"/>
      <point x="515" y="-231"/>
      <point x="311" y="-231" type="curve"/>
    </contour>
  </outline>
</glyph>
<glyph name="OE" format="1">
  <advance width="1270"/>
  <unicode hex="0152"/>
  <outline>
    <contour>
      <point x="546" y="0" type="curve" smooth="yes"/>
      <point x="1209" y="0" type="line"/>
      <point x="1219" y="92" type="line"/>
      <point x="814" y="92" type="line"/>
      <point x="890" y="824" type="line"/>
      <point x="1227" y="824" type="line"/>
      <point x="1235" y="911" type="line"/>
      <point x="899" y="911" type="line"/>
      <point x="968" y="1566" type="line"/>
      <point x="1372" y="1566" type="line"/>
      <point x="1381" y="1658" type="line"/>
      <point x="715" y="1658" type="line"/>
      <point x="398" y="1658"/>
      <point x="272" y="1463"/>
      <point x="243" y="1182" type="curve" smooth="yes"/>
      <point x="168" y="468" type="line" smooth="yes"/>
      <point x="139" y="200"/>
      <point x="213" y="0"/>
    </contour>
    <contour>
      <point x="557" y="94" type="line"/>
      <point x="304" y="94"/>
      <point x="256" y="240"/>
      <point x="280" y="468" type="curve" smooth="yes"/>
      <point x="354" y="1176" type="line" smooth="yes"/>
      <point x="379" y="1414"/>
      <point x="453" y="1567"/>
      <point x="711" y="1567" type="curve" smooth="yes"/>
      <point x="858" y="1567" type="line"/>
      <point x="703" y="94" type="line"/>
    </contour>
  </outline>
</glyph>
<glyph name="oe" format="1">
  <advance width="1284"/>
  <unicode hex="0153"/>
  <outline>
    <contour>
      <point x="398" y="-19" type="curve" smooth="yes"/>
      <point x="534" y="-19"/>
      <point x="622" y="46"/>
      <point x="665" y="175" type="curve"/>
      <point x="688" y="30"/>
      <point x="781" y="-18"/>
      <point x="890" y="-19" type="curve" smooth="yes"/>
      <point x="1112" y="-22"/>
      <point x="1199" y="109"/>
      <point x="1220" y="312" type="curve" smooth="yes"/>
      <point x="1230" y="400" type="line"/>
      <point x="1122" y="400" type="line"/>
      <point x="1112" y="310" type="line" smooth="yes"/>
      <point x="1088" y="78"/>
      <point x="982" y="67"/>
      <point x="899" y="68" type="curve" smooth="yes"/>
      <point x="762" y="71"/>
      <point x="718" y="173"/>
      <point x="747" y="457" type="curve" smooth="yes"/>
      <point x="764" y="621" type="line"/>
      <point x="1251" y="621" type="line"/>
      <point x="1265" y="735" type="line" smooth="yes"/>
      <point x="1301" y="1074"/>
      <point x="1240" y="1203"/>
      <point x="1024" y="1203" type="curve" smooth="yes"/>
      <point x="914" y="1203"/>
      <point x="811" y="1165"/>
      <point x="753" y="1020" type="curve"/>
      <point x="736" y="1137"/>
      <point x="661" y="1203"/>
      <point x="527" y="1203" type="curve" smooth="yes"/>
      <point x="291" y="1203"/>
      <point x="212" y="1047"/>
      <point x="181" y="753" type="curve" smooth="yes"/>
      <point x="147" y="431" type="line" smooth="yes"/>
      <point x="116" y="134"/>
      <point x="163" y="-19"/>
    </contour>
    <contour>
      <point x="408" y="68" type="curve" smooth="yes"/>
      <point x="236" y="68"/>
      <point x="232" y="204"/>
      <point x="256" y="431" type="curve" smooth="yes"/>
      <point x="290" y="753" type="line" smooth="yes"/>
      <point x="313" y="980"/>
      <point x="346" y="1116"/>
      <point x="518" y="1116" type="curve" smooth="yes"/>
      <point x="690" y="1116"/>
      <point x="693" y="980"/>
      <point x="670" y="753" type="curve" smooth="yes"/>
      <point x="636" y="431" type="line" smooth="yes"/>
      <point x="612" y="204"/>
      <point x="580" y="68"/>
    </contour>
    <contour>
      <point x="772" y="684" type="line"/>
      <point x="780" y="766" type="line" smooth="yes"/>
      <point x="807" y="1029"/>
      <point x="875" y="1116"/>
      <point x="1012" y="1116" type="curve" smooth="yes"/>
      <point x="1181" y="1116"/>
      <point x="1180" y="962"/>
      <point x="1159" y="756" type="curve" smooth="yes"/>
      <point x="1151" y="684" type="line"/>
    </contour>
  </outline>
</glyph>
<glyph name="Tbar" format="1">
  <advance width="779"/>
  <unicode hex="0166"/>
  <outline>
    <contour>
      <point x="177" y="854" type="line"/>
      <point x="776" y="854" type="line"/>
      <point x="784" y="929" type="line"/>
      <point x="184" y="929" type="line"/>
    </contour>
    <component base="T"/>
  </outline>
</glyph>
<glyph name="florin" format="1">
  <advance width="758"/>
  <unicode hex="0192"/>
  <outline>
    <contour>
      <point x="56" y="-285" type="curve" smooth="yes"/>
      <point x="235" y="-285"/>
      <point x="277" y="-169"/>
      <point x="314" y="-20" type="curve" smooth="yes"/>
      <point x="599" y="1107" type="line"/>
      <point x="795" y="1107" type="line"/>
      <point x="803" y="1184" type="line"/>
      <point x="617" y="1184" type="line"/>
      <point x="658" y="1346" type="line" smooth="yes"/>
      <point x="692" y="1475"/>
      <point x="718" y="1527"/>
      <point x="810" y="1527" type="curve" smooth="yes"/>
      <point x="836" y="1527"/>
      <point x="869" y="1520"/>
      <point x="894" y="1515" type="curve"/>
      <point x="914" y="1598" type="line"/>
      <point x="883" y="1607"/>
      <point x="843" y="1612"/>
      <point x="809" y="1612" type="curve" smooth="yes"/>
      <point x="630" y="1612"/>
      <point x="586" y="1496"/>
      <point x="551" y="1347" type="curve" smooth="yes"/>
      <point x="508" y="1184" type="line"/>
      <point x="340" y="1184" type="line"/>
      <point x="333" y="1107" type="line"/>
      <point x="490" y="1107" type="line"/>
      <point x="206" y="-19" type="line" smooth="yes"/>
      <point x="173" y="-148"/>
      <point x="146" y="-200"/>
      <point x="54" y="-200" type="curve" smooth="yes"/>
      <point x="28" y="-200"/>
      <point x="-5" y="-194"/>
      <point x="-30" y="-188" type="curve"/>
      <point x="-49" y="-271" type="line"/>
      <point x="-19" y="-280"/>
      <point x="22" y="-285"/>
    </contour>
  </outline>
</glyph>
<glyph name="uni0237" format="1">
  <advance width="414"/>
  <unicode hex="0237"/>
  <outline>
    <contour>
      <point x="-65" y="-321" type="line"/>
      <point x="-58" y="-324"/>
      <point x="-15" y="-325"/>
      <point x="-5" y="-325" type="curve" smooth="yes"/>
      <point x="148" y="-325"/>
      <point x="247" y="-256"/>
      <point x="267" y="-66" type="curve" smooth="yes"/>
      <point x="398" y="1184" type="line"/>
      <point x="289" y="1184" type="line"/>
      <point x="159" y="-58" type="line" smooth="yes"/>
      <point x="150" y="-146"/>
      <point x="134" y="-235"/>
      <point x="-9" y="-235" type="curve" smooth="yes"/>
      <point x="-14" y="-235"/>
      <point x="-53" y="-235"/>
      <point x="-56" y="-234" type="curve"/>
    </contour>
  </outline>
</glyph>
<glyph name="circumflex" format="1">
  <advance width="656"/>
  <unicode hex="02C6"/>
  <outline>
    <contour>
      <point x="216" y="1283" type="line"/>
      <point x="296" y="1283" type="line"/>
      <point x="494" y="1604" type="line"/>
      <point x="625" y="1283" type="line"/>
      <point x="701" y="1283" type="line"/>
      <point x="568" y="1658" type="line"/>
      <point x="432" y="1658" type="line"/>
    </contour>
  </outline>
</glyph>
<glyph name="caron" format="1">
  <advance width="567"/>
  <unicode hex="02C7"/>
  <outline>
    <contour>
      <point x="383" y="1326" type="line"/>
      <point x="466" y="1326" type="line"/>
      <point x="675" y="1658" type="line"/>
      <point x="583" y="1658" type="line"/>
      <point x="434" y="1409" type="line"/>
      <point x="338" y="1658" type="line"/>
      <point x="245" y="1658" type="line"/>
    </contour>
  </outline>
</glyph>
<glyph name="breve" format="1">
  <advance width="735"/>
  <unicode hex="02D8"/>
  <outline>
    <contour>
      <point x="519" y="1431" type="curve" smooth="yes"/>
      <point x="657" y="1431"/>
      <point x="756" y="1503"/>
      <point x="778" y="1658" type="curve"/>
      <point x="703" y="1658" type="line"/>
      <point x="683" y="1541"/>
      <point x="611" y="1501"/>
      <point x="526" y="1501" type="curve" smooth="yes"/>
      <point x="441" y="1501"/>
      <point x="378" y="1541"/>
      <point x="387" y="1658" type="curve"/>
      <point x="311" y="1658" type="line"/>
      <point x="302" y="1503"/>
      <point x="382" y="1431"/>
    </contour>
  </outline>
</glyph>
<glyph name="ogonek" format="1">
  <advance width="449"/>
  <unicode hex="02DB"/>
  <outline>
    <contour>
      <point x="287" y="-407" type="curve"/>
      <point x="312" y="-345" type="line"/>
      <point x="214" y="-345"/>
      <point x="130" y="-316"/>
      <point x="138" y="-235" type="curve" smooth="yes"/>
      <point x="146" y="-164"/>
      <point x="216" y="-75"/>
      <point x="302" y="4" type="curve"/>
      <point x="240" y="4" type="line"/>
      <point x="147" y="-43"/>
      <point x="62" y="-147"/>
      <point x="52" y="-244" type="curve" smooth="yes"/>
      <point x="41" y="-351"/>
      <point x="119" y="-407"/>
    </contour>
  </outline>
</glyph>
<glyph name="tilde" format="1">
  <advance width="743"/>
  <unicode hex="02DC"/>
  <outline>
    <contour>
      <point x="614" y="1493" type="curve" smooth="yes"/>
      <point x="752" y="1479"/>
      <point x="780" y="1610"/>
      <point x="785" y="1658" type="curve"/>
      <point x="715" y="1658" type="line"/>
      <point x="706" y="1588"/>
      <point x="675" y="1560"/>
      <point x="626" y="1567" type="curve" smooth="yes"/>
      <point x="580" y="1573"/>
      <point x="522" y="1652"/>
      <point x="456" y="1661" type="curve" smooth="yes"/>
      <point x="322" y="1683"/>
      <point x="288" y="1545"/>
      <point x="284" y="1507" type="curve"/>
      <point x="359" y="1507" type="line"/>
      <point x="365" y="1569"/>
      <point x="400" y="1597"/>
      <point x="443" y="1586" type="curve" smooth="yes"/>
      <point x="490" y="1578"/>
      <point x="544" y="1499"/>
    </contour>
  </outline>
</glyph>
<glyph name="hungarumlaut" format="1">
  <advance width="536"/>
  <unicode hex="02DD"/>
  <outline>
    <contour>
      <point x="289" y="1366" type="line"/>
      <point x="349" y="1366" type="line"/>
      <point x="509" y="1680" type="line"/>
      <point x="399" y="1680" type="line"/>
    </contour>
    <contour>
      <point x="469" y="1366" type="line"/>
      <point x="532" y="1366" type="line"/>
      <point x="740" y="1680" type="line"/>
      <point x="614" y="1680" type="line"/>
    </contour>
  </outline>
</glyph>
<glyph name="gravecomb" format="1">
  <advance width="0"/>
  <unicode hex="0300"/>
  <outline>
    <contour>
      <point x="205" y="1261" type="line"/>
      <point x="263" y="1261" type="line"/>
      <point x="192" y="1658" type="line"/>
      <point x="82" y="1658" type="line"/>
    </contour>
  </outline>
</glyph>
<glyph name="acutecomb" format="1">
  <advance width="268"/>
  <unicode hex="0301"/>
  <outline>
    <contour>
      <point x="174" y="1261" type="line"/>
      <point x="231" y="1261" type="line"/>
      <point x="457" y="1658" type="line"/>
      <point x="347" y="1658" type="line"/>
    </contour>
  </outline>
</glyph>
<glyph name="uni0302" format="1">
  <advance width="656"/>
  <unicode hex="0302"/>
  <outline>
    <contour>
      <point x="217" y="1291" type="line"/>
      <point x="296" y="1291" type="line"/>
      <point x="494" y="1604" type="line"/>
      <point x="626" y="1291" type="line"/>
      <point x="702" y="1291" type="line"/>
      <point x="568" y="1658" type="line"/>
      <point x="432" y="1658" type="line"/>
    </contour>
  </outline>
</glyph>
<glyph name="uni0306" format="1">
  <advance width="735"/>
  <unicode hex="0306"/>
  <outline>
    <contour>
      <point x="519" y="1431" type="curve" smooth="yes"/>
      <point x="657" y="1431"/>
      <point x="761" y="1503"/>
      <point x="784" y="1658" type="curve"/>
      <point x="708" y="1658" type="line"/>
      <point x="688" y="1541"/>
      <point x="611" y="1501"/>
      <point x="526" y="1501" type="curve" smooth="yes"/>
      <point x="441" y="1501"/>
      <point x="373" y="1541"/>
      <point x="381" y="1658" type="curve"/>
      <point x="306" y="1658" type="line"/>
      <point x="297" y="1503"/>
      <point x="382" y="1431"/>
    </contour>
  </outline>
</glyph>
<glyph name="uni0308" format="1">
  <advance width="215"/>
  <unicode hex="0308"/>
  <outline>
    <contour>
      <point x="46" y="1504" type="line"/>
      <point x="159" y="1504" type="line"/>
      <point x="175" y="1658" type="line"/>
      <point x="62" y="1658" type="line"/>
    </contour>
    <contour>
      <point x="373" y="1504" type="line"/>
      <point x="486" y="1504" type="line"/>
      <point x="502" y="1658" type="line"/>
      <point x="389" y="1658" type="line"/>
    </contour>
  </outline>
</glyph>
<glyph name="uni030A" format="1">
  <advance width="589"/>
  <unicode hex="030A"/>
  <outline>
    <contour>
      <point x="434" y="1330" type="curve" smooth="yes"/>
      <point x="520" y="1330"/>
      <point x="616" y="1381"/>
      <point x="629" y="1504" type="curve" smooth="yes"/>
      <point x="642" y="1627"/>
      <point x="556" y="1678"/>
      <point x="471" y="1678" type="curve" smooth="yes"/>
      <point x="384" y="1678"/>
      <point x="290" y="1627"/>
      <point x="276" y="1504" type="curve" smooth="yes"/>
      <point x="264" y="1381"/>
      <point x="348" y="1330"/>
    </contour>
    <contour>
      <point x="442" y="1393" type="curve" smooth="yes"/>
      <point x="387" y="1393"/>
      <point x="337" y="1424"/>
      <point x="345" y="1504" type="curve" smooth="yes"/>
      <point x="353" y="1585"/>
      <point x="409" y="1616"/>
      <point x="464" y="1616" type="curve" smooth="yes"/>
      <point x="520" y="1616"/>
      <point x="570" y="1585"/>
      <point x="562" y="1504" type="curve" smooth="yes"/>
      <point x="554" y="1424"/>
      <point x="496" y="1393"/>
    </contour>
  </outline>
</glyph>
<glyph name="uni030C" format="1">
  <advance width="0"/>
  <unicode hex="030C"/>
  <outline>
    <contour>
      <point x="120" y="1326" type="line"/>
      <point x="203" y="1326" type="line"/>
      <point x="412" y="1658" type="line"/>
      <point x="320" y="1658" type="line"/>
      <point x="171" y="1409" type="line"/>
      <point x="75" y="1658" type="line"/>
      <point x="-18" y="1658" type="line"/>
    </contour>
  </outline>
</glyph>
<glyph name="uni0311" format="1">
  <advance width="735"/>
  <unicode hex="0311"/>
  <outline>
    <contour>
      <point x="287" y="1431" type="curve"/>
      <point x="363" y="1431" type="line"/>
      <point x="382" y="1548"/>
      <point x="454" y="1588"/>
      <point x="540" y="1588" type="curve" smooth="yes"/>
      <point x="625" y="1588"/>
      <point x="687" y="1548"/>
      <point x="679" y="1431" type="curve"/>
      <point x="755" y="1431" type="line"/>
      <point x="764" y="1586"/>
      <point x="684" y="1658"/>
      <point x="547" y="1658" type="curve" smooth="yes"/>
      <point x="409" y="1658"/>
      <point x="310" y="1586"/>
    </contour>
  </outline>
</glyph>
<glyph name="uni0326" format="1">
  <advance width="449"/>
  <unicode hex="0326"/>
  <outline>
    <contour>
      <point x="125" y="-455" type="line"/>
      <point x="222" y="-410"/>
      <point x="254" y="-340"/>
      <point x="268" y="-213" type="curve" smooth="yes"/>
      <point x="282" y="-85" type="line"/>
      <point x="149" y="-85" type="line"/>
      <point x="133" y="-239" type="line"/>
      <point x="205" y="-239" type="line"/>
      <point x="200" y="-283"/>
      <point x="179" y="-365"/>
      <point x="102" y="-412" type="curve"/>
    </contour>
  </outline>
</glyph>
<glyph name="afii10051" format="1">
  <advance width="992"/>
  <unicode hex="0402"/>
  <outline>
    <contour>
      <point x="506" y="0" type="line"/>
      <point x="525" y="0" type="line" smooth="yes"/>
      <point x="772" y="0"/>
      <point x="911" y="115"/>
      <point x="938" y="377" type="curve" smooth="yes"/>
      <point x="968" y="666" type="line" smooth="yes"/>
      <point x="992" y="893"/>
      <point x="845" y="979"/>
      <point x="695" y="979" type="curve" smooth="yes"/>
      <point x="603" y="979"/>
      <point x="508" y="945"/>
      <point x="455" y="895" type="curve"/>
      <point x="525" y="1569" type="line"/>
      <point x="845" y="1569" type="line"/>
      <point x="854" y="1658" type="line"/>
      <point x="120" y="1658" type="line"/>
      <point x="111" y="1569" type="line"/>
      <point x="414" y="1569" type="line"/>
      <point x="250" y="0" type="line"/>
      <point x="360" y="0" type="line"/>
      <point x="446" y="820" type="line"/>
      <point x="514" y="868"/>
      <point x="596" y="895"/>
      <point x="669" y="895" type="curve" smooth="yes"/>
      <point x="789" y="895"/>
      <point x="874" y="820"/>
      <point x="859" y="669" type="curve" smooth="yes"/>
      <point x="828" y="379" type="line" smooth="yes"/>
      <point x="808" y="189"/>
      <point x="731" y="86"/>
      <point x="516" y="86" type="curve"/>
    </contour>
  </outline>
</glyph>
<glyph name="afii10058" format="1">
  <advance width="1658"/>
  <unicode hex="0409"/>
  <outline>
    <contour>
      <point x="43" y="-5" type="line"/>
      <point x="68" y="-6" type="line" smooth="yes"/>
      <point x="352" y="-9"/>
      <point x="400" y="184"/>
      <point x="497" y="713" type="curve" smooth="yes"/>
      <point x="658" y="1572" type="line"/>
      <point x="1035" y="1572" type="line"/>
      <point x="869" y="0" type="line"/>
      <point x="1162" y="0" type="line" smooth="yes"/>
      <point x="1483" y="0"/>
      <point x="1622" y="194"/>
      <point x="1651" y="470" type="curve" smooth="yes"/>
      <point x="1686" y="795"/>
      <point x="1564" y="959"/>
      <point x="1258" y="959" type="curve" smooth="yes"/>
      <point x="1082" y="959" type="line"/>
      <point x="1156" y="1658" type="line"/>
      <point x="562" y="1658" type="line"/>
      <point x="391" y="713" type="line" smooth="yes"/>
      <point x="296" y="202"/>
      <point x="271" y="80"/>
      <point x="52" y="84" type="curve"/>
    </contour>
    <contour>
      <point x="991" y="91" type="line"/>
      <point x="1073" y="868" type="line"/>
      <point x="1255" y="868" type="line" smooth="yes"/>
      <point x="1498" y="868"/>
      <point x="1565" y="719"/>
      <point x="1539" y="472" type="curve" smooth="yes"/>
      <point x="1513" y="225"/>
      <point x="1416" y="91"/>
      <point x="1174" y="91" type="curve" smooth="yes"/>
    </contour>
  </outline>
</glyph>
<glyph name="afii10059" format="1">
  <advance width="1533"/>
  <unicode hex="040A"/>
  <outline>
    <contour>
      <point x="1043" y="0" type="line"/>
      <point x="1364" y="0"/>
      <point x="1503" y="194"/>
      <point x="1532" y="470" type="curve" smooth="yes"/>
      <point x="1566" y="795"/>
      <point x="1445" y="959"/>
      <point x="1139" y="959" type="curve" smooth="yes"/>
      <point x="964" y="959" type="line"/>
      <point x="1037" y="1659" type="line"/>
      <point x="925" y="1659" type="line"/>
      <point x="851" y="953" type="line"/>
      <point x="366" y="953" type="line"/>
      <point x="439" y="1659" type="line"/>
      <point x="327" y="1659" type="line"/>
      <point x="153" y="1" type="line"/>
      <point x="265" y="1" type="line"/>
      <point x="356" y="868" type="line"/>
      <point x="842" y="868" type="line"/>
      <point x="751" y="1" type="line"/>
    </contour>
    <contour>
      <point x="873" y="91" type="line"/>
      <point x="954" y="868" type="line"/>
      <point x="1136" y="868" type="line" smooth="yes"/>
      <point x="1379" y="868"/>
      <point x="1445" y="719"/>
      <point x="1419" y="472" type="curve" smooth="yes"/>
      <point x="1393" y="225"/>
      <point x="1297" y="91"/>
      <point x="1055" y="91" type="curve" smooth="yes"/>
    </contour>
  </outline>
</glyph>
<glyph name="afii10060" format="1">
  <advance width="898"/>
  <unicode hex="040B"/>
  <outline>
    <contour>
      <point x="217" y="0" type="line"/>
      <point x="328" y="0" type="line"/>
      <point x="414" y="818" type="line"/>
      <point x="476" y="870"/>
      <point x="552" y="910"/>
      <point x="637" y="910" type="curve" smooth="yes"/>
      <point x="713" y="910"/>
      <point x="772" y="878"/>
      <point x="760" y="759" type="curve" smooth="yes"/>
      <point x="680" y="0" type="line"/>
      <point x="789" y="0" type="line"/>
      <point x="870" y="769" type="line" smooth="yes"/>
      <point x="887" y="931"/>
      <point x="774" y="980"/>
      <point x="669" y="980" type="curve" smooth="yes"/>
      <point x="559" y="980"/>
      <point x="469" y="933"/>
      <point x="423" y="893" type="curve"/>
      <point x="493" y="1569" type="line"/>
      <point x="830" y="1569" type="line"/>
      <point x="839" y="1658" type="line"/>
      <point x="59" y="1658" type="line"/>
      <point x="49" y="1569" type="line"/>
      <point x="382" y="1569" type="line"/>
    </contour>
  </outline>
</glyph>
<glyph name="afii10145" format="1">
  <advance width="1047"/>
  <unicode hex="040F"/>
  <outline>
    <contour>
      <point x="468" y="-275" type="line"/>
      <point x="555" y="-275" type="line"/>
      <point x="594" y="0" type="line"/>
      <point x="894" y="0" type="line"/>
      <point x="1068" y="1658" type="line"/>
      <point x="956" y="1658" type="line"/>
      <point x="790" y="85" type="line"/>
      <point x="274" y="85" type="line"/>
      <point x="439" y="1658" type="line"/>
      <point x="327" y="1658" type="line"/>
      <point x="153" y="0" type="line"/>
      <point x="486" y="0" type="line"/>
    </contour>
  </outline>
</glyph>
<glyph name="afii10017" format="1">
  <advance width="938"/>
  <unicode hex="0410"/>
  <outline>
    <contour>
      <point x="55" y="0" type="line"/>
      <point x="166" y="0" type="line"/>
      <point x="303" y="458" type="line"/>
      <point x="733" y="458" type="line"/>
      <point x="771" y="0" type="line"/>
      <point x="883" y="0" type="line"/>
      <point x="706" y="1658" type="line"/>
      <point x="578" y="1658" type="line"/>
    </contour>
    <contour>
      <point x="328" y="541" type="line"/>
      <point x="629" y="1523" type="line"/>
      <point x="726" y="541" type="line"/>
    </contour>
  </outline>
</glyph>
<glyph name="afii10018" format="1">
  <advance width="962"/>
  <unicode hex="0411"/>
  <outline>
    <contour>
      <point x="152" y="0" type="line"/>
      <point x="450" y="0" type="line" smooth="yes"/>
      <point x="772" y="0"/>
      <point x="911" y="194"/>
      <point x="940" y="470" type="curve" smooth="yes"/>
      <point x="974" y="795"/>
      <point x="852" y="959"/>
      <point x="547" y="959" type="curve" smooth="yes"/>
      <point x="365" y="959" type="line"/>
      <point x="430" y="1573" type="line"/>
      <point x="955" y="1573" type="line"/>
      <point x="965" y="1658" type="line"/>
      <point x="326" y="1658" type="line"/>
    </contour>
    <contour>
      <point x="274" y="91" type="line"/>
      <point x="355" y="868" type="line"/>
      <point x="543" y="868" type="line" smooth="yes"/>
      <point x="787" y="868"/>
      <point x="853" y="719"/>
      <point x="827" y="472" type="curve" smooth="yes"/>
      <point x="801" y="225"/>
      <point x="705" y="91"/>
      <point x="463" y="91" type="curve" smooth="yes"/>
    </contour>
  </outline>
</glyph>
<glyph name="afii10019" format="1">
  <advance width="1000"/>
  <unicode hex="0412"/>
  <outline>
    <contour>
      <point x="153" y="0" type="line"/>
      <point x="545" y="0" type="line" smooth="yes"/>
      <point x="864" y="0"/>
      <point x="939" y="233"/>
      <point x="966" y="483" type="curve" smooth="yes"/>
      <point x="982" y="630"/>
      <point x="966" y="837"/>
      <point x="778" y="894" type="curve"/>
      <point x="943" y="934"/>
      <point x="996" y="1112"/>
      <point x="1010" y="1245" type="curve" smooth="yes"/>
      <point x="1034" y="1475"/>
      <point x="974" y="1658"/>
      <point x="669" y="1658" type="curve" smooth="yes"/>
      <point x="327" y="1658" type="line"/>
    </contour>
    <contour>
      <point x="274" y="88" type="line"/>
      <point x="354" y="843" type="line"/>
      <point x="635" y="843" type="line" smooth="yes"/>
      <point x="834" y="843"/>
      <point x="877" y="679"/>
      <point x="857" y="482" type="curve" smooth="yes"/>
      <point x="828" y="213"/>
      <point x="759" y="88"/>
      <point x="541" y="88" type="curve" smooth="yes"/>
    </contour>
    <contour>
      <point x="363" y="931" type="line"/>
      <point x="430" y="1569" type="line"/>
      <point x="635" y="1569" type="line" smooth="yes"/>
      <point x="894" y="1569"/>
      <point x="926" y="1430"/>
      <point x="906" y="1245" type="curve" smooth="yes"/>
      <point x="888" y="1074"/>
      <point x="826" y="931"/>
      <point x="642" y="931" type="curve" smooth="yes"/>
    </contour>
  </outline>
</glyph>
<glyph name="afii10021" format="1">
  <advance width="1156"/>
  <unicode hex="0414"/>
  <outline>
    <contour>
      <point x="-11" y="-275" type="line"/>
      <point x="79" y="-275" type="line"/>
      <point x="120" y="0" type="line"/>
      <point x="994" y="0" type="line"/>
      <point x="977" y="-275" type="line"/>
      <point x="1066" y="-275" type="line"/>
      <point x="1105" y="87" type="line"/>
      <point x="984" y="87" type="line"/>
      <point x="1148" y="1658" type="line"/>
      <point x="565" y="1658" type="line"/>
      <point x="464" y="1094" type="line" smooth="yes"/>
      <point x="303" y="204"/>
      <point x="235" y="174"/>
      <point x="86" y="87" type="curve"/>
      <point x="28" y="87" type="line"/>
    </contour>
    <contour>
      <point x="212" y="87" type="line"/>
      <point x="333" y="162"/>
      <point x="406" y="189"/>
      <point x="567" y="1073" type="curve" smooth="yes"/>
      <point x="659" y="1572" type="line"/>
      <point x="1027" y="1572" type="line"/>
      <point x="871" y="87" type="line"/>
    </contour>
  </outline>
</glyph>
<glyph name="afii10022" format="1">
  <advance width="783"/>
  <unicode hex="0415"/>
  <outline>
    <contour>
      <point x="152" y="0" type="line"/>
      <point x="731" y="0" type="line"/>
      <point x="740" y="88" type="line"/>
      <point x="274" y="88" type="line"/>
      <point x="350" y="817" type="line"/>
      <point x="729" y="817" type="line"/>
      <point x="738" y="904" type="line"/>
      <point x="359" y="904" type="line"/>
      <point x="429" y="1569" type="line"/>
      <point x="890" y="1569" type="line"/>
      <point x="900" y="1658" type="line"/>
      <point x="326" y="1658" type="line"/>
    </contour>
  </outline>
</glyph>
<glyph name="afii10024" format="1">
  <advance width="1258"/>
  <unicode hex="0416"/>
  <outline>
    <contour>
      <point x="43" y="0" type="line"/>
      <point x="154" y="0" type="line"/>
      <point x="645" y="844" type="line"/>
      <point x="666" y="844" type="line"/>
      <point x="578" y="0" type="line"/>
      <point x="680" y="0" type="line"/>
      <point x="768" y="844" type="line"/>
      <point x="790" y="844" type="line"/>
      <point x="1104" y="0" type="line"/>
      <point x="1214" y="0" type="line"/>
      <point x="879" y="866" type="line"/>
      <point x="1349" y="1658" type="line"/>
      <point x="1242" y="1658" type="line"/>
      <point x="787" y="873" type="line"/>
      <point x="771" y="873" type="line"/>
      <point x="854" y="1658" type="line"/>
      <point x="752" y="1658" type="line"/>
      <point x="669" y="873" type="line"/>
      <point x="654" y="873" type="line"/>
      <point x="364" y="1658" type="line"/>
      <point x="256" y="1658" type="line"/>
      <point x="561" y="866" type="line"/>
    </contour>
  </outline>
</glyph>
<glyph name="afii10025" format="1">
  <advance width="942"/>
  <unicode hex="0417"/>
  <outline>
    <contour>
      <point x="484" y="-22" type="curve" smooth="yes"/>
      <point x="760" y="-22"/>
      <point x="889" y="169"/>
      <point x="918" y="443" type="curve" smooth="yes"/>
      <point x="948" y="729"/>
      <point x="823" y="837"/>
      <point x="720" y="862" type="curve"/>
      <point x="857" y="889"/>
      <point x="978" y="1017"/>
      <point x="1004" y="1268" type="curve" smooth="yes"/>
      <point x="1029" y="1500"/>
      <point x="930" y="1677"/>
      <point x="676" y="1677" type="curve" smooth="yes"/>
      <point x="400" y="1677"/>
      <point x="285" y="1522"/>
      <point x="261" y="1291" type="curve" smooth="yes"/>
      <point x="258" y="1264" type="line"/>
      <point x="362" y="1264" type="line"/>
      <point x="362" y="1269"/>
      <point x="364" y="1289"/>
      <point x="365" y="1294" type="curve" smooth="yes"/>
      <point x="391" y="1511"/>
      <point x="494" y="1590"/>
      <point x="671" y="1590" type="curve" smooth="yes"/>
      <point x="858" y="1590"/>
      <point x="913" y="1456"/>
      <point x="893" y="1270" type="curve" smooth="yes"/>
      <point x="867" y="1025"/>
      <point x="777" y="907"/>
      <point x="565" y="904" type="curve" smooth="yes"/>
      <point x="561" y="904"/>
      <point x="467" y="904"/>
      <point x="462" y="904" type="curve"/>
      <point x="453" y="821" type="line"/>
      <point x="459" y="821"/>
      <point x="553" y="821"/>
      <point x="557" y="821" type="curve" smooth="yes"/>
      <point x="768" y="816"/>
      <point x="829" y="660"/>
      <point x="806" y="440" type="curve" smooth="yes"/>
      <point x="774" y="145"/>
      <point x="647" y="66"/>
      <point x="494" y="66" type="curve" smooth="yes"/>
      <point x="323" y="66"/>
      <point x="261" y="171"/>
      <point x="280" y="361" type="curve" smooth="yes"/>
      <point x="280" y="366"/>
      <point x="283" y="394"/>
      <point x="283" y="399" type="curve"/>
      <point x="181" y="399" type="line"/>
      <point x="178" y="368" type="line" smooth="yes"/>
      <point x="153" y="134"/>
      <point x="233" y="-22"/>
    </contour>
  </outline>
</glyph>
<glyph name="afii10026" format="1">
  <advance width="1064"/>
  <unicode hex="0418"/>
  <outline>
    <contour>
      <point x="152" y="0" type="line"/>
      <point x="246" y="0" type="line"/>
      <point x="961" y="1413" type="line"/>
      <point x="812" y="0" type="line"/>
      <point x="912" y="0" type="line"/>
      <point x="1086" y="1658" type="line"/>
      <point x="994" y="1658" type="line"/>
      <point x="277" y="245" type="line"/>
      <point x="426" y="1658" type="line"/>
      <point x="326" y="1658" type="line"/>
    </contour>
  </outline>
</glyph>
<glyph name="afii10028" format="1">
  <advance width="960"/>
  <unicode hex="041A"/>
  <outline>
    <contour>
      <point x="152" y="0" type="line"/>
      <point x="264" y="0" type="line"/>
      <point x="350" y="815" type="line"/>
      <point x="488" y="815" type="line"/>
      <point x="830" y="0" type="line"/>
      <point x="943" y="0" type="line"/>
      <point x="590" y="854" type="line"/>
      <point x="1054" y="1658" type="line"/>
      <point x="939" y="1658" type="line"/>
      <point x="495" y="881" type="line"/>
      <point x="357" y="881" type="line"/>
      <point x="438" y="1658" type="line"/>
      <point x="326" y="1658" type="line"/>
    </contour>
  </outline>
</glyph>
<glyph name="afii10029" format="1">
  <advance width="1141"/>
  <unicode hex="041B"/>
  <outline>
    <contour>
      <point x="50" y="-5" type="line"/>
      <point x="381" y="3"/>
      <point x="391" y="107"/>
      <point x="569" y="1040" type="curve" smooth="yes"/>
      <point x="665" y="1572" type="line"/>
      <point x="1042" y="1572" type="line"/>
      <point x="877" y="0" type="line"/>
      <point x="989" y="0" type="line"/>
      <point x="1163" y="1658" type="line"/>
      <point x="570" y="1658" type="line"/>
      <point x="460" y="1041" type="line" smooth="yes"/>
      <point x="285" y="107"/>
      <point x="281" y="97"/>
      <point x="60" y="84" type="curve"/>
    </contour>
  </outline>
</glyph>
<glyph name="afii10031" format="1">
  <advance width="1109"/>
  <unicode hex="041D"/>
  <outline>
    <contour>
      <point x="152" y="0" type="line"/>
      <point x="264" y="0" type="line"/>
      <point x="351" y="826" type="line"/>
      <point x="932" y="826" type="line"/>
      <point x="845" y="0" type="line"/>
      <point x="957" y="0" type="line"/>
      <point x="1131" y="1658" type="line"/>
      <point x="1019" y="1658" type="line"/>
      <point x="940" y="911" type="line"/>
      <point x="360" y="911" type="line"/>
      <point x="438" y="1658" type="line"/>
      <point x="326" y="1658" type="line"/>
    </contour>
  </outline>
</glyph>
<glyph name="afii10032" format="1">
  <advance width="1071"/>
  <unicode hex="041E"/>
  <outline>
    <contour>
      <point x="542" y="70" type="curve" smooth="yes"/>
      <point x="304" y="70"/>
      <point x="255" y="222"/>
      <point x="278" y="447" type="curve" smooth="yes"/>
      <point x="358" y="1212" type="line" smooth="yes"/>
      <point x="382" y="1438"/>
      <point x="464" y="1586"/>
      <point x="702" y="1586" type="curve" smooth="yes"/>
      <point x="941" y="1586"/>
      <point x="990" y="1437"/>
      <point x="967" y="1212" type="curve" smooth="yes"/>
      <point x="887" y="447" type="line" smooth="yes"/>
      <point x="863" y="222"/>
      <point x="780" y="70"/>
    </contour>
    <contour>
      <point x="533" y="-22" type="curve" smooth="yes"/>
      <point x="855" y="-22"/>
      <point x="972" y="186"/>
      <point x="1001" y="469" type="curve" smooth="yes"/>
      <point x="1078" y="1196" type="line" smooth="yes"/>
      <point x="1107" y="1477"/>
      <point x="1025" y="1677"/>
      <point x="711" y="1677" type="curve" smooth="yes"/>
      <point x="397" y="1677"/>
      <point x="273" y="1478"/>
      <point x="244" y="1196" type="curve" smooth="yes"/>
      <point x="168" y="472" type="line" smooth="yes"/>
      <point x="138" y="188"/>
      <point x="208" y="-22"/>
    </contour>
  </outline>
</glyph>
<glyph name="afii10033" format="1">
  <advance width="1116"/>
  <unicode hex="041F"/>
  <outline>
    <contour>
      <point x="153" y="0" type="line"/>
      <point x="265" y="0" type="line"/>
      <point x="431" y="1573" type="line"/>
      <point x="1016" y="1573" type="line"/>
      <point x="851" y="0" type="line"/>
      <point x="963" y="0" type="line"/>
      <point x="1137" y="1658" type="line"/>
      <point x="327" y="1658" type="line"/>
    </contour>
  </outline>
</glyph>
<glyph name="afii10034" format="1">
  <advance width="977"/>
  <unicode hex="0420"/>
  <outline>
    <contour>
      <point x="153" y="0" type="line"/>
      <point x="265" y="0" type="line"/>
      <point x="348" y="792" type="line"/>
      <point x="628" y="792" type="line" smooth="yes"/>
      <point x="923" y="792"/>
      <point x="1034" y="1010"/>
      <point x="1058" y="1230" type="curve" smooth="yes"/>
      <point x="1084" y="1477"/>
      <point x="1015" y="1658"/>
      <point x="716" y="1658" type="curve" smooth="yes"/>
      <point x="327" y="1658" type="line"/>
    </contour>
    <contour>
      <point x="358" y="879" type="line"/>
      <point x="431" y="1572" type="line"/>
      <point x="687" y="1572" type="line" smooth="yes"/>
      <point x="900" y="1572"/>
      <point x="972" y="1497"/>
      <point x="944" y="1230" type="curve" smooth="yes"/>
      <point x="917" y="972"/>
      <point x="813" y="879"/>
      <point x="613" y="879" type="curve" smooth="yes"/>
    </contour>
  </outline>
</glyph>
<glyph name="afii10035" format="1">
  <advance width="995"/>
  <unicode hex="0421"/>
  <outline>
    <contour>
      <point x="520" y="-22" type="curve" smooth="yes"/>
      <point x="819" y="-22"/>
      <point x="920" y="181"/>
      <point x="950" y="464" type="curve" smooth="yes"/>
      <point x="958" y="546" type="line"/>
      <point x="852" y="546" type="line"/>
      <point x="842" y="446" type="line" smooth="yes"/>
      <point x="818" y="219"/>
      <point x="751" y="70"/>
      <point x="530" y="70" type="curve" smooth="yes"/>
      <point x="300" y="70"/>
      <point x="253" y="215"/>
      <point x="280" y="460" type="curve" smooth="yes"/>
      <point x="356" y="1194" type="line" smooth="yes"/>
      <point x="381" y="1427"/>
      <point x="449" y="1586"/>
      <point x="690" y="1586" type="curve" smooth="yes"/>
      <point x="907" y="1586"/>
      <point x="947" y="1446"/>
      <point x="923" y="1211" type="curve" smooth="yes"/>
      <point x="913" y="1126" type="line"/>
      <point x="1019" y="1126" type="line"/>
      <point x="1028" y="1210" type="line" smooth="yes"/>
      <point x="1058" y="1492"/>
      <point x="987" y="1677"/>
      <point x="699" y="1677" type="curve" smooth="yes"/>
      <point x="380" y="1677"/>
      <point x="273" y="1467"/>
      <point x="243" y="1181" type="curve" smooth="yes"/>
      <point x="169" y="478" type="line" smooth="yes"/>
      <point x="139" y="200"/>
      <point x="192" y="-22"/>
    </contour>
  </outline>
</glyph>
<glyph name="afii10036" format="1">
  <advance width="766"/>
  <unicode hex="0422"/>
  <outline>
    <contour>
      <point x="359" y="0" type="line"/>
      <point x="471" y="0" type="line"/>
      <point x="636" y="1569" type="line"/>
      <point x="980" y="1569" type="line"/>
      <point x="989" y="1658" type="line"/>
      <point x="182" y="1658" type="line"/>
      <point x="173" y="1569" type="line"/>
      <point x="524" y="1569" type="line"/>
    </contour>
  </outline>
</glyph>
<glyph name="afii10037" format="1">
  <advance width="926"/>
  <unicode hex="0423"/>
  <outline>
    <contour>
      <point x="105" y="-190" type="line"/>
      <point x="451" y="-197"/>
      <point x="472" y="-111"/>
      <point x="576" y="214" type="curve" smooth="yes"/>
      <point x="1057" y="1658" type="line"/>
      <point x="945" y="1658" type="line"/>
      <point x="700" y="896" type="line"/>
      <point x="530" y="354" type="line"/>
      <point x="461" y="892" type="line"/>
      <point x="352" y="1658" type="line"/>
      <point x="242" y="1658" type="line"/>
      <point x="461" y="223" type="line" smooth="yes"/>
      <point x="405" y="-47"/>
      <point x="384" y="-107"/>
      <point x="116" y="-102" type="curve"/>
    </contour>
  </outline>
</glyph>
<glyph name="afii10038" format="1">
  <advance width="1215"/>
  <unicode hex="0424"/>
  <outline>
    <contour>
      <point x="537" y="-114" type="line"/>
      <point x="649" y="-114" type="line"/>
      <point x="681" y="185" type="line"/>
      <point x="708" y="182"/>
      <point x="765" y="180"/>
      <point x="783" y="180" type="curve"/>
      <point x="1004" y="173"/>
      <point x="1130" y="310"/>
      <point x="1160" y="595" type="curve" smooth="yes"/>
      <point x="1211" y="1079" type="line" smooth="yes"/>
      <point x="1241" y="1370"/>
      <point x="1143" y="1521"/>
      <point x="915" y="1517" type="curve"/>
      <point x="900" y="1517"/>
      <point x="846" y="1515"/>
      <point x="820" y="1513" type="curve"/>
      <point x="851" y="1808" type="line"/>
      <point x="739" y="1808" type="line"/>
      <point x="708" y="1512" type="line"/>
      <point x="686" y="1514"/>
      <point x="640" y="1515"/>
      <point x="628" y="1515" type="curve"/>
      <point x="395" y="1519"/>
      <point x="262" y="1370"/>
      <point x="232" y="1079" type="curve" smooth="yes"/>
      <point x="181" y="595" type="line" smooth="yes"/>
      <point x="151" y="308"/>
      <point x="248" y="174"/>
      <point x="469" y="180" type="curve"/>
      <point x="487" y="180"/>
      <point x="540" y="182"/>
      <point x="568" y="184" type="curve"/>
    </contour>
    <contour>
      <point x="494" y="256" type="curve" smooth="yes"/>
      <point x="312" y="252"/>
      <point x="263" y="364"/>
      <point x="287" y="595" type="curve" smooth="yes"/>
      <point x="338" y="1079" type="line" smooth="yes"/>
      <point x="363" y="1313"/>
      <point x="440" y="1443"/>
      <point x="627" y="1440" type="curve" smooth="yes"/>
      <point x="640" y="1440"/>
      <point x="676" y="1439"/>
      <point x="700" y="1436" type="curve"/>
      <point x="576" y="260" type="line"/>
      <point x="549" y="257"/>
      <point x="509" y="256"/>
    </contour>
    <contour>
      <point x="775" y="256" type="curve" smooth="yes"/>
      <point x="758" y="256"/>
      <point x="715" y="257"/>
      <point x="689" y="260" type="curve"/>
      <point x="812" y="1436" type="line"/>
      <point x="837" y="1438"/>
      <point x="877" y="1440"/>
      <point x="891" y="1440" type="curve" smooth="yes"/>
      <point x="1079" y="1443"/>
      <point x="1129" y="1313"/>
      <point x="1104" y="1079" type="curve" smooth="yes"/>
      <point x="1053" y="595" type="line" smooth="yes"/>
      <point x="1029" y="364"/>
      <point x="956" y="252"/>
    </contour>
  </outline>
</glyph>
<glyph name="afii10039" format="1">
  <advance width="926"/>
  <unicode hex="0425"/>
  <outline>
    <contour>
      <point x="30" y="0" type="line"/>
      <point x="142" y="0" type="line"/>
      <point x="526" y="746" type="line"/>
      <point x="788" y="0" type="line"/>
      <point x="896" y="0" type="line"/>
      <point x="598" y="843" type="line"/>
      <point x="1063" y="1659" type="line"/>
      <point x="952" y="1659" type="line"/>
      <point x="561" y="951" type="line"/>
      <point x="309" y="1659" type="line"/>
      <point x="207" y="1659" type="line"/>
      <point x="486" y="862" type="line"/>
    </contour>
  </outline>
</glyph>
<glyph name="afii10041" format="1">
  <advance width="1034"/>
  <unicode hex="0427"/>
  <outline>
    <contour>
      <point x="769" y="0" type="line"/>
      <point x="881" y="0" type="line"/>
      <point x="1055" y="1658" type="line"/>
      <point x="943" y="1658" type="line"/>
      <point x="858" y="853" type="line"/>
      <point x="795" y="831"/>
      <point x="712" y="816"/>
      <point x="627" y="816" type="curve" smooth="yes"/>
      <point x="447" y="816"/>
      <point x="310" y="867"/>
      <point x="334" y="1092" type="curve" smooth="yes"/>
      <point x="393" y="1658" type="line"/>
      <point x="287" y="1658" type="line"/>
      <point x="228" y="1091" type="line" smooth="yes"/>
      <point x="200" y="832"/>
      <point x="350" y="734"/>
      <point x="602" y="734" type="curve" smooth="yes"/>
      <point x="676" y="734"/>
      <point x="759" y="746"/>
      <point x="849" y="771" type="curve"/>
    </contour>
  </outline>
</glyph>
<glyph name="afii10042" format="1">
  <advance width="1437"/>
  <unicode hex="0428"/>
  <outline>
    <contour>
      <point x="153" y="0" type="line"/>
      <point x="1284" y="0" type="line"/>
      <point x="1458" y="1658" type="line"/>
      <point x="1346" y="1658" type="line"/>
      <point x="1180" y="85" type="line"/>
      <point x="791" y="85" type="line"/>
      <point x="956" y="1658" type="line"/>
      <point x="844" y="1658" type="line"/>
      <point x="678" y="85" type="line"/>
      <point x="274" y="85" type="line"/>
      <point x="439" y="1658" type="line"/>
      <point x="327" y="1658" type="line"/>
    </contour>
  </outline>
</glyph>
<glyph name="afii10043" format="1">
  <advance width="1458"/>
  <unicode hex="0429"/>
  <outline>
    <contour>
      <point x="1283" y="-275" type="line"/>
      <point x="1373" y="-275" type="line"/>
      <point x="1410" y="85" type="line"/>
      <point x="1294" y="85" type="line"/>
      <point x="1459" y="1658" type="line"/>
      <point x="1347" y="1658" type="line"/>
      <point x="1181" y="85" type="line"/>
      <point x="790" y="85" type="line"/>
      <point x="955" y="1658" type="line"/>
      <point x="843" y="1658" type="line"/>
      <point x="678" y="85" type="line"/>
      <point x="273" y="85" type="line"/>
      <point x="438" y="1658" type="line"/>
      <point x="326" y="1658" type="line"/>
      <point x="152" y="0" type="line"/>
      <point x="1299" y="0" type="line"/>
    </contour>
  </outline>
</glyph>
<glyph name="afii10044" format="1">
  <advance width="1109"/>
  <unicode hex="042A"/>
  <outline>
    <contour>
      <point x="317" y="0" type="line"/>
      <point x="619" y="0" type="line" smooth="yes"/>
      <point x="941" y="0"/>
      <point x="1080" y="194"/>
      <point x="1109" y="470" type="curve" smooth="yes"/>
      <point x="1143" y="795"/>
      <point x="1021" y="959"/>
      <point x="716" y="959" type="curve" smooth="yes"/>
      <point x="530" y="959" type="line"/>
      <point x="604" y="1658" type="line"/>
      <point x="187" y="1658" type="line"/>
      <point x="179" y="1570" type="line"/>
      <point x="483" y="1570" type="line"/>
    </contour>
    <contour>
      <point x="439" y="91" type="line"/>
      <point x="521" y="868" type="line"/>
      <point x="712" y="868" type="line" smooth="yes"/>
      <point x="956" y="868"/>
      <point x="1022" y="719"/>
      <point x="996" y="472" type="curve" smooth="yes"/>
      <point x="970" y="225"/>
      <point x="874" y="91"/>
      <point x="632" y="91" type="curve" smooth="yes"/>
    </contour>
  </outline>
</glyph>
<glyph name="afii10045" format="1">
  <advance width="1371"/>
  <unicode hex="042B"/>
  <outline>
    <contour>
      <point x="152" y="0" type="line"/>
      <point x="454" y="0" type="line" smooth="yes"/>
      <point x="776" y="0"/>
      <point x="914" y="194"/>
      <point x="943" y="470" type="curve" smooth="yes"/>
      <point x="978" y="795"/>
      <point x="856" y="959"/>
      <point x="550" y="959" type="curve" smooth="yes"/>
      <point x="365" y="959" type="line"/>
      <point x="438" y="1658" type="line"/>
      <point x="326" y="1658" type="line"/>
    </contour>
    <contour>
      <point x="274" y="91" type="line"/>
      <point x="355" y="868" type="line"/>
      <point x="547" y="868" type="line" smooth="yes"/>
      <point x="790" y="868"/>
      <point x="857" y="719"/>
      <point x="831" y="472" type="curve" smooth="yes"/>
      <point x="805" y="225"/>
      <point x="709" y="91"/>
      <point x="466" y="91" type="curve" smooth="yes"/>
    </contour>
    <contour>
      <point x="1107" y="0" type="line"/>
      <point x="1219" y="0" type="line"/>
      <point x="1393" y="1658" type="line"/>
      <point x="1281" y="1658" type="line"/>
    </contour>
  </outline>
</glyph>
<glyph name="afii10046" format="1">
  <advance width="945"/>
  <unicode hex="042C"/>
  <outline>
    <contour>
      <point x="153" y="0" type="line"/>
      <point x="455" y="0" type="line" smooth="yes"/>
      <point x="776" y="0"/>
      <point x="915" y="194"/>
      <point x="944" y="470" type="curve" smooth="yes"/>
      <point x="978" y="795"/>
      <point x="857" y="959"/>
      <point x="551" y="959" type="curve" smooth="yes"/>
      <point x="366" y="959" type="line"/>
      <point x="439" y="1658" type="line"/>
      <point x="327" y="1658" type="line"/>
    </contour>
    <contour>
      <point x="274" y="91" type="line"/>
      <point x="356" y="868" type="line"/>
      <point x="548" y="868" type="line" smooth="yes"/>
      <point x="791" y="868"/>
      <point x="857" y="719"/>
      <point x="831" y="472" type="curve" smooth="yes"/>
      <point x="805" y="225"/>
      <point x="709" y="91"/>
      <point x="467" y="91" type="curve" smooth="yes"/>
    </contour>
  </outline>
</glyph>
<glyph name="afii10047" format="1">
  <advance width="1020"/>
  <unicode hex="042D"/>
  <outline>
    <contour>
      <point x="495" y="-16" type="curve" smooth="yes"/>
      <point x="814" y="-16"/>
      <point x="922" y="194"/>
      <point x="952" y="481" type="curve" smooth="yes"/>
      <point x="1026" y="1183" type="line" smooth="yes"/>
      <point x="1055" y="1461"/>
      <point x="1002" y="1683"/>
      <point x="674" y="1683" type="curve" smooth="yes"/>
      <point x="375" y="1683"/>
      <point x="274" y="1480"/>
      <point x="244" y="1197" type="curve" smooth="yes"/>
      <point x="238" y="1131" type="line"/>
      <point x="344" y="1131" type="line"/>
      <point x="352" y="1215" type="line" smooth="yes"/>
      <point x="376" y="1442"/>
      <point x="443" y="1591"/>
      <point x="663" y="1591" type="curve" smooth="yes"/>
      <point x="894" y="1591"/>
      <point x="941" y="1446"/>
      <point x="915" y="1201" type="curve" smooth="yes"/>
      <point x="883" y="896" type="line"/>
      <point x="491" y="896" type="line"/>
      <point x="483" y="816" type="line"/>
      <point x="875" y="816" type="line"/>
      <point x="838" y="467" type="line" smooth="yes"/>
      <point x="813" y="234"/>
      <point x="746" y="75"/>
      <point x="504" y="75" type="curve" smooth="yes"/>
      <point x="287" y="75"/>
      <point x="247" y="215"/>
      <point x="272" y="450" type="curve" smooth="yes"/>
      <point x="280" y="521" type="line"/>
      <point x="174" y="521" type="line"/>
      <point x="166" y="451" type="line" smooth="yes"/>
      <point x="136" y="169"/>
      <point x="207" y="-16"/>
    </contour>
  </outline>
</glyph>
<glyph name="afii10048" format="1">
  <advance width="1368"/>
  <unicode hex="042E"/>
  <outline>
    <contour>
      <point x="840" y="-22" type="curve" smooth="yes"/>
      <point x="1158" y="-22"/>
      <point x="1270" y="187"/>
      <point x="1300" y="470" type="curve" smooth="yes"/>
      <point x="1375" y="1192" type="line" smooth="yes"/>
      <point x="1405" y="1473"/>
      <point x="1328" y="1677"/>
      <point x="1019" y="1677" type="curve" smooth="yes"/>
      <point x="709" y="1677"/>
      <point x="592" y="1478"/>
      <point x="561" y="1193" type="curve" smooth="yes"/>
      <point x="528" y="882" type="line"/>
      <point x="353" y="882" type="line"/>
      <point x="435" y="1658" type="line"/>
      <point x="327" y="1658" type="line"/>
      <point x="153" y="0" type="line"/>
      <point x="261" y="0" type="line"/>
      <point x="344" y="791" type="line"/>
      <point x="519" y="791" type="line"/>
      <point x="486" y="473" type="line" smooth="yes"/>
      <point x="456" y="189"/>
      <point x="521" y="-22"/>
    </contour>
    <contour>
      <point x="853" y="70" type="curve" smooth="yes"/>
      <point x="613" y="70"/>
      <point x="565" y="222"/>
      <point x="588" y="447" type="curve" smooth="yes"/>
      <point x="669" y="1212" type="line" smooth="yes"/>
      <point x="693" y="1438"/>
      <point x="774" y="1586"/>
      <point x="1010" y="1586" type="curve" smooth="yes"/>
      <point x="1246" y="1586"/>
      <point x="1295" y="1437"/>
      <point x="1272" y="1212" type="curve" smooth="yes"/>
      <point x="1192" y="447" type="line" smooth="yes"/>
      <point x="1168" y="222"/>
      <point x="1088" y="70"/>
    </contour>
  </outline>
</glyph>
<glyph name="afii10049" format="1">
  <advance width="1079"/>
  <unicode hex="042F"/>
  <outline>
    <contour>
      <point x="48" y="0" type="line"/>
      <point x="172" y="0" type="line"/>
      <point x="554" y="728" type="line"/>
      <point x="576" y="725"/>
      <point x="609" y="722"/>
      <point x="635" y="722" type="curve"/>
      <point x="890" y="722" type="line"/>
      <point x="814" y="0" type="line"/>
      <point x="927" y="0" type="line"/>
      <point x="1101" y="1658" type="line"/>
      <point x="740" y="1658" type="line" smooth="yes"/>
      <point x="411" y="1658"/>
      <point x="294" y="1450"/>
      <point x="269" y="1215" type="curve" smooth="yes"/>
      <point x="246" y="996"/>
      <point x="295" y="817"/>
      <point x="457" y="755" type="curve"/>
    </contour>
    <contour>
      <point x="658" y="809" type="line"/>
      <point x="424" y="809"/>
      <point x="351" y="946"/>
      <point x="378" y="1214" type="curve" smooth="yes"/>
      <point x="405" y="1471"/>
      <point x="531" y="1571"/>
      <point x="734" y="1571" type="curve" smooth="yes"/>
      <point x="979" y="1571" type="line"/>
      <point x="899" y="809" type="line"/>
    </contour>
  </outline>
</glyph>
<glyph name="afii10066" format="1">
  <advance width="899"/>
  <unicode hex="0431"/>
  <outline>
    <contour>
      <point x="459" y="-19" type="curve" smooth="yes"/>
      <point x="672" y="-14"/>
      <point x="809" y="81"/>
      <point x="848" y="446" type="curve" smooth="yes"/>
      <point x="869" y="643" type="line" smooth="yes"/>
      <point x="905" y="991"/>
      <point x="822" y="1111"/>
      <point x="633" y="1111" type="curve" smooth="yes"/>
      <point x="530" y="1110"/>
      <point x="392" y="1053"/>
      <point x="340" y="1002" type="curve"/>
      <point x="355" y="1155" type="line" smooth="yes"/>
      <point x="405" y="1625"/>
      <point x="553" y="1472"/>
      <point x="882" y="1597" type="curve"/>
      <point x="877" y="1696" type="line"/>
      <point x="511" y="1549"/>
      <point x="306" y="1719"/>
      <point x="243" y="1113" type="curve" smooth="yes"/>
      <point x="164" y="363" type="line" smooth="yes"/>
      <point x="135" y="90"/>
      <point x="291" y="-23"/>
    </contour>
    <contour>
      <point x="474" y="63" type="curve" smooth="yes"/>
      <point x="351" y="60"/>
      <point x="249" y="144"/>
      <point x="272" y="361" type="curve" smooth="yes"/>
      <point x="331" y="921" type="line" smooth="yes"/>
      <point x="385" y="969"/>
      <point x="522" y="1032"/>
      <point x="608" y="1032" type="curve" smooth="yes"/>
      <point x="750" y="1032"/>
      <point x="791" y="944"/>
      <point x="762" y="663" type="curve" smooth="yes"/>
      <point x="737" y="424" type="line" smooth="yes"/>
      <point x="707" y="138"/>
      <point x="623" y="67"/>
    </contour>
  </outline>
</glyph>
<glyph name="afii10067" format="1">
  <advance width="768"/>
  <unicode hex="0432"/>
  <outline>
    <contour>
      <point x="116" y="0" type="line"/>
      <point x="396" y="0" type="line" smooth="yes"/>
      <point x="641" y="0"/>
      <point x="710" y="139"/>
      <point x="731" y="343" type="curve" smooth="yes"/>
      <point x="745" y="475"/>
      <point x="715" y="599"/>
      <point x="590" y="640" type="curve"/>
      <point x="705" y="684"/>
      <point x="754" y="799"/>
      <point x="763" y="898" type="curve" smooth="yes"/>
      <point x="778" y="1044"/>
      <point x="726" y="1184"/>
      <point x="501" y="1184" type="curve" smooth="yes"/>
      <point x="240" y="1184" type="line"/>
    </contour>
    <contour>
      <point x="232" y="84" type="line"/>
      <point x="286" y="589" type="line"/>
      <point x="457" y="589" type="line" smooth="yes"/>
      <point x="571" y="589"/>
      <point x="644" y="533"/>
      <point x="624" y="346" type="curve" smooth="yes"/>
      <point x="608" y="192"/>
      <point x="554" y="84"/>
      <point x="394" y="84" type="curve" smooth="yes"/>
    </contour>
    <contour>
      <point x="294" y="671" type="line"/>
      <point x="338" y="1096" type="line"/>
      <point x="486" y="1096" type="line" smooth="yes"/>
      <point x="619" y="1096"/>
      <point x="675" y="1017"/>
      <point x="662" y="890" type="curve" smooth="yes"/>
      <point x="647" y="754"/>
      <point x="568" y="671"/>
      <point x="469" y="671" type="curve" smooth="yes"/>
    </contour>
  </outline>
</glyph>
<glyph name="afii10068" format="1">
  <advance width="571"/>
  <unicode hex="0433"/>
  <outline>
    <contour>
      <point x="116" y="0" type="line"/>
      <point x="225" y="0" type="line"/>
      <point x="340" y="1098" type="line"/>
      <point x="645" y="1098" type="line"/>
      <point x="653" y="1184" type="line"/>
      <point x="240" y="1184" type="line"/>
    </contour>
  </outline>
</glyph>
<glyph name="afii10069" format="1">
  <advance width="932"/>
  <unicode hex="0434"/>
  <outline>
    <contour>
      <point x="0" y="-275" type="line"/>
      <point x="85" y="-275" type="line"/>
      <point x="124" y="0" type="line"/>
      <point x="759" y="0" type="line"/>
      <point x="739" y="-275" type="line"/>
      <point x="826" y="-275" type="line"/>
      <point x="863" y="79" type="line"/>
      <point x="758" y="79" type="line"/>
      <point x="874" y="1184" type="line"/>
      <point x="405" y="1184" type="line"/>
      <point x="340" y="833" type="line" smooth="yes"/>
      <point x="250" y="301"/>
      <point x="174" y="147"/>
      <point x="37" y="76" type="curve"/>
    </contour>
    <contour>
      <point x="159" y="79" type="line"/>
      <point x="295" y="162"/>
      <point x="347" y="326"/>
      <point x="429" y="813" type="curve" smooth="yes"/>
      <point x="487" y="1101" type="line"/>
      <point x="759" y="1101" type="line"/>
      <point x="652" y="79" type="line"/>
    </contour>
  </outline>
</glyph>
